STARTFONT 2.1
COMMENT
COMMENT Converted from OpenType font "Hack-Bold.ttf" by "otf2bdf 3.0".
COMMENT
FONT -FreeType-Hack-Bold-R-Normal--18-130-100-100-P-89-ISO10646-1
SIZE 13 100 100
FONTBOUNDINGBOX 26 25 -13 -7
STARTPROPERTIES 19
FOUNDRY "FreeType"
FAMILY_NAME "Hack"
WEIGHT_NAME "Bold"
SLANT "R"
SETWIDTH_NAME "Normal"
ADD_STYLE_NAME ""
PIXEL_SIZE 18
POINT_SIZE 130
RESOLUTION_X 100
RESOLUTION_Y 100
SPACING "P"
AVERAGE_WIDTH 89
CHARSET_REGISTRY "ISO10646"
CHARSET_ENCODING "1"
FONT_ASCENT 16
FONT_DESCENT 4
COPYRIGHT "Copyright (c) 2018 Source Foundry Authors / Copyright (c) 2003 by Bitstream, Inc. All Rights Reserved."
_OTF_FONTFILE "Hack-Bold.ttf"
_OTF_PSNAME "Hack-Bold"
ENDPROPERTIES
CHARS 1624
STARTCHAR 0000
ENCODING 0
SWIDTH 0 0
DWIDTH 0 0
BBX 0 0 0 0
BITMAP
ENDCHAR
STARTCHAR 000D
ENCODING 13
SWIDTH 609 0
DWIDTH 11 0
BBX 0 0 0 0
BITMAP
ENDCHAR
STARTCHAR 0020
ENCODING 32
SWIDTH 609 0
DWIDTH 11 0
BBX 0 0 0 0
BITMAP
ENDCHAR
STARTCHAR 0021
ENCODING 33
SWIDTH 609 0
DWIDTH 11 0
BBX 3 13 4 0
BITMAP
E0
E0
E0
E0
E0
C0
C0
40
40
00
E0
E0
E0
ENDCHAR
STARTCHAR 0022
ENCODING 34
SWIDTH 609 0
DWIDTH 11 0
BBX 7 5 2 8
BITMAP
C6
C6
C6
C6
C6
ENDCHAR
STARTCHAR 0023
ENCODING 35
SWIDTH 609 0
DWIDTH 11 0
BBX 11 13 0 0
BITMAP
0CC0
0CC0
0D80
7FE0
7FE0
1980
1B00
3300
FFC0
FFC0
3600
6600
6600
ENDCHAR
STARTCHAR 0024
ENCODING 36
SWIDTH 609 0
DWIDTH 11 0
BBX 9 16 1 -2
BITMAP
0800
0800
3F00
7F00
6900
E800
7800
3F00
0F00
0B80
4B80
7F00
7E00
0800
0800
0800
ENDCHAR
STARTCHAR 0025
ENCODING 37
SWIDTH 609 0
DWIDTH 11 0
BBX 11 13 0 0
BITMAP
3800
7C00
CC00
CC00
7C60
7B80
0E00
73C0
C7C0
0660
0660
07C0
0380
ENDCHAR
STARTCHAR 0026
ENCODING 38
SWIDTH 609 0
DWIDTH 11 0
BBX 11 13 0 0
BITMAP
1F00
3F00
3880
3800
1800
3C00
6E60
6660
E7C0
E3C0
73C0
7FC0
3EE0
ENDCHAR
STARTCHAR 0027
ENCODING 39
SWIDTH 609 0
DWIDTH 11 0
BBX 3 5 4 8
BITMAP
E0
E0
E0
E0
E0
ENDCHAR
STARTCHAR 0028
ENCODING 40
SWIDTH 609 0
DWIDTH 11 0
BBX 4 16 3 -2
BITMAP
30
70
60
E0
C0
C0
C0
C0
C0
C0
C0
C0
E0
60
70
30
ENDCHAR
STARTCHAR 0029
ENCODING 41
SWIDTH 609 0
DWIDTH 11 0
BBX 4 16 4 -2
BITMAP
C0
E0
60
70
70
30
30
30
30
30
30
70
70
60
E0
C0
ENDCHAR
STARTCHAR 002A
ENCODING 42
SWIDTH 609 0
DWIDTH 11 0
BBX 9 9 1 3
BITMAP
0800
0800
0800
EB80
7F00
1C00
3600
2600
6300
ENDCHAR
STARTCHAR 002B
ENCODING 43
SWIDTH 609 0
DWIDTH 11 0
BBX 9 10 1 1
BITMAP
1800
1800
1800
1800
FF80
FF80
1800
1800
1800
1800
ENDCHAR
STARTCHAR 002C
ENCODING 44
SWIDTH 609 0
DWIDTH 11 0
BBX 4 7 3 -4
BITMAP
70
70
70
10
30
E0
40
ENDCHAR
STARTCHAR 002D
ENCODING 45
SWIDTH 609 0
DWIDTH 11 0
BBX 7 2 2 4
BITMAP
FE
FE
ENDCHAR
STARTCHAR 002E
ENCODING 46
SWIDTH 609 0
DWIDTH 11 0
BBX 3 3 4 0
BITMAP
E0
E0
E0
ENDCHAR
STARTCHAR 002F
ENCODING 47
SWIDTH 609 0
DWIDTH 11 0
BBX 9 14 1 -1
BITMAP
0180
0300
0300
0600
0600
0C00
0C00
1800
1800
3000
3000
6000
6000
C000
ENDCHAR
STARTCHAR 0030
ENCODING 48
SWIDTH 609 0
DWIDTH 11 0
BBX 9 13 1 0
BITMAP
3E00
7F00
7700
E300
EB80
EB80
EB80
EB80
EB80
E300
7700
7F00
3E00
ENDCHAR
STARTCHAR 0031
ENCODING 49
SWIDTH 609 0
DWIDTH 11 0
BBX 9 13 1 0
BITMAP
1C00
3C00
7C00
EC00
4C00
0C00
0C00
0C00
0C00
0C00
0C00
7F80
7F80
ENDCHAR
STARTCHAR 0032
ENCODING 50
SWIDTH 609 0
DWIDTH 11 0
BBX 8 13 1 0
BITMAP
7C
FF
C7
03
03
07
0E
1C
38
70
E0
FF
FF
ENDCHAR
STARTCHAR 0033
ENCODING 51
SWIDTH 609 0
DWIDTH 11 0
BBX 9 13 1 0
BITMAP
7E00
FF00
8700
0300
0700
3E00
3E00
0300
0380
0380
8380
FF00
FE00
ENDCHAR
STARTCHAR 0034
ENCODING 52
SWIDTH 609 0
DWIDTH 11 0
BBX 9 13 1 0
BITMAP
0700
0F00
1F00
1F00
3700
6700
6700
C700
FF80
FF80
0700
0700
0700
ENDCHAR
STARTCHAR 0035
ENCODING 53
SWIDTH 609 0
DWIDTH 11 0
BBX 9 13 1 0
BITMAP
7F00
7F00
6000
6000
7C00
7F00
4700
0380
0380
0380
8700
FF00
FC00
ENDCHAR
STARTCHAR 0036
ENCODING 54
SWIDTH 609 0
DWIDTH 11 0
BBX 9 13 1 0
BITMAP
1F00
3F00
7100
6000
FE00
FF00
F380
E380
E380
E380
7380
7F00
3E00
ENDCHAR
STARTCHAR 0037
ENCODING 55
SWIDTH 609 0
DWIDTH 11 0
BBX 9 13 1 0
BITMAP
FF80
FF80
0300
0700
0600
0E00
0E00
0C00
1C00
1800
3800
3800
7000
ENDCHAR
STARTCHAR 0038
ENCODING 56
SWIDTH 609 0
DWIDTH 11 0
BBX 9 13 1 0
BITMAP
3E00
7F00
6300
E300
6300
3E00
7F00
6300
E380
E380
E380
7F00
3E00
ENDCHAR
STARTCHAR 0039
ENCODING 57
SWIDTH 609 0
DWIDTH 11 0
BBX 9 13 1 0
BITMAP
3C00
7F00
E700
C300
C380
E780
7F80
7F80
0380
0300
4700
7E00
7C00
ENDCHAR
STARTCHAR 003A
ENCODING 58
SWIDTH 609 0
DWIDTH 11 0
BBX 3 10 4 0
BITMAP
E0
E0
E0
00
00
00
00
E0
E0
E0
ENDCHAR
STARTCHAR 003B
ENCODING 59
SWIDTH 609 0
DWIDTH 11 0
BBX 4 14 3 -4
BITMAP
70
70
70
00
00
00
00
70
70
70
10
30
60
C0
ENDCHAR
STARTCHAR 003C
ENCODING 60
SWIDTH 609 0
DWIDTH 11 0
BBX 9 9 1 1
BITMAP
0180
0F80
3E00
F000
E000
F800
1F00
0780
0080
ENDCHAR
STARTCHAR 003D
ENCODING 61
SWIDTH 609 0
DWIDTH 11 0
BBX 9 6 1 3
BITMAP
FF80
FF80
0000
0000
FF80
FF80
ENDCHAR
STARTCHAR 003E
ENCODING 62
SWIDTH 609 0
DWIDTH 11 0
BBX 9 9 1 1
BITMAP
C000
F800
3E00
0F80
0380
0F80
7C00
F000
8000
ENDCHAR
STARTCHAR 003F
ENCODING 63
SWIDTH 609 0
DWIDTH 11 0
BBX 7 14 2 0
BITMAP
7C
FE
86
06
06
0C
18
30
30
30
00
30
38
30
ENDCHAR
STARTCHAR 0040
ENCODING 64
SWIDTH 609 0
DWIDTH 11 0
BBX 10 15 0 -3
BITMAP
0F00
3F80
70C0
60C0
C7C0
CFC0
DCC0
D840
DCC0
CFC0
E7C0
6000
3840
3FC0
0F80
ENDCHAR
STARTCHAR 0041
ENCODING 65
SWIDTH 609 0
DWIDTH 11 0
BBX 11 13 0 0
BITMAP
0E00
1E00
1F00
1B00
1B00
3B80
3B80
3180
3F80
7FC0
71C0
60C0
E0E0
ENDCHAR
STARTCHAR 0042
ENCODING 66
SWIDTH 609 0
DWIDTH 11 0
BBX 9 13 1 0
BITMAP
FE00
FF00
E380
E380
E380
FF00
FF00
E380
E180
E180
E380
FF80
FE00
ENDCHAR
STARTCHAR 0043
ENCODING 67
SWIDTH 609 0
DWIDTH 11 0
BBX 8 13 1 0
BITMAP
1F
3F
71
70
E0
E0
E0
E0
E0
70
71
3F
1F
ENDCHAR
STARTCHAR 0044
ENCODING 68
SWIDTH 609 0
DWIDTH 11 0
BBX 9 13 1 0
BITMAP
FC00
FF00
E700
E380
E380
E380
E380
E380
E380
E380
E700
FF00
FC00
ENDCHAR
STARTCHAR 0045
ENCODING 69
SWIDTH 609 0
DWIDTH 11 0
BBX 9 13 1 0
BITMAP
FF80
FF80
E000
E000
E000
FF00
FF00
E000
E000
E000
E000
FF80
FF80
ENDCHAR
STARTCHAR 0046
ENCODING 70
SWIDTH 609 0
DWIDTH 11 0
BBX 8 13 2 0
BITMAP
FF
FF
C0
C0
C0
FE
FE
C0
C0
C0
C0
C0
C0
ENDCHAR
STARTCHAR 0047
ENCODING 71
SWIDTH 609 0
DWIDTH 11 0
BBX 9 13 1 0
BITMAP
1F00
3F80
7180
E000
E000
E000
E780
E780
E180
E180
7180
3F80
1F00
ENDCHAR
STARTCHAR 0048
ENCODING 72
SWIDTH 609 0
DWIDTH 11 0
BBX 9 13 1 0
BITMAP
E380
E380
E380
E380
E380
FF80
FF80
E380
E380
E380
E380
E380
E380
ENDCHAR
STARTCHAR 0049
ENCODING 73
SWIDTH 609 0
DWIDTH 11 0
BBX 7 13 2 0
BITMAP
FE
FE
38
38
38
38
38
38
38
38
38
FE
FE
ENDCHAR
STARTCHAR 004A
ENCODING 74
SWIDTH 609 0
DWIDTH 11 0
BBX 8 13 1 0
BITMAP
3F
3F
07
07
07
07
07
07
07
87
C7
FE
7C
ENDCHAR
STARTCHAR 004B
ENCODING 75
SWIDTH 609 0
DWIDTH 11 0
BBX 10 13 1 0
BITMAP
E3C0
E300
E700
EE00
FC00
FC00
FC00
FE00
EE00
E700
E300
E380
E1C0
ENDCHAR
STARTCHAR 004C
ENCODING 76
SWIDTH 609 0
DWIDTH 11 0
BBX 8 13 2 0
BITMAP
E0
E0
E0
E0
E0
E0
E0
E0
E0
E0
E0
FF
FF
ENDCHAR
STARTCHAR 004D
ENCODING 77
SWIDTH 609 0
DWIDTH 11 0
BBX 9 13 1 0
BITMAP
E380
E380
F780
F780
F580
D580
DD80
DD80
C180
C180
C180
C180
C180
ENDCHAR
STARTCHAR 004E
ENCODING 78
SWIDTH 609 0
DWIDTH 11 0
BBX 9 13 1 0
BITMAP
E180
E180
F180
F180
D980
D980
D980
CD80
CD80
C780
C780
C780
C380
ENDCHAR
STARTCHAR 004F
ENCODING 79
SWIDTH 609 0
DWIDTH 11 0
BBX 9 13 1 0
BITMAP
3E00
7F00
6700
E380
E380
E380
E380
E380
E380
E380
E700
7F00
3E00
ENDCHAR
STARTCHAR 0050
ENCODING 80
SWIDTH 609 0
DWIDTH 11 0
BBX 9 13 1 0
BITMAP
FE00
FF00
E380
E380
E380
E380
FF80
FE00
E000
E000
E000
E000
E000
ENDCHAR
STARTCHAR 0051
ENCODING 81
SWIDTH 609 0
DWIDTH 11 0
BBX 10 16 1 -3
BITMAP
3E00
7F00
6700
E380
E380
E380
E380
E380
E380
E380
E700
7F00
3E00
0700
0380
01C0
ENDCHAR
STARTCHAR 0052
ENCODING 82
SWIDTH 609 0
DWIDTH 11 0
BBX 10 13 1 0
BITMAP
FE00
FF00
E380
E380
E380
E700
FF00
FE00
E700
E700
E380
E380
E1C0
ENDCHAR
STARTCHAR 0053
ENCODING 83
SWIDTH 609 0
DWIDTH 11 0
BBX 9 13 1 0
BITMAP
3E00
7F00
E100
E000
E000
7C00
3F00
0F00
0380
0380
C380
FF00
7E00
ENDCHAR
STARTCHAR 0054
ENCODING 84
SWIDTH 609 0
DWIDTH 11 0
BBX 9 13 1 0
BITMAP
FF80
FF80
1C00
1C00
1C00
1C00
1C00
1C00
1C00
1C00
1C00
1C00
1C00
ENDCHAR
STARTCHAR 0055
ENCODING 85
SWIDTH 609 0
DWIDTH 11 0
BBX 9 13 1 0
BITMAP
E380
E380
E380
E380
E380
E380
E380
E380
E380
E380
F780
7F00
3E00
ENDCHAR
STARTCHAR 0056
ENCODING 86
SWIDTH 609 0
DWIDTH 11 0
BBX 9 13 1 0
BITMAP
C180
C380
E380
E380
6300
6300
7700
7700
3600
3600
3600
3E00
1C00
ENDCHAR
STARTCHAR 0057
ENCODING 87
SWIDTH 609 0
DWIDTH 11 0
BBX 11 13 0 0
BITMAP
C060
C0E0
E0E0
EEC0
6EC0
6EC0
6AC0
6AC0
7BC0
7BC0
7BC0
71C0
3180
ENDCHAR
STARTCHAR 0058
ENCODING 88
SWIDTH 609 0
DWIDTH 11 0
BBX 11 13 0 0
BITMAP
E0E0
71C0
3380
3B80
1F00
0E00
0E00
1E00
1F00
3B80
3380
71C0
E0E0
ENDCHAR
STARTCHAR 0059
ENCODING 89
SWIDTH 609 0
DWIDTH 11 0
BBX 11 13 0 0
BITMAP
E0E0
71C0
71C0
3B80
3B00
1F00
1E00
0E00
0E00
0E00
0E00
0E00
0E00
ENDCHAR
STARTCHAR 005A
ENCODING 90
SWIDTH 609 0
DWIDTH 11 0
BBX 9 13 1 0
BITMAP
FF80
FF80
0780
0700
0E00
1E00
1C00
3800
3000
7000
E000
FF80
FF80
ENDCHAR
STARTCHAR 005B
ENCODING 91
SWIDTH 609 0
DWIDTH 11 0
BBX 6 17 3 -2
BITMAP
FC
FC
C0
C0
C0
C0
C0
C0
C0
C0
C0
C0
C0
C0
C0
FC
FC
ENDCHAR
STARTCHAR 005C
ENCODING 92
SWIDTH 609 0
DWIDTH 11 0
BBX 9 14 1 -1
BITMAP
C000
6000
6000
3000
3000
1800
1800
0C00
0C00
0600
0600
0600
0300
0380
ENDCHAR
STARTCHAR 005D
ENCODING 93
SWIDTH 609 0
DWIDTH 11 0
BBX 6 17 2 -2
BITMAP
FC
FC
0C
0C
0C
0C
0C
0C
0C
0C
0C
0C
0C
0C
0C
FC
FC
ENDCHAR
STARTCHAR 005E
ENCODING 94
SWIDTH 609 0
DWIDTH 11 0
BBX 9 5 1 8
BITMAP
1C00
3E00
7600
6300
C180
ENDCHAR
STARTCHAR 005F
ENCODING 95
SWIDTH 609 0
DWIDTH 11 0
BBX 9 2 1 -3
BITMAP
FF80
FF80
ENDCHAR
STARTCHAR 0060
ENCODING 96
SWIDTH 609 0
DWIDTH 11 0
BBX 5 4 2 11
BITMAP
C0
60
30
18
ENDCHAR
STARTCHAR 0061
ENCODING 97
SWIDTH 609 0
DWIDTH 11 0
BBX 9 10 1 0
BITMAP
7E00
7F00
4380
3F80
FF80
E380
E380
E780
FF80
7B80
ENDCHAR
STARTCHAR 0062
ENCODING 98
SWIDTH 609 0
DWIDTH 11 0
BBX 9 14 1 0
BITMAP
E000
E000
E000
E000
EE00
FF00
F380
E380
E380
E380
E380
F380
FF00
EE00
ENDCHAR
STARTCHAR 0063
ENCODING 99
SWIDTH 609 0
DWIDTH 11 0
BBX 8 10 1 0
BITMAP
1F
7F
71
E0
E0
E0
E0
71
7F
1F
ENDCHAR
STARTCHAR 0064
ENCODING 100
SWIDTH 609 0
DWIDTH 11 0
BBX 9 14 1 0
BITMAP
0380
0380
0380
0380
3B80
7F80
E780
E380
C380
C380
E380
E780
7F80
3B80
ENDCHAR
STARTCHAR 0065
ENCODING 101
SWIDTH 609 0
DWIDTH 11 0
BBX 9 10 1 0
BITMAP
3E00
7F00
E380
C380
FF80
FF80
C000
E080
7F80
3F00
ENDCHAR
STARTCHAR 0066
ENCODING 102
SWIDTH 609 0
DWIDTH 11 0
BBX 8 14 1 0
BITMAP
0F
1F
18
18
FF
FF
18
18
18
18
18
18
18
18
ENDCHAR
STARTCHAR 0067
ENCODING 103
SWIDTH 609 0
DWIDTH 11 0
BBX 9 14 1 -4
BITMAP
3B80
7F80
E780
E380
C380
C380
E380
E780
7F80
3B80
0380
4700
7F00
7E00
ENDCHAR
STARTCHAR 0068
ENCODING 104
SWIDTH 609 0
DWIDTH 11 0
BBX 7 14 2 0
BITMAP
C0
C0
C0
C0
DC
FE
E6
C6
C6
C6
C6
C6
C6
C6
ENDCHAR
STARTCHAR 0069
ENCODING 105
SWIDTH 609 0
DWIDTH 11 0
BBX 8 14 2 0
BITMAP
30
30
30
00
F0
F0
30
30
30
30
30
38
3F
1F
ENDCHAR
STARTCHAR 006A
ENCODING 106
SWIDTH 609 0
DWIDTH 11 0
BBX 6 18 2 -4
BITMAP
1C
1C
1C
00
7C
7C
1C
1C
1C
1C
1C
1C
1C
1C
1C
1C
F8
F0
ENDCHAR
STARTCHAR 006B
ENCODING 107
SWIDTH 609 0
DWIDTH 11 0
BBX 9 14 2 0
BITMAP
C000
C000
C000
C000
C700
CE00
DC00
F800
F800
FC00
CC00
CE00
C700
C780
ENDCHAR
STARTCHAR 006C
ENCODING 108
SWIDTH 609 0
DWIDTH 11 0
BBX 9 14 1 0
BITMAP
F800
F800
3800
3800
3800
3800
3800
3800
3800
3800
1800
1C00
1F80
0F80
ENDCHAR
STARTCHAR 006D
ENCODING 109
SWIDTH 609 0
DWIDTH 11 0
BBX 9 10 1 0
BITMAP
BB00
FF80
DD80
DD80
DD80
DD80
DD80
DD80
DD80
DD80
ENDCHAR
STARTCHAR 006E
ENCODING 110
SWIDTH 609 0
DWIDTH 11 0
BBX 7 10 2 0
BITMAP
DC
FE
E6
C6
C6
C6
C6
C6
C6
C6
ENDCHAR
STARTCHAR 006F
ENCODING 111
SWIDTH 609 0
DWIDTH 11 0
BBX 9 10 1 0
BITMAP
3E00
7F00
E380
E380
C380
C380
E380
E380
7F00
3E00
ENDCHAR
STARTCHAR 0070
ENCODING 112
SWIDTH 609 0
DWIDTH 11 0
BBX 9 14 1 -4
BITMAP
EE00
FF00
F380
E380
E380
E380
E380
F380
FF00
EE00
E000
E000
E000
E000
ENDCHAR
STARTCHAR 0071
ENCODING 113
SWIDTH 609 0
DWIDTH 11 0
BBX 9 14 1 -4
BITMAP
3B80
7F80
E780
E380
C380
C380
E380
E780
7F80
3B80
0380
0380
0380
0380
ENDCHAR
STARTCHAR 0072
ENCODING 114
SWIDTH 609 0
DWIDTH 11 0
BBX 8 10 2 0
BITMAP
EF
FF
F1
E0
E0
E0
E0
E0
E0
E0
ENDCHAR
STARTCHAR 0073
ENCODING 115
SWIDTH 609 0
DWIDTH 11 0
BBX 7 10 2 0
BITMAP
7C
FE
C2
C0
F8
3E
06
86
FE
FC
ENDCHAR
STARTCHAR 0074
ENCODING 116
SWIDTH 609 0
DWIDTH 11 0
BBX 8 14 1 0
BITMAP
08
38
38
38
FF
FF
38
38
38
38
38
18
1F
0F
ENDCHAR
STARTCHAR 0075
ENCODING 117
SWIDTH 609 0
DWIDTH 11 0
BBX 8 10 1 0
BITMAP
E3
E3
E3
E3
E3
E3
E3
E7
7F
3B
ENDCHAR
STARTCHAR 0076
ENCODING 118
SWIDTH 609 0
DWIDTH 11 0
BBX 9 10 1 0
BITMAP
C380
E380
E300
6300
7700
7600
3600
3600
3E00
1C00
ENDCHAR
STARTCHAR 0077
ENCODING 119
SWIDTH 609 0
DWIDTH 11 0
BBX 11 10 0 0
BITMAP
C060
C0E0
E0C0
6EC0
6EC0
6AC0
6AC0
7AC0
3B80
3180
ENDCHAR
STARTCHAR 0078
ENCODING 120
SWIDTH 609 0
DWIDTH 11 0
BBX 10 10 0 0
BITMAP
71C0
3B80
1B00
1F00
0E00
0E00
1F00
3B80
3180
F1C0
ENDCHAR
STARTCHAR 0079
ENCODING 121
SWIDTH 609 0
DWIDTH 11 0
BBX 9 14 1 -4
BITMAP
C180
E380
6380
7300
7700
3600
3E00
3E00
1C00
1C00
1C00
1800
F800
F000
ENDCHAR
STARTCHAR 007A
ENCODING 122
SWIDTH 609 0
DWIDTH 11 0
BBX 9 10 1 0
BITMAP
7F80
7F80
0700
0E00
1C00
1C00
3800
7000
FF80
FF80
ENDCHAR
STARTCHAR 007B
ENCODING 123
SWIDTH 609 0
DWIDTH 11 0
BBX 8 17 1 -3
BITMAP
0F
1F
1C
18
18
18
18
38
F8
F8
38
18
18
18
18
1F
0F
ENDCHAR
STARTCHAR 007C
ENCODING 124
SWIDTH 609 0
DWIDTH 11 0
BBX 2 18 4 -4
BITMAP
C0
C0
C0
C0
C0
C0
C0
C0
C0
C0
C0
C0
C0
C0
C0
C0
C0
C0
ENDCHAR
STARTCHAR 007D
ENCODING 125
SWIDTH 609 0
DWIDTH 11 0
BBX 8 17 2 -3
BITMAP
F0
F8
38
18
18
18
18
18
1F
1F
1C
18
18
18
38
F8
F0
ENDCHAR
STARTCHAR 007E
ENCODING 126
SWIDTH 609 0
DWIDTH 11 0
BBX 9 5 1 3
BITMAP
7180
F980
DD80
CF80
C700
ENDCHAR
STARTCHAR 00A0
ENCODING 160
SWIDTH 609 0
DWIDTH 11 0
BBX 0 0 0 0
BITMAP
ENDCHAR
STARTCHAR 00A1
ENCODING 161
SWIDTH 609 0
DWIDTH 11 0
BBX 3 14 4 -1
BITMAP
E0
E0
E0
00
00
40
40
C0
C0
E0
E0
E0
E0
E0
ENDCHAR
STARTCHAR 00A2
ENCODING 162
SWIDTH 609 0
DWIDTH 11 0
BBX 8 15 1 -3
BITMAP
04
04
1F
7F
75
E4
E4
E4
E4
65
7F
3F
04
04
04
ENDCHAR
STARTCHAR 00A3
ENCODING 163
SWIDTH 609 0
DWIDTH 11 0
BBX 9 13 1 0
BITMAP
0F80
1F80
3880
3800
3800
3800
FF00
FF00
3800
3800
3800
FF80
FF80
ENDCHAR
STARTCHAR 00A4
ENCODING 164
SWIDTH 609 0
DWIDTH 11 0
BBX 8 8 2 2
BITMAP
82
FF
64
46
46
66
7E
C3
ENDCHAR
STARTCHAR 00A5
ENCODING 165
SWIDTH 609 0
DWIDTH 11 0
BBX 11 13 0 0
BITMAP
E0E0
71C0
3180
3B80
FBC0
FFC0
0E00
FFC0
FFC0
0E00
0E00
0E00
0E00
ENDCHAR
STARTCHAR 00A6
ENCODING 166
SWIDTH 609 0
DWIDTH 11 0
BBX 2 16 4 -3
BITMAP
C0
C0
C0
C0
C0
C0
C0
00
00
C0
C0
C0
C0
C0
C0
C0
ENDCHAR
STARTCHAR 00A7
ENCODING 167
SWIDTH 609 0
DWIDTH 11 0
BBX 7 15 2 -2
BITMAP
7C
FC
E4
E0
70
FC
CE
C6
E6
7E
1C
0E
8E
FE
FC
ENDCHAR
STARTCHAR 00A8
ENCODING 168
SWIDTH 609 0
DWIDTH 11 0
BBX 5 2 3 12
BITMAP
D8
D8
ENDCHAR
STARTCHAR 00A9
ENCODING 169
SWIDTH 609 0
DWIDTH 11 0
BBX 11 11 0 1
BITMAP
1F00
2180
4040
CE60
9920
B020
9020
DE60
4040
2180
1F00
ENDCHAR
STARTCHAR 00AA
ENCODING 170
SWIDTH 609 0
DWIDTH 11 0
BBX 7 9 2 5
BITMAP
7C
44
06
7E
C6
CE
7E
00
7E
ENDCHAR
STARTCHAR 00AB
ENCODING 171
SWIDTH 609 0
DWIDTH 11 0
BBX 8 8 1 1
BITMAP
11
77
EE
88
CC
66
33
11
ENDCHAR
STARTCHAR 00AC
ENCODING 172
SWIDTH 609 0
DWIDTH 11 0
BBX 9 4 1 4
BITMAP
FF80
FF80
0180
0180
ENDCHAR
STARTCHAR 00AD
ENCODING 173
SWIDTH 609 0
DWIDTH 11 0
BBX 5 2 3 4
BITMAP
F8
F8
ENDCHAR
STARTCHAR 00AE
ENCODING 174
SWIDTH 609 0
DWIDTH 11 0
BBX 11 11 0 1
BITMAP
1F00
2180
4040
DE60
9B20
9E20
9A20
DB60
4040
2180
1F00
ENDCHAR
STARTCHAR 00AF
ENCODING 175
SWIDTH 609 0
DWIDTH 11 0
BBX 5 2 3 12
BITMAP
F8
F8
ENDCHAR
STARTCHAR 00B0
ENCODING 176
SWIDTH 609 0
DWIDTH 11 0
BBX 5 6 3 8
BITMAP
70
D8
88
88
98
70
ENDCHAR
STARTCHAR 00B1
ENCODING 177
SWIDTH 609 0
DWIDTH 11 0
BBX 9 11 1 0
BITMAP
1800
1800
1800
FF80
FF80
1800
1800
1800
0000
FF80
FF80
ENDCHAR
STARTCHAR 00B2
ENCODING 178
SWIDTH 609 0
DWIDTH 11 0
BBX 6 7 2 10
BITMAP
78
4C
0C
18
30
60
FC
ENDCHAR
STARTCHAR 00B3
ENCODING 179
SWIDTH 609 0
DWIDTH 11 0
BBX 6 7 3 10
BITMAP
F8
08
70
18
0C
98
F0
ENDCHAR
STARTCHAR 00B4
ENCODING 180
SWIDTH 609 0
DWIDTH 11 0
BBX 5 4 4 11
BITMAP
18
30
60
C0
ENDCHAR
STARTCHAR 00B5
ENCODING 181
SWIDTH 609 0
DWIDTH 11 0
BBX 9 14 1 -4
BITMAP
E300
E300
E300
E300
E300
E300
E300
E700
FF80
FD80
E000
E000
E000
E000
ENDCHAR
STARTCHAR 00B6
ENCODING 182
SWIDTH 609 0
DWIDTH 11 0
BBX 8 15 1 -2
BITMAP
3F
F9
F9
F9
F9
F9
79
19
19
19
19
19
19
19
19
ENDCHAR
STARTCHAR 00B7
ENCODING 183
SWIDTH 609 0
DWIDTH 11 0
BBX 3 3 4 5
BITMAP
C0
E0
E0
ENDCHAR
STARTCHAR 00B8
ENCODING 184
SWIDTH 609 0
DWIDTH 11 0
BBX 4 3 3 -3
BITMAP
30
10
F0
ENDCHAR
STARTCHAR 00B9
ENCODING 185
SWIDTH 609 0
DWIDTH 11 0
BBX 5 7 3 10
BITMAP
E0
A0
20
20
20
20
F8
ENDCHAR
STARTCHAR 00BA
ENCODING 186
SWIDTH 609 0
DWIDTH 11 0
BBX 7 9 2 4
BITMAP
3C
6C
C6
C6
66
7C
00
00
7E
ENDCHAR
STARTCHAR 00BB
ENCODING 187
SWIDTH 609 0
DWIDTH 11 0
BBX 8 8 2 1
BITMAP
88
CC
77
33
33
EE
CC
88
ENDCHAR
STARTCHAR 00BC
ENCODING 188
SWIDTH 609 0
DWIDTH 11 0
BBX 10 17 0 -3
BITMAP
7000
3000
3000
3000
3000
3000
FC00
01C0
1E00
E180
0380
0380
0580
0980
0FC0
0180
0180
ENDCHAR
STARTCHAR 00BD
ENCODING 189
SWIDTH 609 0
DWIDTH 11 0
BBX 10 17 0 -2
BITMAP
7000
7000
3000
3000
3000
3000
FC00
01C0
0F00
F800
4F80
08C0
00C0
0180
0300
0600
0FC0
ENDCHAR
STARTCHAR 00BE
ENCODING 190
SWIDTH 609 0
DWIDTH 11 0
BBX 10 17 0 -3
BITMAP
7800
4C00
0C00
3800
0C00
0400
7C00
03C0
3E00
E180
0380
0380
0580
0980
0FC0
0180
0180
ENDCHAR
STARTCHAR 00BF
ENCODING 191
SWIDTH 609 0
DWIDTH 11 0
BBX 7 14 2 0
BITMAP
18
38
18
00
18
18
38
30
70
E0
C0
C6
FE
7C
ENDCHAR
STARTCHAR 00C0
ENCODING 192
SWIDTH 609 0
DWIDTH 11 0
BBX 11 17 0 0
BITMAP
3800
0C00
0600
0000
0E00
1E00
1F00
1B00
1B00
3B80
3B80
3180
3F80
7FC0
71C0
60C0
E0E0
ENDCHAR
STARTCHAR 00C1
ENCODING 193
SWIDTH 609 0
DWIDTH 11 0
BBX 11 17 0 0
BITMAP
0300
0600
0C00
0000
0E00
1E00
1F00
1B00
1B00
3B80
3B80
3180
3F80
7FC0
71C0
60C0
E0E0
ENDCHAR
STARTCHAR 00C2
ENCODING 194
SWIDTH 609 0
DWIDTH 11 0
BBX 11 17 0 0
BITMAP
0E00
1B00
3180
0000
0E00
1E00
1F00
1B00
1B00
3B80
3B80
3180
3F80
7FC0
71C0
60C0
E0E0
ENDCHAR
STARTCHAR 00C3
ENCODING 195
SWIDTH 609 0
DWIDTH 11 0
BBX 11 17 0 0
BITMAP
1980
1500
3300
0000
0E00
1E00
1F00
1B00
1B00
3B80
3B80
3180
3F80
7FC0
71C0
60C0
E0E0
ENDCHAR
STARTCHAR 00C4
ENCODING 196
SWIDTH 609 0
DWIDTH 11 0
BBX 11 17 0 0
BITMAP
1B00
1B00
0000
0000
0E00
1E00
1F00
1B00
1B00
3B80
3B80
3180
3F80
7FC0
71C0
60C0
E0E0
ENDCHAR
STARTCHAR 00C5
ENCODING 197
SWIDTH 609 0
DWIDTH 11 0
BBX 11 17 0 0
BITMAP
0E00
1B00
1100
1B00
0E00
1E00
1F00
1B00
1B00
3B80
3B80
3180
7F80
7FC0
71C0
60C0
E0E0
ENDCHAR
STARTCHAR 00C6
ENCODING 198
SWIDTH 609 0
DWIDTH 11 0
BBX 10 13 0 0
BITMAP
1FC0
1FC0
1F00
3700
3700
37C0
37C0
7700
7F00
7F00
6700
E7C0
C7C0
ENDCHAR
STARTCHAR 00C7
ENCODING 199
SWIDTH 609 0
DWIDTH 11 0
BBX 8 17 1 -4
BITMAP
1F
3F
71
70
E0
E0
E0
E0
E0
60
71
7F
3F
0E
02
16
1E
ENDCHAR
STARTCHAR 00C8
ENCODING 200
SWIDTH 609 0
DWIDTH 11 0
BBX 9 16 1 0
BITMAP
3800
0C00
0000
FF80
FF80
E000
E000
E000
FF00
FF00
E000
E000
E000
E000
FF80
FF80
ENDCHAR
STARTCHAR 00C9
ENCODING 201
SWIDTH 609 0
DWIDTH 11 0
BBX 9 16 1 0
BITMAP
0700
1C00
0000
FF80
FF80
E000
E000
E000
FF00
FF00
E000
E000
E000
E000
FF80
FF80
ENDCHAR
STARTCHAR 00CA
ENCODING 202
SWIDTH 609 0
DWIDTH 11 0
BBX 9 17 1 0
BITMAP
1C00
3600
6300
0000
FF80
FF80
E000
E000
E000
FF00
FF00
E000
E000
E000
E000
FF80
FF80
ENDCHAR
STARTCHAR 00CB
ENCODING 203
SWIDTH 609 0
DWIDTH 11 0
BBX 9 17 1 0
BITMAP
3700
3700
0000
0000
FF80
FF80
E000
E000
E000
FF00
FF00
E000
E000
E000
E000
FF80
FF80
ENDCHAR
STARTCHAR 00CC
ENCODING 204
SWIDTH 609 0
DWIDTH 11 0
BBX 7 17 2 0
BITMAP
E0
30
18
00
FE
FE
38
38
38
38
38
38
38
38
38
FE
FE
ENDCHAR
STARTCHAR 00CD
ENCODING 205
SWIDTH 609 0
DWIDTH 11 0
BBX 7 17 2 0
BITMAP
0C
18
30
00
FE
FE
38
38
38
38
38
38
38
38
38
FE
FE
ENDCHAR
STARTCHAR 00CE
ENCODING 206
SWIDTH 609 0
DWIDTH 11 0
BBX 7 17 2 0
BITMAP
38
6C
C6
00
FE
FE
38
38
38
38
38
38
38
38
38
FE
FE
ENDCHAR
STARTCHAR 00CF
ENCODING 207
SWIDTH 609 0
DWIDTH 11 0
BBX 7 17 2 0
BITMAP
6C
6C
00
00
FE
FE
38
38
38
38
38
38
38
38
38
FE
FE
ENDCHAR
STARTCHAR 00D0
ENCODING 208
SWIDTH 609 0
DWIDTH 11 0
BBX 10 13 0 0
BITMAP
7E00
7F80
7380
71C0
71C0
FDC0
FDC0
71C0
71C0
71C0
7380
7F80
7E00
ENDCHAR
STARTCHAR 00D1
ENCODING 209
SWIDTH 609 0
DWIDTH 11 0
BBX 9 17 1 0
BITMAP
3300
2A00
6600
0000
E180
E180
F180
F180
D980
D980
D980
CD80
CD80
C780
C780
C780
C380
ENDCHAR
STARTCHAR 00D2
ENCODING 210
SWIDTH 609 0
DWIDTH 11 0
BBX 9 17 1 0
BITMAP
7000
1800
1C00
0000
3E00
7F00
6700
E380
E380
E380
E380
E380
E380
E380
E700
7F00
3E00
ENDCHAR
STARTCHAR 00D3
ENCODING 211
SWIDTH 609 0
DWIDTH 11 0
BBX 9 17 1 0
BITMAP
0600
0C00
1800
0000
3E00
7F00
6700
E380
E380
E380
E380
E380
E380
E380
E700
7F00
3E00
ENDCHAR
STARTCHAR 00D4
ENCODING 212
SWIDTH 609 0
DWIDTH 11 0
BBX 9 17 1 0
BITMAP
1C00
3600
6300
0000
3E00
7F00
6700
E380
E380
E380
E380
E380
E380
E380
E700
7F00
3E00
ENDCHAR
STARTCHAR 00D5
ENCODING 213
SWIDTH 609 0
DWIDTH 11 0
BBX 9 17 1 0
BITMAP
3300
2A00
6600
0000
3E00
7F00
6700
E380
E380
E380
E380
E380
E380
E380
E700
7F00
3E00
ENDCHAR
STARTCHAR 00D6
ENCODING 214
SWIDTH 609 0
DWIDTH 11 0
BBX 9 17 1 0
BITMAP
3600
3600
0000
0000
3E00
7F00
6700
E380
E380
E380
E380
E380
E380
E380
E700
7F00
3E00
ENDCHAR
STARTCHAR 00D7
ENCODING 215
SWIDTH 609 0
DWIDTH 11 0
BBX 9 9 1 1
BITMAP
4100
E380
7700
3E00
1C00
3E00
7700
E380
4100
ENDCHAR
STARTCHAR 00D8
ENCODING 216
SWIDTH 609 0
DWIDTH 11 0
BBX 11 13 0 0
BITMAP
1F60
3FC0
3380
73C0
73C0
77C0
7DC0
7DC0
79C0
71C0
7380
7F80
DF00
ENDCHAR
STARTCHAR 00D9
ENCODING 217
SWIDTH 609 0
DWIDTH 11 0
BBX 9 17 1 0
BITMAP
7000
1800
0C00
0000
E380
E380
E380
E380
E380
E380
E380
E380
E380
E380
F780
7F00
3E00
ENDCHAR
STARTCHAR 00DA
ENCODING 218
SWIDTH 609 0
DWIDTH 11 0
BBX 9 17 1 0
BITMAP
0600
0C00
1800
0000
E380
E380
E380
E380
E380
E380
E380
E380
E380
E380
F780
7F00
3E00
ENDCHAR
STARTCHAR 00DB
ENCODING 219
SWIDTH 609 0
DWIDTH 11 0
BBX 9 17 1 0
BITMAP
1C00
3600
6300
0000
E380
E380
E380
E380
E380
E380
E380
E380
E380
E380
F780
7F00
3E00
ENDCHAR
STARTCHAR 00DC
ENCODING 220
SWIDTH 609 0
DWIDTH 11 0
BBX 9 17 1 0
BITMAP
3600
3600
0000
0000
E380
E380
E380
E380
E380
E380
E380
E380
E380
E380
F780
7F00
3E00
ENDCHAR
STARTCHAR 00DD
ENCODING 221
SWIDTH 609 0
DWIDTH 11 0
BBX 11 17 0 0
BITMAP
0300
0600
0C00
0000
E0E0
71C0
71C0
3B80
3B00
1F00
1E00
0E00
0E00
0E00
0E00
0E00
0E00
ENDCHAR
STARTCHAR 00DE
ENCODING 222
SWIDTH 609 0
DWIDTH 11 0
BBX 9 13 1 0
BITMAP
E000
E000
FE00
FF00
E380
E380
E380
E380
FF00
FE00
E000
E000
E000
ENDCHAR
STARTCHAR 00DF
ENCODING 223
SWIDTH 609 0
DWIDTH 11 0
BBX 9 14 1 0
BITMAP
3C00
7F00
E300
E300
EF00
EC00
EC00
EE00
E700
E380
E180
F180
FF80
FF00
ENDCHAR
STARTCHAR 00E0
ENCODING 224
SWIDTH 609 0
DWIDTH 11 0
BBX 9 15 1 0
BITMAP
7000
3000
1800
0C00
0000
7E00
7F00
4380
3F80
FF80
E380
E380
E380
FF80
7B80
ENDCHAR
STARTCHAR 00E1
ENCODING 225
SWIDTH 609 0
DWIDTH 11 0
BBX 9 15 1 0
BITMAP
0700
0600
0C00
1800
0000
7E00
7F00
4380
3F80
FF80
E380
E380
E780
FF80
7B80
ENDCHAR
STARTCHAR 00E2
ENCODING 226
SWIDTH 609 0
DWIDTH 11 0
BBX 9 15 1 0
BITMAP
1C00
3400
3600
6300
0000
7E00
7F00
4380
3F80
FF80
E380
E380
E780
FF80
7B80
ENDCHAR
STARTCHAR 00E3
ENCODING 227
SWIDTH 609 0
DWIDTH 11 0
BBX 9 14 1 0
BITMAP
3B00
6E00
0000
0000
7E00
7F00
4380
3F80
FF80
E380
E380
E780
FF80
7B80
ENDCHAR
STARTCHAR 00E4
ENCODING 228
SWIDTH 609 0
DWIDTH 11 0
BBX 9 14 1 0
BITMAP
3600
3600
0000
0000
7E00
7F00
4380
3F80
FF80
E380
E380
E780
FF80
7B80
ENDCHAR
STARTCHAR 00E5
ENCODING 229
SWIDTH 609 0
DWIDTH 11 0
BBX 9 16 1 0
BITMAP
1C00
3600
2200
3600
1C00
0000
7E00
7F00
4380
3F80
FF80
E380
E380
E780
FF80
7B80
ENDCHAR
STARTCHAR 00E6
ENCODING 230
SWIDTH 609 0
DWIDTH 11 0
BBX 10 10 0 0
BITMAP
7B80
7FC0
4EC0
0EC0
7FC0
FFC0
CE00
CE40
FFC0
7BC0
ENDCHAR
STARTCHAR 00E7
ENCODING 231
SWIDTH 609 0
DWIDTH 11 0
BBX 8 14 1 -4
BITMAP
1F
3F
71
60
60
E0
60
71
7F
3F
0E
06
16
1C
ENDCHAR
STARTCHAR 00E8
ENCODING 232
SWIDTH 609 0
DWIDTH 11 0
BBX 9 15 1 0
BITMAP
7000
3800
1800
0C00
0000
3E00
7F00
E380
E380
FF80
FF80
E000
E080
7F80
3F00
ENDCHAR
STARTCHAR 00E9
ENCODING 233
SWIDTH 609 0
DWIDTH 11 0
BBX 9 15 1 0
BITMAP
0300
0600
0C00
1800
0000
3E00
7F00
E380
C380
FF80
FF80
C000
E180
7F80
3F00
ENDCHAR
STARTCHAR 00EA
ENCODING 234
SWIDTH 609 0
DWIDTH 11 0
BBX 9 15 1 0
BITMAP
1C00
1E00
3200
6300
0000
3E00
7F00
E380
C380
FF80
FF80
C000
E080
7F80
3F00
ENDCHAR
STARTCHAR 00EB
ENCODING 235
SWIDTH 609 0
DWIDTH 11 0
BBX 9 14 1 0
BITMAP
3600
3600
0000
0000
3E00
7F00
E380
C380
FF80
FF80
C000
E080
7F80
3F00
ENDCHAR
STARTCHAR 00EC
ENCODING 236
SWIDTH 609 0
DWIDTH 11 0
BBX 9 15 1 0
BITMAP
E000
3000
1800
0800
0000
7800
7800
1800
1800
1800
1800
1800
1C00
1F80
0F80
ENDCHAR
STARTCHAR 00ED
ENCODING 237
SWIDTH 609 0
DWIDTH 11 0
BBX 8 15 2 0
BITMAP
0E
1C
30
20
00
F0
F0
30
30
30
30
30
38
3F
1F
ENDCHAR
STARTCHAR 00EE
ENCODING 238
SWIDTH 609 0
DWIDTH 11 0
BBX 8 15 2 0
BITMAP
30
78
CC
84
00
F0
F0
30
30
30
30
30
38
3F
1F
ENDCHAR
STARTCHAR 00EF
ENCODING 239
SWIDTH 609 0
DWIDTH 11 0
BBX 8 14 2 0
BITMAP
CC
CC
00
00
F0
F0
30
30
30
30
30
38
3F
1F
ENDCHAR
STARTCHAR 00F0
ENCODING 240
SWIDTH 609 0
DWIDTH 11 0
BBX 9 14 1 0
BITMAP
3B00
1E00
3C00
6E00
0600
3F00
7F80
E380
E380
C380
E380
E300
7F00
3E00
ENDCHAR
STARTCHAR 00F1
ENCODING 241
SWIDTH 609 0
DWIDTH 11 0
BBX 7 14 2 0
BITMAP
76
DC
00
00
DC
FE
E6
C6
C6
C6
C6
C6
C6
C6
ENDCHAR
STARTCHAR 00F2
ENCODING 242
SWIDTH 609 0
DWIDTH 11 0
BBX 9 14 1 0
BITMAP
7000
1800
0C00
0000
3E00
7F00
E380
E380
C380
C380
E380
E380
7F00
3E00
ENDCHAR
STARTCHAR 00F3
ENCODING 243
SWIDTH 609 0
DWIDTH 11 0
BBX 9 14 1 0
BITMAP
0700
0C00
1800
0000
3E00
7F00
E380
E380
C380
C380
E380
E380
7F00
3E00
ENDCHAR
STARTCHAR 00F4
ENCODING 244
SWIDTH 609 0
DWIDTH 11 0
BBX 9 14 1 0
BITMAP
1C00
3600
6300
0000
3E00
7F00
E380
E380
C380
C380
E380
E380
7F00
3E00
ENDCHAR
STARTCHAR 00F5
ENCODING 245
SWIDTH 609 0
DWIDTH 11 0
BBX 9 14 1 0
BITMAP
3B00
6E00
0000
0000
3E00
7F00
E380
E380
C380
C380
E380
E380
7F00
3E00
ENDCHAR
STARTCHAR 00F6
ENCODING 246
SWIDTH 609 0
DWIDTH 11 0
BBX 9 14 1 0
BITMAP
3600
3600
0000
0000
3E00
7F00
E380
E380
C380
C380
E380
E380
7F00
3E00
ENDCHAR
STARTCHAR 00F7
ENCODING 247
SWIDTH 609 0
DWIDTH 11 0
BBX 9 9 1 1
BITMAP
1C00
1C00
0000
FF80
FF80
0000
0000
1C00
1C00
ENDCHAR
STARTCHAR 00F8
ENCODING 248
SWIDTH 609 0
DWIDTH 11 0
BBX 11 12 0 -1
BITMAP
0040
1FE0
3FC0
71C0
73C0
67C0
6DC0
79C0
71C0
7F80
FF00
4000
ENDCHAR
STARTCHAR 00F9
ENCODING 249
SWIDTH 609 0
DWIDTH 11 0
BBX 8 15 1 0
BITMAP
60
30
18
0C
00
E3
E3
E3
E3
E3
E3
E3
E7
7F
3B
ENDCHAR
STARTCHAR 00FA
ENCODING 250
SWIDTH 609 0
DWIDTH 11 0
BBX 8 15 1 0
BITMAP
03
06
0C
18
00
E3
E3
E3
E3
E3
E3
E3
E7
7F
3B
ENDCHAR
STARTCHAR 00FB
ENCODING 251
SWIDTH 609 0
DWIDTH 11 0
BBX 8 15 1 0
BITMAP
1C
1C
36
63
00
E3
E3
E3
E3
E3
E3
E3
E7
7F
3B
ENDCHAR
STARTCHAR 00FC
ENCODING 252
SWIDTH 609 0
DWIDTH 11 0
BBX 8 14 1 0
BITMAP
36
36
00
00
E3
E3
E3
E3
E3
E3
E3
E7
7F
3B
ENDCHAR
STARTCHAR 00FD
ENCODING 253
SWIDTH 609 0
DWIDTH 11 0
BBX 9 18 1 -4
BITMAP
0700
0E00
1C00
0000
C180
E380
6380
7300
7700
3600
3E00
3E00
1C00
1C00
1C00
1800
F800
F000
ENDCHAR
STARTCHAR 00FE
ENCODING 254
SWIDTH 609 0
DWIDTH 11 0
BBX 9 18 1 -4
BITMAP
E000
E000
E000
E000
EE00
FF00
F380
E380
E380
E380
E380
F380
FF00
EE00
E000
E000
E000
E000
ENDCHAR
STARTCHAR 00FF
ENCODING 255
SWIDTH 609 0
DWIDTH 11 0
BBX 9 18 1 -4
BITMAP
3600
3600
0000
0000
C180
E380
6380
7300
7700
3600
3E00
3E00
1C00
1C00
1C00
1800
F800
F000
ENDCHAR
STARTCHAR 0100
ENCODING 256
SWIDTH 609 0
DWIDTH 11 0
BBX 11 16 0 0
BITMAP
1F00
1F00
0000
0E00
1E00
1F00
1B00
1B00
3B80
3B80
3180
3F80
7FC0
71C0
60C0
E0E0
ENDCHAR
STARTCHAR 0101
ENCODING 257
SWIDTH 609 0
DWIDTH 11 0
BBX 9 14 1 0
BITMAP
3E00
3E00
0000
0000
7E00
7F00
4380
3F80
FF80
E380
E380
E780
FF80
7B80
ENDCHAR
STARTCHAR 0102
ENCODING 258
SWIDTH 609 0
DWIDTH 11 0
BBX 11 17 0 0
BITMAP
3100
1100
0E00
0000
0E00
1E00
1F00
1B00
1B00
3B80
3B80
3180
3F80
7FC0
71C0
60C0
E0E0
ENDCHAR
STARTCHAR 0103
ENCODING 259
SWIDTH 609 0
DWIDTH 11 0
BBX 9 14 1 0
BITMAP
6200
3E00
0000
0000
7E00
7F00
4380
3F80
FF80
E380
E380
E380
FF80
7B80
ENDCHAR
STARTCHAR 0104
ENCODING 260
SWIDTH 609 0
DWIDTH 11 0
BBX 11 17 0 -4
BITMAP
0E00
1E00
1F00
1B00
1B00
3B80
3B80
3180
3F80
7FC0
71C0
60C0
E0E0
0080
0180
0180
00E0
ENDCHAR
STARTCHAR 0105
ENCODING 261
SWIDTH 609 0
DWIDTH 11 0
BBX 9 14 1 -4
BITMAP
7E00
7F00
4380
0380
7F80
FF80
E380
E380
FF80
7980
0380
0200
0280
0380
ENDCHAR
STARTCHAR 0106
ENCODING 262
SWIDTH 609 0
DWIDTH 11 0
BBX 9 17 1 0
BITMAP
0380
0600
0E00
0000
1F00
3F00
7100
7000
E000
E000
E000
E000
E000
7000
7100
3F00
1F00
ENDCHAR
STARTCHAR 0107
ENCODING 263
SWIDTH 609 0
DWIDTH 11 0
BBX 9 15 1 0
BITMAP
0380
0700
0600
0C00
0000
1F00
3F00
7100
6000
6000
E000
6000
7100
3F00
1F00
ENDCHAR
STARTCHAR 0108
ENCODING 264
SWIDTH 609 0
DWIDTH 11 0
BBX 8 17 1 0
BITMAP
1E
1E
33
00
1F
3F
71
70
E0
E0
E0
E0
E0
60
71
3F
1F
ENDCHAR
STARTCHAR 0109
ENCODING 265
SWIDTH 609 0
DWIDTH 11 0
BBX 8 14 1 0
BITMAP
1C
3E
63
00
1F
7F
71
E0
E0
E0
E0
71
7F
1F
ENDCHAR
STARTCHAR 010A
ENCODING 266
SWIDTH 609 0
DWIDTH 11 0
BBX 8 16 1 0
BITMAP
0C
0C
00
1F
3F
71
60
E0
E0
E0
E0
E0
60
71
3F
1F
ENDCHAR
STARTCHAR 010B
ENCODING 267
SWIDTH 609 0
DWIDTH 11 0
BBX 8 14 1 0
BITMAP
0C
0C
00
00
1F
3F
71
60
60
E0
60
71
3F
1F
ENDCHAR
STARTCHAR 010C
ENCODING 268
SWIDTH 609 0
DWIDTH 11 0
BBX 9 17 1 0
BITMAP
3180
1B00
0E00
0000
1F00
3F00
7900
7000
E000
E000
E000
E000
E000
7000
7900
3F00
1F00
ENDCHAR
STARTCHAR 010D
ENCODING 269
SWIDTH 609 0
DWIDTH 11 0
BBX 9 15 1 0
BITMAP
3180
1B00
0E00
0C00
0000
1F00
3F00
7100
6000
6000
E000
6000
7100
3F00
1F00
ENDCHAR
STARTCHAR 010E
ENCODING 270
SWIDTH 609 0
DWIDTH 11 0
BBX 9 17 1 0
BITMAP
6300
3600
1C00
0000
FC00
FF00
E700
E380
E380
E380
E380
E380
E380
E380
E700
FF00
FC00
ENDCHAR
STARTCHAR 010F
ENCODING 271
SWIDTH 609 0
DWIDTH 11 0
BBX 12 14 1 0
BITMAP
03F0
03E0
03E0
0380
3B80
7F80
E780
E380
C380
C380
E380
E780
7F80
3B80
ENDCHAR
STARTCHAR 0110
ENCODING 272
SWIDTH 609 0
DWIDTH 11 0
BBX 10 13 0 0
BITMAP
7E00
7F80
7380
71C0
71C0
FDC0
FDC0
71C0
71C0
71C0
7380
7F80
7E00
ENDCHAR
STARTCHAR 0111
ENCODING 273
SWIDTH 609 0
DWIDTH 11 0
BBX 10 14 1 0
BITMAP
0380
1FC0
1FC0
0380
3B80
7F80
E780
E380
C380
C380
E380
E780
7F80
3B80
ENDCHAR
STARTCHAR 0112
ENCODING 274
SWIDTH 609 0
DWIDTH 11 0
BBX 9 16 1 0
BITMAP
3F00
3F00
0000
FF80
FF80
E000
E000
E000
FF00
FF00
E000
E000
E000
E000
FF80
FF80
ENDCHAR
STARTCHAR 0113
ENCODING 275
SWIDTH 609 0
DWIDTH 11 0
BBX 9 14 1 0
BITMAP
3E00
3E00
0000
0000
3E00
7F00
E380
C380
FF80
FF80
C000
E080
7F80
3F00
ENDCHAR
STARTCHAR 0114
ENCODING 276
SWIDTH 609 0
DWIDTH 11 0
BBX 9 17 1 0
BITMAP
2100
3300
1E00
0000
FF80
FF80
E000
E000
E000
FF00
FF00
E000
E000
E000
E000
FF80
FF80
ENDCHAR
STARTCHAR 0115
ENCODING 277
SWIDTH 609 0
DWIDTH 11 0
BBX 9 14 1 0
BITMAP
6200
3E00
0000
0000
3E00
7F00
E380
C380
FF80
FF80
C000
E180
7F80
3F00
ENDCHAR
STARTCHAR 0116
ENCODING 278
SWIDTH 609 0
DWIDTH 11 0
BBX 9 17 1 0
BITMAP
1C00
1C00
0000
0000
FF80
FF80
E000
E000
E000
FF00
FF00
E000
E000
E000
E000
FF80
FF80
ENDCHAR
STARTCHAR 0117
ENCODING 279
SWIDTH 609 0
DWIDTH 11 0
BBX 9 14 1 0
BITMAP
1C00
1C00
0000
0000
3E00
7F00
E380
C380
FF80
FF80
C000
E080
7F80
3F00
ENDCHAR
STARTCHAR 0118
ENCODING 280
SWIDTH 609 0
DWIDTH 11 0
BBX 9 17 1 -4
BITMAP
FF80
FF80
E000
E000
E000
E000
FF00
FF00
E000
E000
E000
FF80
FF80
0200
0400
0600
0780
ENDCHAR
STARTCHAR 0119
ENCODING 281
SWIDTH 609 0
DWIDTH 11 0
BBX 9 14 1 -4
BITMAP
3E00
7F00
E380
C380
FF80
FF80
C000
E080
7F80
3F00
0600
0400
0680
0780
ENDCHAR
STARTCHAR 011A
ENCODING 282
SWIDTH 609 0
DWIDTH 11 0
BBX 9 17 1 0
BITMAP
3300
1E00
1E00
0000
FF80
FF80
E000
E000
E000
FF00
FF00
E000
E000
E000
E000
FF80
FF80
ENDCHAR
STARTCHAR 011B
ENCODING 283
SWIDTH 609 0
DWIDTH 11 0
BBX 9 15 1 0
BITMAP
6300
3600
1C00
1C00
0000
3E00
7F00
E380
C380
FF80
FF80
C000
E180
7F80
3F00
ENDCHAR
STARTCHAR 011C
ENCODING 284
SWIDTH 609 0
DWIDTH 11 0
BBX 9 17 1 0
BITMAP
1E00
1E00
3300
0000
1F00
3F80
7180
E000
E000
E000
E780
E780
E180
E180
7180
3F80
1F00
ENDCHAR
STARTCHAR 011D
ENCODING 285
SWIDTH 609 0
DWIDTH 11 0
BBX 9 19 1 -4
BITMAP
0C00
1C00
3600
6300
0000
3B80
7F80
E780
E380
C380
C380
E380
E780
7F80
3B80
0380
4700
7F00
7E00
ENDCHAR
STARTCHAR 011E
ENCODING 286
SWIDTH 609 0
DWIDTH 11 0
BBX 9 17 1 0
BITMAP
2100
3300
1E00
0000
1F00
3F80
7980
E080
E000
E000
E780
E780
E180
E180
7180
3F80
1F00
ENDCHAR
STARTCHAR 011F
ENCODING 287
SWIDTH 609 0
DWIDTH 11 0
BBX 9 18 1 -4
BITMAP
6200
3E00
0000
0000
3B80
7F80
E780
E380
C380
C380
E380
E780
7F80
3B80
0380
4700
7F00
7E00
ENDCHAR
STARTCHAR 0120
ENCODING 288
SWIDTH 609 0
DWIDTH 11 0
BBX 9 17 1 0
BITMAP
0C00
0C00
0000
0000
1F00
3F80
7180
E000
E000
E000
E780
E780
E180
E180
7180
3F80
1F00
ENDCHAR
STARTCHAR 0121
ENCODING 289
SWIDTH 609 0
DWIDTH 11 0
BBX 9 18 1 -4
BITMAP
1C00
1C00
0000
0000
3B80
7F80
E780
E380
C380
C380
E380
E780
7F80
3B80
0380
4700
7F00
7E00
ENDCHAR
STARTCHAR 0122
ENCODING 290
SWIDTH 609 0
DWIDTH 11 0
BBX 9 17 1 -4
BITMAP
1F00
3F80
7180
E000
E000
E000
E780
E780
E180
E180
7180
3F80
1F00
0000
0000
0E00
0C00
ENDCHAR
STARTCHAR 0123
ENCODING 291
SWIDTH 609 0
DWIDTH 11 0
BBX 9 18 1 -4
BITMAP
0C00
1C00
0000
0000
3B80
7F80
E780
E380
C380
C380
E380
E780
7F80
3B80
0380
4700
7F00
7E00
ENDCHAR
STARTCHAR 0124
ENCODING 292
SWIDTH 609 0
DWIDTH 11 0
BBX 9 17 1 0
BITMAP
1C00
3600
6300
0000
E380
E380
E380
E380
E380
FF80
FF80
E380
E380
E380
E380
E380
E380
ENDCHAR
STARTCHAR 0125
ENCODING 293
SWIDTH 609 0
DWIDTH 11 0
BBX 8 17 2 0
BITMAP
1C
76
01
C0
C0
C0
C0
DC
FE
E6
C6
C6
C6
C6
C6
C6
C6
ENDCHAR
STARTCHAR 0126
ENCODING 294
SWIDTH 609 0
DWIDTH 11 0
BBX 11 13 0 0
BITMAP
71C0
71C0
FFE0
71C0
71C0
7FC0
7FC0
71C0
71C0
71C0
71C0
71C0
71C0
ENDCHAR
STARTCHAR 0127
ENCODING 295
SWIDTH 609 0
DWIDTH 11 0
BBX 9 14 0 0
BITMAP
3000
3000
FE00
3000
3700
3F80
3980
3180
3180
3180
3180
3180
3180
3180
ENDCHAR
STARTCHAR 0128
ENCODING 296
SWIDTH 609 0
DWIDTH 11 0
BBX 7 17 2 0
BITMAP
66
54
CC
00
FE
FE
38
38
38
38
38
38
38
38
38
FE
FE
ENDCHAR
STARTCHAR 0129
ENCODING 297
SWIDTH 609 0
DWIDTH 11 0
BBX 8 14 2 0
BITMAP
64
A4
9C
00
F0
F0
30
30
30
30
30
38
3F
1F
ENDCHAR
STARTCHAR 012A
ENCODING 298
SWIDTH 609 0
DWIDTH 11 0
BBX 7 16 2 0
BITMAP
7C
7C
00
FE
FE
38
38
38
38
38
38
38
38
38
FE
FE
ENDCHAR
STARTCHAR 012B
ENCODING 299
SWIDTH 609 0
DWIDTH 11 0
BBX 8 14 2 0
BITMAP
FC
FC
00
00
F0
F0
30
30
30
30
30
38
3F
1F
ENDCHAR
STARTCHAR 012C
ENCODING 300
SWIDTH 609 0
DWIDTH 11 0
BBX 7 17 2 0
BITMAP
C4
44
38
00
FE
FE
38
38
38
38
38
38
38
38
38
FE
FE
ENDCHAR
STARTCHAR 012D
ENCODING 301
SWIDTH 609 0
DWIDTH 11 0
BBX 8 14 2 0
BITMAP
CC
78
00
00
F0
F0
30
30
30
30
30
38
3F
1F
ENDCHAR
STARTCHAR 012E
ENCODING 302
SWIDTH 609 0
DWIDTH 11 0
BBX 7 17 2 -4
BITMAP
FE
FE
38
38
38
38
38
38
38
38
38
FE
FE
10
10
10
1C
ENDCHAR
STARTCHAR 012F
ENCODING 303
SWIDTH 609 0
DWIDTH 11 0
BBX 8 18 2 -4
BITMAP
30
30
30
00
F0
F0
30
30
30
30
30
38
3F
1F
04
0C
0D
07
ENDCHAR
STARTCHAR 0130
ENCODING 304
SWIDTH 609 0
DWIDTH 11 0
BBX 7 17 2 0
BITMAP
38
38
00
00
FE
FE
38
38
38
38
38
38
38
38
38
FE
FE
ENDCHAR
STARTCHAR 0131
ENCODING 305
SWIDTH 609 0
DWIDTH 11 0
BBX 8 10 2 0
BITMAP
F0
F0
30
30
30
30
30
38
3F
1F
ENDCHAR
STARTCHAR 0132
ENCODING 306
SWIDTH 609 0
DWIDTH 11 0
BBX 9 13 1 0
BITMAP
E380
E380
E380
E380
E380
E380
E380
E380
0380
0300
0700
FE00
FC00
ENDCHAR
STARTCHAR 0133
ENCODING 307
SWIDTH 609 0
DWIDTH 11 0
BBX 9 18 1 -4
BITMAP
E380
E380
E380
0000
E380
E380
E380
E380
E380
E380
E380
E380
E380
E380
0380
0380
1F00
1E00
ENDCHAR
STARTCHAR 0134
ENCODING 308
SWIDTH 609 0
DWIDTH 11 0
BBX 10 17 1 0
BITMAP
0700
0D80
18C0
0000
3F00
3F00
0700
0700
0700
0700
0700
0700
0700
8700
C700
FE00
7C00
ENDCHAR
STARTCHAR 0135
ENCODING 309
SWIDTH 609 0
DWIDTH 11 0
BBX 8 19 2 -4
BITMAP
1C
1C
36
63
00
7C
7C
1C
1C
1C
1C
1C
1C
1C
1C
1C
1C
F8
F0
ENDCHAR
STARTCHAR 0136
ENCODING 310
SWIDTH 609 0
DWIDTH 11 0
BBX 10 17 1 -4
BITMAP
E3C0
E300
E700
EE00
FC00
FC00
FC00
FE00
EE00
E700
E300
E380
E1C0
0000
0200
0C00
1800
ENDCHAR
STARTCHAR 0137
ENCODING 311
SWIDTH 609 0
DWIDTH 11 0
BBX 9 18 2 -4
BITMAP
C000
C000
C000
C000
C700
CE00
DC00
F800
F800
FC00
CC00
CE00
C700
C780
0000
0000
1C00
3800
ENDCHAR
STARTCHAR 0138
ENCODING 312
SWIDTH 609 0
DWIDTH 11 0
BBX 9 10 2 0
BITMAP
C700
CE00
DC00
F800
F800
FC00
CC00
CE00
C700
C780
ENDCHAR
STARTCHAR 0139
ENCODING 313
SWIDTH 609 0
DWIDTH 11 0
BBX 8 17 2 0
BITMAP
0C
18
30
00
E0
E0
E0
E0
E0
E0
E0
E0
E0
E0
E0
FF
FF
ENDCHAR
STARTCHAR 013A
ENCODING 314
SWIDTH 609 0
DWIDTH 11 0
BBX 9 17 1 0
BITMAP
0600
0C00
1000
F800
F800
3800
3800
3800
3800
3800
3800
3800
3800
3800
1800
1F80
0F80
ENDCHAR
STARTCHAR 013B
ENCODING 315
SWIDTH 609 0
DWIDTH 11 0
BBX 8 17 2 -4
BITMAP
E0
E0
E0
E0
E0
E0
E0
E0
E0
E0
E0
FF
FF
00
00
1C
38
ENDCHAR
STARTCHAR 013C
ENCODING 316
SWIDTH 609 0
DWIDTH 11 0
BBX 9 18 1 -4
BITMAP
F800
F800
3800
3800
3800
3800
3800
3800
3800
3800
3800
1800
1F80
0F80
0000
0400
1800
3000
ENDCHAR
STARTCHAR 013D
ENCODING 317
SWIDTH 609 0
DWIDTH 11 0
BBX 8 13 2 0
BITMAP
E3
E6
E6
E0
E0
E0
E0
E0
E0
E0
E0
FF
FF
ENDCHAR
STARTCHAR 013E
ENCODING 318
SWIDTH 609 0
DWIDTH 11 0
BBX 10 14 1 0
BITMAP
F9C0
F980
3B00
3800
3800
3800
3800
3800
3800
3800
3800
1800
1F80
0F80
ENDCHAR
STARTCHAR 013F
ENCODING 319
SWIDTH 609 0
DWIDTH 11 0
BBX 8 13 2 0
BITMAP
E0
E0
E0
E0
E0
EE
EE
E0
E0
E0
E0
FF
FF
ENDCHAR
STARTCHAR 0140
ENCODING 320
SWIDTH 609 0
DWIDTH 11 0
BBX 9 14 0 0
BITMAP
FC00
FC00
1C00
1C00
1C00
1C00
1D80
1D80
1C00
1C00
1C00
1C00
1F80
0F80
ENDCHAR
STARTCHAR 0141
ENCODING 321
SWIDTH 609 0
DWIDTH 11 0
BBX 10 13 0 0
BITMAP
3800
3800
3800
3A00
3F00
3C00
3800
F800
F800
3800
3800
3FC0
3FC0
ENDCHAR
STARTCHAR 0142
ENCODING 322
SWIDTH 609 0
DWIDTH 11 0
BBX 10 14 0 0
BITMAP
7C00
7C00
0C00
0C80
0FC0
0F00
1C00
3C00
EC00
4C00
0C00
0E00
0FC0
07C0
ENDCHAR
STARTCHAR 0143
ENCODING 323
SWIDTH 609 0
DWIDTH 11 0
BBX 9 17 1 0
BITMAP
0700
0C00
1C00
0000
E180
E180
F180
F180
D980
D980
D980
CD80
CD80
C780
C780
C780
C380
ENDCHAR
STARTCHAR 0144
ENCODING 324
SWIDTH 609 0
DWIDTH 11 0
BBX 7 15 2 0
BITMAP
0E
0C
18
30
00
DC
FE
E6
C6
C6
C6
C6
C6
C6
C6
ENDCHAR
STARTCHAR 0145
ENCODING 325
SWIDTH 609 0
DWIDTH 11 0
BBX 9 17 1 -4
BITMAP
E180
E180
F180
F180
D980
D980
D980
CD80
CD80
C780
C780
C780
C380
0000
0000
1C00
1800
ENDCHAR
STARTCHAR 0146
ENCODING 326
SWIDTH 609 0
DWIDTH 11 0
BBX 7 14 2 -4
BITMAP
DC
FE
E6
C6
C6
C6
C6
C6
C6
C6
00
00
38
30
ENDCHAR
STARTCHAR 0147
ENCODING 327
SWIDTH 609 0
DWIDTH 11 0
BBX 9 17 1 0
BITMAP
7300
3600
1C00
0000
E180
E180
F180
F180
D980
D980
D980
CD80
CD80
C780
C780
C780
C380
ENDCHAR
STARTCHAR 0148
ENCODING 328
SWIDTH 609 0
DWIDTH 11 0
BBX 7 15 2 0
BITMAP
C6
64
3C
18
00
DC
FE
E6
C6
C6
C6
C6
C6
C6
C6
ENDCHAR
STARTCHAR 0149
ENCODING 329
SWIDTH 609 0
DWIDTH 11 0
BBX 11 14 0 0
BITMAP
E000
E000
E000
E000
DBC0
DFE0
1CE0
1CE0
1CE0
1CE0
1CE0
1CE0
1CE0
1CE0
ENDCHAR
STARTCHAR 014A
ENCODING 330
SWIDTH 609 0
DWIDTH 11 0
BBX 9 17 1 -4
BITMAP
CE00
DF00
E380
E380
E380
E380
E380
E380
E380
E380
E380
E380
E380
0380
0380
0F00
0F00
ENDCHAR
STARTCHAR 014B
ENCODING 331
SWIDTH 609 0
DWIDTH 11 0
BBX 7 14 2 -4
BITMAP
DC
FE
E6
C6
C6
C6
C6
C6
C6
C6
06
0E
1E
1C
ENDCHAR
STARTCHAR 014C
ENCODING 332
SWIDTH 609 0
DWIDTH 11 0
BBX 9 16 1 0
BITMAP
3E00
3E00
0000
3E00
7F00
6700
E380
E380
E380
E380
E380
E380
E380
6700
7F00
3E00
ENDCHAR
STARTCHAR 014D
ENCODING 333
SWIDTH 609 0
DWIDTH 11 0
BBX 9 14 1 0
BITMAP
3E00
3E00
0000
0000
3E00
7F00
E380
E380
C380
C380
E380
E380
7F00
3E00
ENDCHAR
STARTCHAR 014E
ENCODING 334
SWIDTH 609 0
DWIDTH 11 0
BBX 9 17 1 0
BITMAP
6200
2200
1C00
0000
3E00
7F00
6700
E380
E380
E380
E380
E380
E380
E380
E700
7F00
3E00
ENDCHAR
STARTCHAR 014F
ENCODING 335
SWIDTH 609 0
DWIDTH 11 0
BBX 9 14 1 0
BITMAP
6200
3E00
0000
0000
3E00
7F00
E380
E380
C380
C380
E380
E380
7F00
3E00
ENDCHAR
STARTCHAR 0150
ENCODING 336
SWIDTH 609 0
DWIDTH 11 0
BBX 9 17 1 0
BITMAP
1F80
3600
4000
0000
3E00
7F00
7700
E380
E380
E380
E380
E380
E380
E380
7700
7F00
3E00
ENDCHAR
STARTCHAR 0151
ENCODING 337
SWIDTH 609 0
DWIDTH 11 0
BBX 9 15 1 0
BITMAP
1B80
3200
2600
0000
0000
3E00
7F00
E380
E380
C380
C380
E380
E380
7F00
3E00
ENDCHAR
STARTCHAR 0152
ENCODING 338
SWIDTH 609 0
DWIDTH 11 0
BBX 10 13 1 0
BITMAP
3FC0
7FC0
EE00
CE00
CE00
CF80
CF80
CE00
CE00
CE00
EE00
7FC0
3FC0
ENDCHAR
STARTCHAR 0153
ENCODING 339
SWIDTH 609 0
DWIDTH 11 0
BBX 11 10 0 0
BITMAP
7BC0
7FC0
EE60
C660
C7E0
C7E0
C600
EE20
7FE0
39C0
ENDCHAR
STARTCHAR 0154
ENCODING 340
SWIDTH 609 0
DWIDTH 11 0
BBX 10 17 1 0
BITMAP
0600
0C00
1800
0000
FE00
FF00
E380
E380
E380
E300
FF00
FE00
E700
E700
E380
E380
E1C0
ENDCHAR
STARTCHAR 0155
ENCODING 341
SWIDTH 609 0
DWIDTH 11 0
BBX 7 15 3 0
BITMAP
06
0C
18
30
00
DE
FE
E2
C0
C0
C0
C0
C0
C0
C0
ENDCHAR
STARTCHAR 0156
ENCODING 342
SWIDTH 609 0
DWIDTH 11 0
BBX 10 17 1 -4
BITMAP
FE00
FF00
E380
E380
E380
E300
FF00
FE00
E700
E700
E380
E380
E1C0
0000
0000
0E00
1800
ENDCHAR
STARTCHAR 0157
ENCODING 343
SWIDTH 609 0
DWIDTH 11 0
BBX 8 14 2 -4
BITMAP
6F
7F
71
60
60
60
60
60
60
60
00
10
60
C0
ENDCHAR
STARTCHAR 0158
ENCODING 344
SWIDTH 609 0
DWIDTH 11 0
BBX 10 17 1 0
BITMAP
6600
3C00
3C00
0000
FE00
FF00
E380
E380
E380
E300
FF00
FE00
E700
E700
E380
E380
E1C0
ENDCHAR
STARTCHAR 0159
ENCODING 345
SWIDTH 609 0
DWIDTH 11 0
BBX 7 15 3 0
BITMAP
C6
6C
38
30
00
DE
FE
E2
C0
C0
C0
C0
C0
C0
C0
ENDCHAR
STARTCHAR 015A
ENCODING 346
SWIDTH 609 0
DWIDTH 11 0
BBX 9 17 1 0
BITMAP
0700
0C00
0C00
1000
3E00
7F00
E100
E000
E000
7C00
3F00
0F00
0380
0380
C380
FF00
7E00
ENDCHAR
STARTCHAR 015B
ENCODING 347
SWIDTH 609 0
DWIDTH 11 0
BBX 7 15 2 0
BITMAP
0E
0C
18
30
00
7C
FE
C2
C0
F8
3E
06
86
FE
FC
ENDCHAR
STARTCHAR 015C
ENCODING 348
SWIDTH 609 0
DWIDTH 11 0
BBX 9 17 1 0
BITMAP
1C00
3600
6600
0100
3E00
7F00
E100
E000
E000
7C00
3F00
0F00
0380
0380
C380
FF00
7E00
ENDCHAR
STARTCHAR 015D
ENCODING 349
SWIDTH 609 0
DWIDTH 11 0
BBX 7 14 2 0
BITMAP
38
6C
C6
00
7C
FE
C2
C0
FC
3E
06
86
FE
FC
ENDCHAR
STARTCHAR 015E
ENCODING 350
SWIDTH 609 0
DWIDTH 11 0
BBX 9 17 1 -4
BITMAP
3E00
7F00
E100
E000
E000
7C00
3F00
0F00
0380
0380
C380
FF00
7E00
0C00
0400
2400
3C00
ENDCHAR
STARTCHAR 015F
ENCODING 351
SWIDTH 609 0
DWIDTH 11 0
BBX 7 14 2 -4
BITMAP
7C
FE
C2
C0
F8
3E
06
86
FE
FC
18
08
48
78
ENDCHAR
STARTCHAR 0160
ENCODING 352
SWIDTH 609 0
DWIDTH 11 0
BBX 9 17 1 0
BITMAP
6300
3600
1C00
0000
3E00
7F00
E100
E000
E000
7C00
3F00
0F00
0380
0380
C380
FF00
7E00
ENDCHAR
STARTCHAR 0161
ENCODING 353
SWIDTH 609 0
DWIDTH 11 0
BBX 7 15 2 0
BITMAP
C6
6C
38
38
00
7E
FE
C2
E0
FC
7E
06
86
FE
FC
ENDCHAR
STARTCHAR 0162
ENCODING 354
SWIDTH 609 0
DWIDTH 11 0
BBX 9 17 1 -4
BITMAP
FF80
FF80
1C00
1C00
1C00
1C00
1C00
1C00
1C00
1C00
1C00
1C00
1C00
0C00
0400
2400
3C00
ENDCHAR
STARTCHAR 0163
ENCODING 355
SWIDTH 609 0
DWIDTH 11 0
BBX 8 18 1 -4
BITMAP
08
38
38
38
FF
FF
38
38
38
38
38
18
1F
1F
02
03
13
0E
ENDCHAR
STARTCHAR 0164
ENCODING 356
SWIDTH 609 0
DWIDTH 11 0
BBX 9 17 1 0
BITMAP
6300
3600
1C00
0000
FF80
FF80
1C00
1C00
1C00
1C00
1C00
1C00
1C00
1C00
1C00
1C00
1C00
ENDCHAR
STARTCHAR 0165
ENCODING 357
SWIDTH 609 0
DWIDTH 11 0
BBX 10 15 1 0
BITMAP
01C0
0980
3B00
3800
3800
FF00
FF00
3800
3800
3800
3800
3800
1800
1F00
0F00
ENDCHAR
STARTCHAR 0166
ENCODING 358
SWIDTH 609 0
DWIDTH 11 0
BBX 9 13 1 0
BITMAP
FF80
FF80
1C00
1C00
1C00
1C00
7F00
7F00
1C00
1C00
1C00
1C00
1C00
ENDCHAR
STARTCHAR 0167
ENCODING 359
SWIDTH 609 0
DWIDTH 11 0
BBX 8 14 1 0
BITMAP
08
38
38
38
FF
FF
38
7E
7E
38
38
18
1F
0F
ENDCHAR
STARTCHAR 0168
ENCODING 360
SWIDTH 609 0
DWIDTH 11 0
BBX 9 17 1 0
BITMAP
3300
2A00
6600
0000
E380
E380
E380
E380
E380
E380
E380
E380
E380
E380
F780
7F00
3E00
ENDCHAR
STARTCHAR 0169
ENCODING 361
SWIDTH 609 0
DWIDTH 11 0
BBX 8 14 1 0
BITMAP
3B
6E
00
00
E3
E3
E3
E3
E3
E3
E3
E7
7F
3B
ENDCHAR
STARTCHAR 016A
ENCODING 362
SWIDTH 609 0
DWIDTH 11 0
BBX 9 16 1 0
BITMAP
3E00
3E00
0000
E380
E380
E380
E380
E380
E380
E380
E380
E380
E380
F780
7F00
3E00
ENDCHAR
STARTCHAR 016B
ENCODING 363
SWIDTH 609 0
DWIDTH 11 0
BBX 8 13 1 0
BITMAP
3E
3E
00
E3
E3
E3
E3
E3
E3
E3
E7
7F
3B
ENDCHAR
STARTCHAR 016C
ENCODING 364
SWIDTH 609 0
DWIDTH 11 0
BBX 9 17 1 0
BITMAP
6200
2200
1C00
0000
E380
E380
E380
E380
E380
E380
E380
E380
E380
E380
E380
7F00
3E00
ENDCHAR
STARTCHAR 016D
ENCODING 365
SWIDTH 609 0
DWIDTH 11 0
BBX 8 14 1 0
BITMAP
62
3E
00
00
E3
E3
E3
E3
E3
E3
E3
E7
7F
3B
ENDCHAR
STARTCHAR 016E
ENCODING 366
SWIDTH 609 0
DWIDTH 11 0
BBX 9 17 1 0
BITMAP
1C00
3600
2200
3600
FF80
E380
E380
E380
E380
E380
E380
E380
E380
E380
F780
7F00
3E00
ENDCHAR
STARTCHAR 016F
ENCODING 367
SWIDTH 609 0
DWIDTH 11 0
BBX 8 16 1 0
BITMAP
1C
36
22
36
1C
00
E3
E3
E3
E3
E3
E3
E3
E7
7F
3B
ENDCHAR
STARTCHAR 0170
ENCODING 368
SWIDTH 609 0
DWIDTH 11 0
BBX 9 17 1 0
BITMAP
1F80
3600
4000
0000
E380
E380
E380
E380
E380
E380
E380
E380
E380
E380
F780
7F00
3E00
ENDCHAR
STARTCHAR 0171
ENCODING 369
SWIDTH 609 0
DWIDTH 11 0
BBX 9 14 1 0
BITMAP
1B80
3200
2600
0000
E300
E300
E300
E300
E300
E300
E300
E700
7F00
3B00
ENDCHAR
STARTCHAR 0172
ENCODING 370
SWIDTH 609 0
DWIDTH 11 0
BBX 9 17 1 -4
BITMAP
E380
E380
E380
E380
E380
E380
E380
E380
E380
E380
E780
7F00
3E00
1800
1000
1000
1E00
ENDCHAR
STARTCHAR 0173
ENCODING 371
SWIDTH 609 0
DWIDTH 11 0
BBX 10 14 1 -4
BITMAP
E300
E300
E300
E300
E300
E300
E300
E700
7F00
3B00
0100
0300
0340
01C0
ENDCHAR
STARTCHAR 0174
ENCODING 372
SWIDTH 609 0
DWIDTH 11 0
BBX 11 17 0 0
BITMAP
0E00
1B00
3180
0000
C060
C0E0
E0E0
EEC0
6EC0
6EC0
6AC0
6AC0
7BC0
7BC0
7BC0
71C0
3180
ENDCHAR
STARTCHAR 0175
ENCODING 373
SWIDTH 609 0
DWIDTH 11 0
BBX 11 15 0 0
BITMAP
0E00
0E00
1B00
3180
0000
C060
C0E0
E0C0
6EC0
6EC0
6AC0
6AC0
7AC0
3B80
3180
ENDCHAR
STARTCHAR 0176
ENCODING 374
SWIDTH 609 0
DWIDTH 11 0
BBX 11 17 0 0
BITMAP
0E00
1B00
3180
0000
E0E0
71C0
71C0
3B80
3B00
1F00
1E00
0E00
0E00
0E00
0E00
0E00
0E00
ENDCHAR
STARTCHAR 0177
ENCODING 375
SWIDTH 609 0
DWIDTH 11 0
BBX 9 18 1 -4
BITMAP
1C00
3600
6300
0000
C180
E380
6380
7300
7700
3600
3E00
3E00
1C00
1C00
1C00
1800
F800
F000
ENDCHAR
STARTCHAR 0178
ENCODING 376
SWIDTH 609 0
DWIDTH 11 0
BBX 11 17 0 0
BITMAP
1B00
1B00
0000
0000
E0E0
71C0
71C0
3B80
3B00
1F00
1E00
0E00
0E00
0E00
0E00
0E00
0E00
ENDCHAR
STARTCHAR 0179
ENCODING 377
SWIDTH 609 0
DWIDTH 11 0
BBX 9 17 1 0
BITMAP
0700
0C00
1C00
0000
FF80
FF80
0380
0700
0E00
0E00
1C00
3800
3800
7000
E000
FF80
FF80
ENDCHAR
STARTCHAR 017A
ENCODING 378
SWIDTH 609 0
DWIDTH 11 0
BBX 9 15 1 0
BITMAP
0300
0600
0C00
1800
0000
7F80
7F80
0700
0E00
1C00
1C00
3800
7000
FF80
FF80
ENDCHAR
STARTCHAR 017B
ENCODING 379
SWIDTH 609 0
DWIDTH 11 0
BBX 9 17 1 0
BITMAP
0C00
0C00
0000
0000
FF80
FF80
0380
0700
0E00
0E00
1C00
3800
3800
7000
E000
FF80
FF80
ENDCHAR
STARTCHAR 017C
ENCODING 380
SWIDTH 609 0
DWIDTH 11 0
BBX 9 14 1 0
BITMAP
1C00
1C00
0000
0000
7F80
7F80
0700
0E00
1C00
1C00
3800
7000
FF80
FF80
ENDCHAR
STARTCHAR 017D
ENCODING 381
SWIDTH 609 0
DWIDTH 11 0
BBX 9 17 1 0
BITMAP
6300
3600
1C00
0000
FF80
FF80
0380
0700
0E00
0E00
1C00
3800
3800
7000
E000
FF80
FF80
ENDCHAR
STARTCHAR 017E
ENCODING 382
SWIDTH 609 0
DWIDTH 11 0
BBX 9 15 1 0
BITMAP
6300
3600
3400
1C00
0000
7F80
7F80
0700
0E00
1C00
1C00
3800
7000
FF80
FF80
ENDCHAR
STARTCHAR 017F
ENCODING 383
SWIDTH 609 0
DWIDTH 11 0
BBX 9 16 1 -2
BITMAP
0F80
1F80
1C00
1C00
FC00
FC00
1C00
1C00
1C00
1C00
1C00
1C00
1C00
1C00
1C00
1C00
ENDCHAR
STARTCHAR 0192
ENCODING 402
SWIDTH 609 0
DWIDTH 11 0
BBX 10 18 0 -4
BITMAP
03C0
03C0
0740
0600
0600
0600
0E00
3F80
3F80
0C00
0C00
0C00
0C00
0C00
1C00
1800
F800
F000
ENDCHAR
STARTCHAR 01A0
ENCODING 416
SWIDTH 609 0
DWIDTH 11 0
BBX 11 14 0 0
BITMAP
0060
3E20
7F60
73C0
E380
E380
E180
E180
E180
E380
E380
7380
7F00
3E00
ENDCHAR
STARTCHAR 01A1
ENCODING 417
SWIDTH 609 0
DWIDTH 11 0
BBX 11 10 0 0
BITMAP
3E60
7F60
63E0
E3C0
E180
E180
E380
6380
7F00
3E00
ENDCHAR
STARTCHAR 01A4
ENCODING 420
SWIDTH 609 0
DWIDTH 11 0
BBX 11 13 0 0
BITMAP
7F80
FFC0
F8E0
F8E0
38E0
38E0
3FC0
3F80
3800
3800
3800
3800
3800
ENDCHAR
STARTCHAR 01AF
ENCODING 431
SWIDTH 609 0
DWIDTH 11 0
BBX 11 14 0 0
BITMAP
0060
E3A0
E3E0
E3C0
E380
E380
E380
E380
E380
E380
E380
F780
7F00
3E00
ENDCHAR
STARTCHAR 01B0
ENCODING 432
SWIDTH 609 0
DWIDTH 11 0
BBX 11 10 0 0
BITMAP
E760
E760
E7E0
E700
E700
E700
E700
E700
FF00
7B00
ENDCHAR
STARTCHAR 01E6
ENCODING 486
SWIDTH 609 0
DWIDTH 11 0
BBX 9 17 1 0
BITMAP
3180
1B00
0E00
0000
1F00
3F80
7180
E000
E000
E000
E780
E780
E180
E180
7180
3F80
1F00
ENDCHAR
STARTCHAR 01E7
ENCODING 487
SWIDTH 609 0
DWIDTH 11 0
BBX 9 19 1 -4
BITMAP
6300
2600
3C00
1C00
0000
3B80
7F80
E780
E380
C380
C380
E380
E780
7F80
3B80
0380
4700
7F00
7E00
ENDCHAR
STARTCHAR 01FE
ENCODING 510
SWIDTH 609 0
DWIDTH 11 0
BBX 11 17 0 0
BITMAP
0300
0600
0C00
0000
1F60
3FC0
3380
73C0
73C0
77C0
7DC0
7DC0
79C0
71C0
7380
7F80
DF00
ENDCHAR
STARTCHAR 01FF
ENCODING 511
SWIDTH 609 0
DWIDTH 11 0
BBX 11 16 0 -1
BITMAP
0380
0300
0600
0C00
0040
1FE0
3FC0
71C0
73C0
67C0
6DC0
79C0
71C0
7F80
FF00
4000
ENDCHAR
STARTCHAR 0218
ENCODING 536
SWIDTH 609 0
DWIDTH 11 0
BBX 9 17 1 -4
BITMAP
3E00
7F00
E100
E000
E000
7C00
3F00
0F00
0380
0380
C380
FF00
7E00
0000
0400
1800
3000
ENDCHAR
STARTCHAR 0219
ENCODING 537
SWIDTH 609 0
DWIDTH 11 0
BBX 7 14 2 -4
BITMAP
7C
FE
C2
C0
F8
3E
06
86
FE
FC
00
08
30
60
ENDCHAR
STARTCHAR 021A
ENCODING 538
SWIDTH 609 0
DWIDTH 11 0
BBX 9 17 1 -4
BITMAP
FF80
FF80
1C00
1C00
1C00
1C00
1C00
1C00
1C00
1C00
1C00
1C00
1C00
0C00
0400
2400
3C00
ENDCHAR
STARTCHAR 021B
ENCODING 539
SWIDTH 609 0
DWIDTH 11 0
BBX 8 18 1 -4
BITMAP
08
38
38
38
FF
FF
38
38
38
38
38
18
1F
1F
02
03
13
0E
ENDCHAR
STARTCHAR 02B9
ENCODING 697
SWIDTH 609 0
DWIDTH 11 0
BBX 3 4 4 10
BITMAP
60
60
40
C0
ENDCHAR
STARTCHAR 02BB
ENCODING 699
SWIDTH 609 0
DWIDTH 11 0
BBX 3 6 4 8
BITMAP
60
60
E0
E0
E0
E0
ENDCHAR
STARTCHAR 02BC
ENCODING 700
SWIDTH 609 0
DWIDTH 11 0
BBX 3 6 4 8
BITMAP
60
60
60
E0
C0
C0
ENDCHAR
STARTCHAR 02BD
ENCODING 701
SWIDTH 609 0
DWIDTH 11 0
BBX 3 4 4 11
BITMAP
E0
E0
C0
60
ENDCHAR
STARTCHAR 02BE
ENCODING 702
SWIDTH 609 0
DWIDTH 11 0
BBX 3 5 4 9
BITMAP
C0
40
60
60
C0
ENDCHAR
STARTCHAR 02BF
ENCODING 703
SWIDTH 609 0
DWIDTH 11 0
BBX 3 5 4 9
BITMAP
60
C0
C0
C0
60
ENDCHAR
STARTCHAR 02C0
ENCODING 704
SWIDTH 609 0
DWIDTH 11 0
BBX 5 8 3 6
BITMAP
F0
98
18
18
70
60
60
60
ENDCHAR
STARTCHAR 02C1
ENCODING 705
SWIDTH 609 0
DWIDTH 11 0
BBX 5 8 3 6
BITMAP
78
C8
C0
C0
F0
30
30
30
ENDCHAR
STARTCHAR 02C6
ENCODING 710
SWIDTH 609 0
DWIDTH 11 0
BBX 7 4 2 11
BITMAP
38
38
6C
C6
ENDCHAR
STARTCHAR 02C7
ENCODING 711
SWIDTH 609 0
DWIDTH 11 0
BBX 7 4 2 11
BITMAP
C6
6C
68
38
ENDCHAR
STARTCHAR 02C8
ENCODING 712
SWIDTH 609 0
DWIDTH 11 0
BBX 1 5 5 9
BITMAP
80
80
80
80
80
ENDCHAR
STARTCHAR 02C9
ENCODING 713
SWIDTH 609 0
DWIDTH 11 0
BBX 5 2 3 12
BITMAP
F8
F8
ENDCHAR
STARTCHAR 02CC
ENCODING 716
SWIDTH 609 0
DWIDTH 11 0
BBX 1 5 5 -1
BITMAP
80
80
80
80
80
ENDCHAR
STARTCHAR 02CD
ENCODING 717
SWIDTH 609 0
DWIDTH 11 0
BBX 5 2 3 -4
BITMAP
F8
F8
ENDCHAR
STARTCHAR 02CE
ENCODING 718
SWIDTH 609 0
DWIDTH 11 0
BBX 5 4 3 -5
BITMAP
C0
60
70
38
ENDCHAR
STARTCHAR 02CF
ENCODING 719
SWIDTH 609 0
DWIDTH 11 0
BBX 5 4 3 -5
BITMAP
18
30
60
C0
ENDCHAR
STARTCHAR 02D0
ENCODING 720
SWIDTH 609 0
DWIDTH 11 0
BBX 3 10 4 0
BITMAP
E0
C0
40
00
00
00
00
40
C0
E0
ENDCHAR
STARTCHAR 02D1
ENCODING 721
SWIDTH 609 0
DWIDTH 11 0
BBX 3 3 4 7
BITMAP
E0
C0
40
ENDCHAR
STARTCHAR 02D8
ENCODING 728
SWIDTH 609 0
DWIDTH 11 0
BBX 6 2 2 12
BITMAP
C4
7C
ENDCHAR
STARTCHAR 02D9
ENCODING 729
SWIDTH 609 0
DWIDTH 11 0
BBX 3 2 4 12
BITMAP
E0
E0
ENDCHAR
STARTCHAR 02DA
ENCODING 730
SWIDTH 609 0
DWIDTH 11 0
BBX 5 5 3 11
BITMAP
70
D8
88
D8
70
ENDCHAR
STARTCHAR 02DB
ENCODING 731
SWIDTH 609 0
DWIDTH 11 0
BBX 4 3 4 -3
BITMAP
C0
80
F0
ENDCHAR
STARTCHAR 02DC
ENCODING 732
SWIDTH 609 0
DWIDTH 11 0
BBX 7 2 2 12
BITMAP
76
DC
ENDCHAR
STARTCHAR 02DD
ENCODING 733
SWIDTH 609 0
DWIDTH 11 0
BBX 7 3 3 11
BITMAP
6E
C8
98
ENDCHAR
STARTCHAR 0300
ENCODING 768
SWIDTH 0 0
DWIDTH 0 0
BBX 5 4 -9 11
BITMAP
C0
60
30
18
ENDCHAR
STARTCHAR 0301
ENCODING 769
SWIDTH 0 0
DWIDTH 0 0
BBX 5 4 -7 11
BITMAP
18
30
60
C0
ENDCHAR
STARTCHAR 0302
ENCODING 770
SWIDTH 0 0
DWIDTH 0 0
BBX 7 4 -9 11
BITMAP
38
38
6C
C6
ENDCHAR
STARTCHAR 0303
ENCODING 771
SWIDTH 0 0
DWIDTH 0 0
BBX 7 2 -9 12
BITMAP
76
DC
ENDCHAR
STARTCHAR 0304
ENCODING 772
SWIDTH 0 0
DWIDTH 0 0
BBX 5 2 -8 12
BITMAP
F8
F8
ENDCHAR
STARTCHAR 0305
ENCODING 773
SWIDTH 0 0
DWIDTH 0 0
BBX 11 2 -11 12
BITMAP
FFE0
FFE0
ENDCHAR
STARTCHAR 0306
ENCODING 774
SWIDTH 0 0
DWIDTH 0 0
BBX 6 2 -8 12
BITMAP
8C
F8
ENDCHAR
STARTCHAR 0307
ENCODING 775
SWIDTH 0 0
DWIDTH 0 0
BBX 3 2 -7 12
BITMAP
E0
E0
ENDCHAR
STARTCHAR 0308
ENCODING 776
SWIDTH 0 0
DWIDTH 0 0
BBX 5 2 -8 12
BITMAP
D8
D8
ENDCHAR
STARTCHAR 0309
ENCODING 777
SWIDTH 0 0
DWIDTH 0 0
BBX 4 4 -7 11
BITMAP
E0
30
20
60
ENDCHAR
STARTCHAR 030A
ENCODING 778
SWIDTH 0 0
DWIDTH 0 0
BBX 5 5 -8 11
BITMAP
70
D8
88
D8
70
ENDCHAR
STARTCHAR 030B
ENCODING 779
SWIDTH 0 0
DWIDTH 0 0
BBX 7 3 -8 11
BITMAP
6E
48
D8
ENDCHAR
STARTCHAR 030C
ENCODING 780
SWIDTH 0 0
DWIDTH 0 0
BBX 7 4 -9 11
BITMAP
C6
6C
2C
38
ENDCHAR
STARTCHAR 030D
ENCODING 781
SWIDTH 0 0
DWIDTH 0 0
BBX 1 4 -6 11
BITMAP
80
80
80
80
ENDCHAR
STARTCHAR 030E
ENCODING 782
SWIDTH 0 0
DWIDTH 0 0
BBX 7 4 -9 11
BITMAP
C6
C6
C6
C6
ENDCHAR
STARTCHAR 030F
ENCODING 783
SWIDTH 0 0
DWIDTH 0 0
BBX 7 3 -10 11
BITMAP
EC
24
32
ENDCHAR
STARTCHAR 0310
ENCODING 784
SWIDTH 0 0
DWIDTH 0 0
BBX 6 4 -8 12
BITMAP
70
74
88
F8
ENDCHAR
STARTCHAR 0311
ENCODING 785
SWIDTH 0 0
DWIDTH 0 0
BBX 6 2 -8 12
BITMAP
78
8C
ENDCHAR
STARTCHAR 0312
ENCODING 786
SWIDTH 0 0
DWIDTH 0 0
BBX 3 2 -7 8
BITMAP
60
E0
ENDCHAR
STARTCHAR 0313
ENCODING 787
SWIDTH 0 0
DWIDTH 0 0
BBX 3 4 -7 11
BITMAP
E0
E0
60
C0
ENDCHAR
STARTCHAR 0314
ENCODING 788
SWIDTH 0 0
DWIDTH 0 0
BBX 3 4 -7 11
BITMAP
E0
E0
C0
60
ENDCHAR
STARTCHAR 0315
ENCODING 789
SWIDTH 0 0
DWIDTH 0 0
BBX 3 3 -7 11
BITMAP
60
60
C0
ENDCHAR
STARTCHAR 0316
ENCODING 790
SWIDTH 0 0
DWIDTH 0 0
BBX 5 4 -8 -5
BITMAP
E0
60
30
18
ENDCHAR
STARTCHAR 0317
ENCODING 791
SWIDTH 0 0
DWIDTH 0 0
BBX 5 4 -8 -5
BITMAP
18
30
60
C0
ENDCHAR
STARTCHAR 0318
ENCODING 792
SWIDTH 0 0
DWIDTH 0 0
BBX 4 5 -8 -7
BITMAP
30
30
F0
F0
30
ENDCHAR
STARTCHAR 0319
ENCODING 793
SWIDTH 0 0
DWIDTH 0 0
BBX 4 5 -7 -7
BITMAP
C0
C0
F0
F0
C0
ENDCHAR
STARTCHAR 031A
ENCODING 794
SWIDTH 0 0
DWIDTH 0 0
BBX 5 5 -8 12
BITMAP
F8
F8
18
18
18
ENDCHAR
STARTCHAR 031B
ENCODING 795
SWIDTH 0 0
DWIDTH 0 0
BBX 3 3 -7 7
BITMAP
20
A0
E0
ENDCHAR
STARTCHAR 031C
ENCODING 796
SWIDTH 0 0
DWIDTH 0 0
BBX 2 4 -6 -4
BITMAP
C0
80
80
C0
ENDCHAR
STARTCHAR 031D
ENCODING 797
SWIDTH 0 0
DWIDTH 0 0
BBX 5 4 -8 -5
BITMAP
20
20
F8
F8
ENDCHAR
STARTCHAR 031E
ENCODING 798
SWIDTH 0 0
DWIDTH 0 0
BBX 5 3 -8 -6
BITMAP
F8
F8
20
ENDCHAR
STARTCHAR 031F
ENCODING 799
SWIDTH 0 0
DWIDTH 0 0
BBX 5 5 -8 -7
BITMAP
30
30
F8
F8
30
ENDCHAR
STARTCHAR 0320
ENCODING 800
SWIDTH 0 0
DWIDTH 0 0
BBX 5 2 -8 -4
BITMAP
F8
F8
ENDCHAR
STARTCHAR 0321
ENCODING 801
SWIDTH 0 0
DWIDTH 0 0
BBX 5 5 -6 -4
BITMAP
38
38
30
F0
E0
ENDCHAR
STARTCHAR 0322
ENCODING 802
SWIDTH 0 0
DWIDTH 0 0
BBX 4 5 -9 -4
BITMAP
C0
C0
C0
F0
70
ENDCHAR
STARTCHAR 0323
ENCODING 803
SWIDTH 0 0
DWIDTH 0 0
BBX 3 2 -7 -4
BITMAP
E0
E0
ENDCHAR
STARTCHAR 0324
ENCODING 804
SWIDTH 0 0
DWIDTH 0 0
BBX 5 2 -8 -4
BITMAP
D8
D8
ENDCHAR
STARTCHAR 0325
ENCODING 805
SWIDTH 0 0
DWIDTH 0 0
BBX 4 4 -7 -4
BITMAP
E0
A0
B0
E0
ENDCHAR
STARTCHAR 0326
ENCODING 806
SWIDTH 0 0
DWIDTH 0 0
BBX 4 2 -8 -4
BITMAP
70
C0
ENDCHAR
STARTCHAR 0327
ENCODING 807
SWIDTH 0 0
DWIDTH 0 0
BBX 4 3 -8 -3
BITMAP
30
10
F0
ENDCHAR
STARTCHAR 0328
ENCODING 808
SWIDTH 0 0
DWIDTH 0 0
BBX 3 3 -7 -3
BITMAP
C0
80
E0
ENDCHAR
STARTCHAR 0329
ENCODING 809
SWIDTH 0 0
DWIDTH 0 0
BBX 1 4 -6 -6
BITMAP
80
80
80
80
ENDCHAR
STARTCHAR 032A
ENCODING 810
SWIDTH 0 0
DWIDTH 0 0
BBX 5 3 -8 -5
BITMAP
F8
F8
88
ENDCHAR
STARTCHAR 032B
ENCODING 811
SWIDTH 0 0
DWIDTH 0 0
BBX 7 2 -9 -4
BITMAP
92
FE
ENDCHAR
STARTCHAR 032C
ENCODING 812
SWIDTH 0 0
DWIDTH 0 0
BBX 7 4 -9 -4
BITMAP
C6
6C
2C
38
ENDCHAR
STARTCHAR 032D
ENCODING 813
SWIDTH 0 0
DWIDTH 0 0
BBX 7 4 -9 -4
BITMAP
38
38
6C
C6
ENDCHAR
STARTCHAR 032E
ENCODING 814
SWIDTH 0 0
DWIDTH 0 0
BBX 6 2 -8 -4
BITMAP
8C
F8
ENDCHAR
STARTCHAR 032F
ENCODING 815
SWIDTH 0 0
DWIDTH 0 0
BBX 6 3 -8 -5
BITMAP
70
88
8C
ENDCHAR
STARTCHAR 0330
ENCODING 816
SWIDTH 0 0
DWIDTH 0 0
BBX 7 2 -9 -4
BITMAP
76
DC
ENDCHAR
STARTCHAR 0331
ENCODING 817
SWIDTH 0 0
DWIDTH 0 0
BBX 5 2 -8 -4
BITMAP
F8
F8
ENDCHAR
STARTCHAR 0332
ENCODING 818
SWIDTH 0 0
DWIDTH 0 0
BBX 11 2 -11 -4
BITMAP
FFE0
FFE0
ENDCHAR
STARTCHAR 0333
ENCODING 819
SWIDTH 0 0
DWIDTH 0 0
BBX 11 4 -11 -4
BITMAP
FFE0
FFE0
FFE0
FFE0
ENDCHAR
STARTCHAR 0334
ENCODING 820
SWIDTH 0 0
DWIDTH 0 0
BBX 9 3 -10 4
BITMAP
F880
FF80
8780
ENDCHAR
STARTCHAR 0335
ENCODING 821
SWIDTH 0 0
DWIDTH 0 0
BBX 7 2 -9 4
BITMAP
FE
FE
ENDCHAR
STARTCHAR 0336
ENCODING 822
SWIDTH 0 0
DWIDTH 0 0
BBX 11 2 -11 4
BITMAP
FFE0
FFE0
ENDCHAR
STARTCHAR 0337
ENCODING 823
SWIDTH 0 0
DWIDTH 0 0
BBX 11 12 -11 -1
BITMAP
0040
00E0
01C0
0180
0300
0600
0C00
1800
3800
3000
E000
4000
ENDCHAR
STARTCHAR 0338
ENCODING 824
SWIDTH 0 0
DWIDTH 0 0
BBX 11 15 -11 -1
BITMAP
0040
0060
00C0
0180
0380
0300
0600
0C00
0C00
1800
3000
3000
6000
C000
4000
ENDCHAR
STARTCHAR 0339
ENCODING 825
SWIDTH 0 0
DWIDTH 0 0
BBX 2 4 -6 -4
BITMAP
80
C0
80
80
ENDCHAR
STARTCHAR 033A
ENCODING 826
SWIDTH 0 0
DWIDTH 0 0
BBX 5 4 -8 -5
BITMAP
88
88
F8
F8
ENDCHAR
STARTCHAR 033B
ENCODING 827
SWIDTH 0 0
DWIDTH 0 0
BBX 5 5 -8 -7
BITMAP
F8
F8
C8
F8
F8
ENDCHAR
STARTCHAR 033C
ENCODING 828
SWIDTH 0 0
DWIDTH 0 0
BBX 7 3 -9 -5
BITMAP
6C
D2
92
ENDCHAR
STARTCHAR 033D
ENCODING 829
SWIDTH 0 0
DWIDTH 0 0
BBX 5 4 -8 11
BITMAP
50
F8
70
D8
ENDCHAR
STARTCHAR 033E
ENCODING 830
SWIDTH 0 0
DWIDTH 0 0
BBX 3 5 -7 11
BITMAP
60
C0
40
60
C0
ENDCHAR
STARTCHAR 033F
ENCODING 831
SWIDTH 0 0
DWIDTH 0 0
BBX 11 2 -11 9
BITMAP
FFE0
FFE0
ENDCHAR
STARTCHAR 0358
ENCODING 856
SWIDTH 0 0
DWIDTH 0 0
BBX 2 2 -2 12
BITMAP
C0
C0
ENDCHAR
STARTCHAR 0361
ENCODING 865
SWIDTH 0 0
DWIDTH 0 0
BBX 15 2 -13 14
BITMAP
3FF8
E00E
ENDCHAR
STARTCHAR 0384
ENCODING 900
SWIDTH 609 0
DWIDTH 11 0
BBX 5 4 4 11
BITMAP
18
30
60
C0
ENDCHAR
STARTCHAR 0385
ENCODING 901
SWIDTH 609 0
DWIDTH 11 0
BBX 7 5 2 12
BITMAP
0E
1C
18
E6
C6
ENDCHAR
STARTCHAR 0386
ENCODING 902
SWIDTH 609 0
DWIDTH 11 0
BBX 12 15 -1 0
BITMAP
1800
3000
6700
EF00
0F80
0D80
0D80
1DC0
1DC0
18C0
1FC0
3FE0
38E0
3060
7070
ENDCHAR
STARTCHAR 0388
ENCODING 904
SWIDTH 609 0
DWIDTH 11 0
BBX 13 15 -3 0
BITMAP
3800
3000
6FF8
CFF8
0E00
0E00
0E00
0FF0
0FF0
0E00
0E00
0E00
0E00
0FF8
0FF8
ENDCHAR
STARTCHAR 0389
ENCODING 905
SWIDTH 609 0
DWIDTH 11 0
BBX 13 15 -3 0
BITMAP
3800
7000
6E38
CE38
0E38
0E38
0E38
0FF8
0FF8
0E38
0E38
0E38
0E38
0E38
0E38
ENDCHAR
STARTCHAR 038A
ENCODING 906
SWIDTH 609 0
DWIDTH 11 0
BBX 12 15 -3 0
BITMAP
1800
3000
67F0
C7F0
01C0
01C0
01C0
01C0
01C0
01C0
01C0
01C0
01C0
07F0
07F0
ENDCHAR
STARTCHAR 038C
ENCODING 908
SWIDTH 609 0
DWIDTH 11 0
BBX 12 15 -2 0
BITMAP
1800
37C0
6FE0
8EE0
1C70
1C70
1C70
1C70
1C70
1C70
1C70
1C70
0EE0
0FE0
07C0
ENDCHAR
STARTCHAR 038E
ENCODING 910
SWIDTH 609 0
DWIDTH 11 0
BBX 16 14 -5 0
BITMAP
3800
370E
679F
81DF
00FA
0070
0070
0070
0070
0070
0070
0070
0070
0070
ENDCHAR
STARTCHAR 038F
ENCODING 911
SWIDTH 609 0
DWIDTH 11 0
BBX 11 15 -1 0
BITMAP
3800
3000
6F00
DFC0
19C0
38E0
38E0
38E0
38E0
38E0
38E0
18C0
1DC0
3DE0
3DE0
ENDCHAR
STARTCHAR 0390
ENCODING 912
SWIDTH 609 0
DWIDTH 11 0
BBX 7 17 2 0
BITMAP
0E
0C
18
E6
C6
00
00
F8
F8
38
38
38
38
38
38
3E
1E
ENDCHAR
STARTCHAR 0391
ENCODING 913
SWIDTH 609 0
DWIDTH 11 0
BBX 11 13 0 0
BITMAP
0E00
1E00
1F00
1B00
1B00
3B80
3B80
3180
3F80
7FC0
71C0
60C0
E0E0
ENDCHAR
STARTCHAR 0392
ENCODING 914
SWIDTH 609 0
DWIDTH 11 0
BBX 9 13 1 0
BITMAP
FE00
FF00
E380
E380
E380
FF00
FF00
E380
E180
E180
E380
FF80
FE00
ENDCHAR
STARTCHAR 0393
ENCODING 915
SWIDTH 609 0
DWIDTH 11 0
BBX 8 13 2 0
BITMAP
FF
FF
C0
C0
C0
C0
C0
C0
C0
C0
C0
C0
C0
ENDCHAR
STARTCHAR 0394
ENCODING 916
SWIDTH 609 0
DWIDTH 11 0
BBX 11 13 0 0
BITMAP
0E00
1E00
1F00
1B00
1B00
3B80
3380
3180
3180
71C0
61C0
7FC0
FFE0
ENDCHAR
STARTCHAR 0395
ENCODING 917
SWIDTH 609 0
DWIDTH 11 0
BBX 9 13 1 0
BITMAP
FF80
FF80
E000
E000
E000
FF00
FF00
E000
E000
E000
E000
FF80
FF80
ENDCHAR
STARTCHAR 0396
ENCODING 918
SWIDTH 609 0
DWIDTH 11 0
BBX 9 13 1 0
BITMAP
FF80
FF80
0380
0700
0E00
0E00
1C00
3800
3800
7000
E000
FF80
FF80
ENDCHAR
STARTCHAR 0397
ENCODING 919
SWIDTH 609 0
DWIDTH 11 0
BBX 9 13 1 0
BITMAP
E380
E380
E380
E380
E380
FF80
FF80
E380
E380
E380
E380
E380
E380
ENDCHAR
STARTCHAR 0398
ENCODING 920
SWIDTH 609 0
DWIDTH 11 0
BBX 11 13 0 0
BITMAP
1F00
3F80
71C0
60C0
E0E0
E0E0
EEE0
EEE0
E0E0
E0C0
71C0
3F80
1F00
ENDCHAR
STARTCHAR 0399
ENCODING 921
SWIDTH 609 0
DWIDTH 11 0
BBX 7 13 2 0
BITMAP
FE
FE
38
38
38
38
38
38
38
38
38
FE
FE
ENDCHAR
STARTCHAR 039A
ENCODING 922
SWIDTH 609 0
DWIDTH 11 0
BBX 10 13 1 0
BITMAP
E3C0
E300
E700
EE00
FC00
FC00
FC00
FE00
EE00
E700
E300
E380
E1C0
ENDCHAR
STARTCHAR 039B
ENCODING 923
SWIDTH 609 0
DWIDTH 11 0
BBX 11 13 0 0
BITMAP
0E00
1E00
1F00
1B00
1B00
3B80
3380
3180
3180
71C0
61C0
60C0
E0E0
ENDCHAR
STARTCHAR 039C
ENCODING 924
SWIDTH 609 0
DWIDTH 11 0
BBX 9 13 1 0
BITMAP
E380
E380
F780
F780
F580
D580
DD80
DD80
C180
C180
C180
C180
C180
ENDCHAR
STARTCHAR 039D
ENCODING 925
SWIDTH 609 0
DWIDTH 11 0
BBX 9 13 1 0
BITMAP
E180
E180
F180
F180
D980
D980
D980
CD80
CD80
C780
C780
C780
C380
ENDCHAR
STARTCHAR 039E
ENCODING 926
SWIDTH 609 0
DWIDTH 11 0
BBX 9 13 1 0
BITMAP
FF80
FF80
0000
0000
0000
3E00
3E00
0000
0000
0000
0000
FF80
FF80
ENDCHAR
STARTCHAR 039F
ENCODING 927
SWIDTH 609 0
DWIDTH 11 0
BBX 9 14 1 0
BITMAP
3E00
7F00
6700
E380
E380
E380
E380
E380
E380
E380
E380
6700
7F00
3E00
ENDCHAR
STARTCHAR 03A0
ENCODING 928
SWIDTH 609 0
DWIDTH 11 0
BBX 9 13 1 0
BITMAP
FF80
FF80
E380
E380
E380
E380
E380
E380
E380
E380
E380
E380
E380
ENDCHAR
STARTCHAR 03A1
ENCODING 929
SWIDTH 609 0
DWIDTH 11 0
BBX 9 13 1 0
BITMAP
FE00
FF00
E380
E380
E380
E380
FF00
FE00
E000
E000
E000
E000
E000
ENDCHAR
STARTCHAR 03A3
ENCODING 931
SWIDTH 609 0
DWIDTH 11 0
BBX 9 13 1 0
BITMAP
FF80
FF80
E000
7000
3800
1C00
1C00
1C00
3800
7000
E000
FF80
FF80
ENDCHAR
STARTCHAR 03A4
ENCODING 932
SWIDTH 609 0
DWIDTH 11 0
BBX 9 13 1 0
BITMAP
FF80
FF80
1C00
1C00
1C00
1C00
1C00
1C00
1C00
1C00
1C00
1C00
1C00
ENDCHAR
STARTCHAR 03A5
ENCODING 933
SWIDTH 609 0
DWIDTH 11 0
BBX 11 13 0 0
BITMAP
E1C0
F3E0
3BE0
1F40
1E00
0E00
0E00
0E00
0E00
0E00
0E00
0E00
0E00
ENDCHAR
STARTCHAR 03A6
ENCODING 934
SWIDTH 609 0
DWIDTH 11 0
BBX 9 13 1 0
BITMAP
3E00
3E00
1C00
7F00
FF80
DD80
DD80
DD80
FF80
7F00
1C00
3E00
3E00
ENDCHAR
STARTCHAR 03A7
ENCODING 935
SWIDTH 609 0
DWIDTH 11 0
BBX 11 13 0 0
BITMAP
E0E0
71C0
3380
3B80
1F00
0E00
0E00
1E00
1F00
3B80
3380
71C0
E0E0
ENDCHAR
STARTCHAR 03A8
ENCODING 936
SWIDTH 609 0
DWIDTH 11 0
BBX 9 13 1 0
BITMAP
DD80
DD80
DD80
DD80
DF80
FF80
FF80
7F00
7F00
1C00
1C00
3E00
3E00
ENDCHAR
STARTCHAR 03A9
ENCODING 937
SWIDTH 609 0
DWIDTH 11 0
BBX 9 13 1 0
BITMAP
3C00
7F00
6700
E380
E380
E380
E380
E380
E380
6300
7600
F780
F780
ENDCHAR
STARTCHAR 03AA
ENCODING 938
SWIDTH 609 0
DWIDTH 11 0
BBX 7 17 2 0
BITMAP
6C
6C
00
00
FE
FE
38
38
38
38
38
38
38
38
38
FE
FE
ENDCHAR
STARTCHAR 03AB
ENCODING 939
SWIDTH 609 0
DWIDTH 11 0
BBX 11 17 0 0
BITMAP
1B00
1B00
0000
0000
E1C0
F3E0
3BE0
1F40
1E00
0E00
0E00
0E00
0E00
0E00
0E00
0E00
0E00
ENDCHAR
STARTCHAR 03AC
ENCODING 940
SWIDTH 609 0
DWIDTH 11 0
BBX 10 15 0 0
BITMAP
0180
0300
0600
0C00
0000
3EC0
7FC0
7380
6380
E380
E300
6380
6780
7FC0
3EC0
ENDCHAR
STARTCHAR 03AD
ENCODING 941
SWIDTH 609 0
DWIDTH 11 0
BBX 8 15 1 0
BITMAP
03
06
0C
18
00
3F
7F
61
60
3C
7C
E0
E1
7F
3F
ENDCHAR
STARTCHAR 03AE
ENCODING 942
SWIDTH 609 0
DWIDTH 11 0
BBX 7 19 2 -4
BITMAP
06
0C
18
30
00
DC
FE
E6
C6
C6
C6
C6
C6
C6
C6
06
06
06
06
ENDCHAR
STARTCHAR 03AF
ENCODING 943
SWIDTH 609 0
DWIDTH 11 0
BBX 7 15 2 0
BITMAP
06
0C
18
30
00
F8
F8
38
38
38
38
38
38
3E
1E
ENDCHAR
STARTCHAR 03B0
ENCODING 944
SWIDTH 609 0
DWIDTH 11 0
BBX 9 17 1 0
BITMAP
0700
0600
0C00
7300
6300
0000
0000
F700
F380
7180
7180
7180
7180
7380
7380
7F00
3E00
ENDCHAR
STARTCHAR 03B1
ENCODING 945
SWIDTH 609 0
DWIDTH 11 0
BBX 10 10 0 0
BITMAP
3EC0
7FC0
7380
6380
E380
E300
6380
6780
7FC0
3EC0
ENDCHAR
STARTCHAR 03B2
ENCODING 946
SWIDTH 609 0
DWIDTH 11 0
BBX 9 18 1 -4
BITMAP
3C00
7E00
E700
E700
E300
E700
E700
EE00
EF00
E380
E380
F380
FF80
FF00
E000
E000
E000
E000
ENDCHAR
STARTCHAR 03B3
ENCODING 947
SWIDTH 609 0
DWIDTH 11 0
BBX 9 14 1 -4
BITMAP
C180
E380
6300
7300
3700
3600
3E00
3E00
1C00
1C00
1C00
1C00
1C00
1C00
ENDCHAR
STARTCHAR 03B4
ENCODING 948
SWIDTH 609 0
DWIDTH 11 0
BBX 9 14 1 0
BITMAP
3F00
7F00
6100
6000
3E00
7F00
E380
E380
C380
C380
E380
E380
7F00
3E00
ENDCHAR
STARTCHAR 03B5
ENCODING 949
SWIDTH 609 0
DWIDTH 11 0
BBX 8 10 1 0
BITMAP
3F
7F
61
60
3C
7C
E0
E1
7F
3F
ENDCHAR
STARTCHAR 03B6
ENCODING 950
SWIDTH 609 0
DWIDTH 11 0
BBX 9 18 1 -4
BITMAP
7F00
7F00
0F00
1C00
3800
3000
7000
6000
E000
E000
6000
7000
3F00
1F00
0180
0100
0300
0200
ENDCHAR
STARTCHAR 03B7
ENCODING 951
SWIDTH 609 0
DWIDTH 11 0
BBX 7 14 2 -4
BITMAP
DC
FE
E6
C6
C6
C6
C6
C6
C6
C6
06
06
06
06
ENDCHAR
STARTCHAR 03B8
ENCODING 952
SWIDTH 609 0
DWIDTH 11 0
BBX 9 14 1 0
BITMAP
1C00
7E00
6700
E380
E380
E380
FF80
FF80
E380
E380
E380
6700
7F00
1C00
ENDCHAR
STARTCHAR 03B9
ENCODING 953
SWIDTH 609 0
DWIDTH 11 0
BBX 7 10 2 0
BITMAP
F8
F8
38
38
38
38
38
38
3E
1E
ENDCHAR
STARTCHAR 03BA
ENCODING 954
SWIDTH 609 0
DWIDTH 11 0
BBX 9 10 2 0
BITMAP
C700
CE00
DC00
F800
F800
FC00
CC00
CE00
C700
C780
ENDCHAR
STARTCHAR 03BB
ENCODING 955
SWIDTH 609 0
DWIDTH 11 0
BBX 9 14 1 0
BITMAP
F000
F800
1800
1C00
1C00
1C00
1E00
3E00
3600
7700
7700
6300
E380
E380
ENDCHAR
STARTCHAR 03BC
ENCODING 956
SWIDTH 609 0
DWIDTH 11 0
BBX 8 14 2 -4
BITMAP
C6
C6
C6
C6
C6
C6
C6
C7
FF
FB
C0
C0
C0
C0
ENDCHAR
STARTCHAR 03BD
ENCODING 957
SWIDTH 609 0
DWIDTH 11 0
BBX 10 10 0 0
BITMAP
E380
71C0
71C0
71C0
31C0
39C0
3B80
3F00
1F00
1E00
ENDCHAR
STARTCHAR 03BE
ENCODING 958
SWIDTH 609 0
DWIDTH 11 0
BBX 8 18 1 -4
BITMAP
7F
7F
38
70
60
70
78
3E
3E
70
E0
E0
78
3F
01
01
03
02
ENDCHAR
STARTCHAR 03BF
ENCODING 959
SWIDTH 609 0
DWIDTH 11 0
BBX 9 10 1 0
BITMAP
3E00
7F00
E380
E380
C380
C380
E380
E380
7F00
3E00
ENDCHAR
STARTCHAR 03C0
ENCODING 960
SWIDTH 609 0
DWIDTH 11 0
BBX 11 10 0 0
BITMAP
FFC0
FFC0
3380
3380
3380
3380
3380
3380
31E0
31E0
ENDCHAR
STARTCHAR 03C1
ENCODING 961
SWIDTH 609 0
DWIDTH 11 0
BBX 9 14 1 -4
BITMAP
3E00
7F00
7380
E380
E380
E380
E380
F380
FF00
EE00
E000
E000
E000
E000
ENDCHAR
STARTCHAR 03C2
ENCODING 962
SWIDTH 609 0
DWIDTH 11 0
BBX 8 14 1 -4
BITMAP
1F
3F
71
60
60
E0
60
70
7E
1F
01
01
03
02
ENDCHAR
STARTCHAR 03C3
ENCODING 963
SWIDTH 609 0
DWIDTH 11 0
BBX 9 10 1 0
BITMAP
3F80
7F80
EF00
C380
C380
C380
C380
E700
7F00
3C00
ENDCHAR
STARTCHAR 03C4
ENCODING 964
SWIDTH 609 0
DWIDTH 11 0
BBX 9 10 1 0
BITMAP
FF80
FF80
1C00
1C00
1C00
1C00
1C00
1C00
1F00
0F00
ENDCHAR
STARTCHAR 03C5
ENCODING 965
SWIDTH 609 0
DWIDTH 11 0
BBX 9 10 1 0
BITMAP
F700
F380
7180
7180
7180
7180
7380
7380
7F00
3E00
ENDCHAR
STARTCHAR 03C6
ENCODING 966
SWIDTH 609 0
DWIDTH 11 0
BBX 9 14 1 -4
BITMAP
6F00
EF80
FF80
DD80
DD80
DD80
DD80
FF80
FF80
7F00
1C00
1C00
1C00
1C00
ENDCHAR
STARTCHAR 03C7
ENCODING 967
SWIDTH 609 0
DWIDTH 11 0
BBX 9 14 1 -4
BITMAP
C380
E300
7700
3600
3E00
3C00
1C00
1C00
3C00
3E00
7600
7700
6380
E180
ENDCHAR
STARTCHAR 03C8
ENCODING 968
SWIDTH 609 0
DWIDTH 11 0
BBX 9 14 1 -4
BITMAP
DD80
DD80
DD80
DD80
DD80
DD80
DD80
FF80
FF00
7F00
1C00
1C00
1C00
1C00
ENDCHAR
STARTCHAR 03C9
ENCODING 969
SWIDTH 609 0
DWIDTH 11 0
BBX 9 10 1 0
BITMAP
E380
C380
C180
C180
DD80
DD80
DD80
DD80
FF80
7700
ENDCHAR
STARTCHAR 03CA
ENCODING 970
SWIDTH 609 0
DWIDTH 11 0
BBX 7 14 2 0
BITMAP
6C
6C
00
00
F8
F8
38
38
38
38
38
38
3E
1E
ENDCHAR
STARTCHAR 03CB
ENCODING 971
SWIDTH 609 0
DWIDTH 11 0
BBX 9 14 1 0
BITMAP
3600
3600
0000
0000
F700
F380
7180
7180
7180
7180
7380
7380
7F00
3E00
ENDCHAR
STARTCHAR 03CC
ENCODING 972
SWIDTH 609 0
DWIDTH 11 0
BBX 9 15 1 0
BITMAP
0700
0600
0C00
1800
0000
3E00
7F00
E380
E380
C380
C380
E380
E380
7F00
3E00
ENDCHAR
STARTCHAR 03CD
ENCODING 973
SWIDTH 609 0
DWIDTH 11 0
BBX 9 15 1 0
BITMAP
0300
0600
0C00
1800
0000
F700
F380
7180
7180
7180
7180
7380
7380
7F00
3E00
ENDCHAR
STARTCHAR 03CE
ENCODING 974
SWIDTH 609 0
DWIDTH 11 0
BBX 9 15 1 0
BITMAP
0300
0600
0C00
1800
0000
E380
C380
C180
C180
DD80
DD80
DD80
DD80
FF80
7700
ENDCHAR
STARTCHAR 03F4
ENCODING 1012
SWIDTH 609 0
DWIDTH 11 0
BBX 9 14 1 0
BITMAP
3E00
7F00
6700
E380
E380
E380
FF80
FF80
E380
E380
E380
6700
7F00
3E00
ENDCHAR
STARTCHAR 0400
ENCODING 1024
SWIDTH 609 0
DWIDTH 11 0
BBX 9 16 1 0
BITMAP
3800
0C00
0000
FF80
FF80
E000
E000
E000
FF00
FF00
E000
E000
E000
E000
FF80
FF80
ENDCHAR
STARTCHAR 0401
ENCODING 1025
SWIDTH 609 0
DWIDTH 11 0
BBX 9 16 1 0
BITMAP
3600
3600
0000
FF80
FF80
E000
E000
E000
FF00
FF00
E000
E000
E000
E000
FF80
FF80
ENDCHAR
STARTCHAR 0402
ENCODING 1026
SWIDTH 609 0
DWIDTH 11 0
BBX 10 17 0 -4
BITMAP
FF00
FF00
7000
7000
7000
7F80
7FC0
71C0
70C0
70C0
70C0
70C0
70C0
00C0
01C0
07C0
0780
ENDCHAR
STARTCHAR 0403
ENCODING 1027
SWIDTH 609 0
DWIDTH 11 0
BBX 8 17 2 0
BITMAP
0E
18
30
00
FF
FF
C0
C0
C0
C0
C0
C0
C0
C0
C0
C0
C0
ENDCHAR
STARTCHAR 0404
ENCODING 1028
SWIDTH 609 0
DWIDTH 11 0
BBX 8 13 1 0
BITMAP
1F
3F
71
E0
E0
FF
FF
E0
E0
F0
71
3F
1F
ENDCHAR
STARTCHAR 0405
ENCODING 1029
SWIDTH 609 0
DWIDTH 11 0
BBX 9 13 1 0
BITMAP
3E00
7F00
E100
E000
E000
7C00
3F00
0F00
0380
0380
C380
FF00
7E00
ENDCHAR
STARTCHAR 0406
ENCODING 1030
SWIDTH 609 0
DWIDTH 11 0
BBX 7 13 2 0
BITMAP
FE
FE
38
38
38
38
38
38
38
38
38
FE
FE
ENDCHAR
STARTCHAR 0407
ENCODING 1031
SWIDTH 609 0
DWIDTH 11 0
BBX 7 16 2 0
BITMAP
6C
6C
00
FE
FE
38
38
38
38
38
38
38
38
38
FE
FE
ENDCHAR
STARTCHAR 0408
ENCODING 1032
SWIDTH 609 0
DWIDTH 11 0
BBX 8 13 1 0
BITMAP
3F
3F
07
07
07
07
07
07
07
87
C7
FE
7C
ENDCHAR
STARTCHAR 0409
ENCODING 1033
SWIDTH 609 0
DWIDTH 11 0
BBX 11 13 0 0
BITMAP
3E00
3E00
3600
3600
3600
3780
37C0
36E0
3660
3660
76E0
E7C0
C780
ENDCHAR
STARTCHAR 040A
ENCODING 1034
SWIDTH 609 0
DWIDTH 11 0
BBX 11 13 0 0
BITMAP
C600
C600
C600
C600
C600
FF80
FFC0
C6E0
C660
C660
C6E0
C7C0
C780
ENDCHAR
STARTCHAR 040B
ENCODING 1035
SWIDTH 609 0
DWIDTH 11 0
BBX 10 14 0 0
BITMAP
FF00
FF00
7000
7000
7000
7780
7FC0
7FC0
70C0
70C0
70C0
70C0
70C0
70C0
ENDCHAR
STARTCHAR 040C
ENCODING 1036
SWIDTH 609 0
DWIDTH 11 0
BBX 10 16 1 0
BITMAP
0700
1C00
0000
E3C0
E700
E700
EE00
FC00
FC00
FC00
EE00
EE00
E700
E700
E380
E1C0
ENDCHAR
STARTCHAR 040D
ENCODING 1037
SWIDTH 609 0
DWIDTH 11 0
BBX 9 16 1 0
BITMAP
3800
0C00
0000
C380
C780
C780
C780
CD80
CD80
C980
D980
D980
F180
F180
E180
E180
ENDCHAR
STARTCHAR 040E
ENCODING 1038
SWIDTH 609 0
DWIDTH 11 0
BBX 11 16 0 0
BITMAP
1100
1F00
0000
E0E0
71C0
31C0
3980
1B80
1F00
0F00
0F00
0600
0E00
0C00
3C00
3800
ENDCHAR
STARTCHAR 040F
ENCODING 1039
SWIDTH 609 0
DWIDTH 11 0
BBX 9 16 1 -3
BITMAP
E380
E380
E380
E380
E380
E380
E380
E380
E380
E380
E380
FF80
FF80
1C00
1C00
1C00
ENDCHAR
STARTCHAR 0410
ENCODING 1040
SWIDTH 609 0
DWIDTH 11 0
BBX 11 13 0 0
BITMAP
0E00
1E00
1F00
1B00
1B00
3B80
3B80
3180
3F80
7FC0
71C0
60C0
E0E0
ENDCHAR
STARTCHAR 0411
ENCODING 1041
SWIDTH 609 0
DWIDTH 11 0
BBX 9 13 1 0
BITMAP
FF80
FF80
E000
E000
E000
FE00
FF00
E380
E380
E380
E380
FF00
FE00
ENDCHAR
STARTCHAR 0412
ENCODING 1042
SWIDTH 609 0
DWIDTH 11 0
BBX 9 13 1 0
BITMAP
FE00
FF00
E380
E380
E380
FF00
FF00
E380
E180
E180
E380
FF80
FE00
ENDCHAR
STARTCHAR 0413
ENCODING 1043
SWIDTH 609 0
DWIDTH 11 0
BBX 8 13 2 0
BITMAP
FF
FF
C0
C0
C0
C0
C0
C0
C0
C0
C0
C0
C0
ENDCHAR
STARTCHAR 0414
ENCODING 1044
SWIDTH 609 0
DWIDTH 11 0
BBX 11 16 0 -3
BITMAP
3F80
3F80
3180
3180
3180
3180
3180
3180
3180
3180
3180
FFE0
FFE0
E0E0
E0E0
E0E0
ENDCHAR
STARTCHAR 0415
ENCODING 1045
SWIDTH 609 0
DWIDTH 11 0
BBX 9 13 1 0
BITMAP
FF80
FF80
E000
E000
E000
FF00
FF00
E000
E000
E000
E000
FF80
FF80
ENDCHAR
STARTCHAR 0416
ENCODING 1046
SWIDTH 609 0
DWIDTH 11 0
BBX 11 13 0 0
BITMAP
EEE0
6EC0
6FC0
3F80
3F80
3F80
3F80
3F80
7F80
6EC0
6EC0
6EC0
CEE0
ENDCHAR
STARTCHAR 0417
ENCODING 1047
SWIDTH 609 0
DWIDTH 11 0
BBX 9 13 1 0
BITMAP
7E00
FF00
8700
0300
0700
3E00
3E00
0300
0380
0380
8380
FF00
FE00
ENDCHAR
STARTCHAR 0418
ENCODING 1048
SWIDTH 609 0
DWIDTH 11 0
BBX 9 13 1 0
BITMAP
C380
C780
C780
C780
CD80
CD80
C980
D980
D980
F180
F180
E180
E180
ENDCHAR
STARTCHAR 0419
ENCODING 1049
SWIDTH 609 0
DWIDTH 11 0
BBX 9 16 1 0
BITMAP
6200
3E00
0000
C380
C780
C780
C780
CD80
CD80
C980
D980
D980
F180
F180
E180
E180
ENDCHAR
STARTCHAR 041A
ENCODING 1050
SWIDTH 609 0
DWIDTH 11 0
BBX 10 13 1 0
BITMAP
E3C0
E700
E700
EE00
FC00
FC00
FC00
EE00
EE00
E700
E700
E380
E1C0
ENDCHAR
STARTCHAR 041B
ENCODING 1051
SWIDTH 609 0
DWIDTH 11 0
BBX 10 13 0 0
BITMAP
3FC0
3FC0
39C0
39C0
39C0
39C0
39C0
39C0
39C0
39C0
31C0
F1C0
E1C0
ENDCHAR
STARTCHAR 041C
ENCODING 1052
SWIDTH 609 0
DWIDTH 11 0
BBX 9 13 1 0
BITMAP
E380
E380
F780
F780
F580
D580
DD80
DD80
C180
C180
C180
C180
C180
ENDCHAR
STARTCHAR 041D
ENCODING 1053
SWIDTH 609 0
DWIDTH 11 0
BBX 9 13 1 0
BITMAP
E380
E380
E380
E380
E380
FF80
FF80
E380
E380
E380
E380
E380
E380
ENDCHAR
STARTCHAR 041E
ENCODING 1054
SWIDTH 609 0
DWIDTH 11 0
BBX 9 13 1 0
BITMAP
3E00
7F00
6700
E380
E380
E380
E380
E380
E380
E380
6700
7F00
3E00
ENDCHAR
STARTCHAR 041F
ENCODING 1055
SWIDTH 609 0
DWIDTH 11 0
BBX 9 13 1 0
BITMAP
FF80
FF80
E380
E380
E380
E380
E380
E380
E380
E380
E380
E380
E380
ENDCHAR
STARTCHAR 0420
ENCODING 1056
SWIDTH 609 0
DWIDTH 11 0
BBX 9 13 1 0
BITMAP
FE00
FF00
E380
E380
E380
E380
FF00
FE00
E000
E000
E000
E000
E000
ENDCHAR
STARTCHAR 0421
ENCODING 1057
SWIDTH 609 0
DWIDTH 11 0
BBX 8 13 1 0
BITMAP
1F
3F
71
70
E0
E0
E0
E0
E0
70
71
3F
1F
ENDCHAR
STARTCHAR 0422
ENCODING 1058
SWIDTH 609 0
DWIDTH 11 0
BBX 9 13 1 0
BITMAP
FF80
FF80
1C00
1C00
1C00
1C00
1C00
1C00
1C00
1C00
1C00
1C00
1C00
ENDCHAR
STARTCHAR 0423
ENCODING 1059
SWIDTH 609 0
DWIDTH 11 0
BBX 11 13 0 0
BITMAP
E0E0
71C0
31C0
3980
1B80
1F00
0F00
0F00
0600
0E00
0C00
3C00
3800
ENDCHAR
STARTCHAR 0424
ENCODING 1060
SWIDTH 609 0
DWIDTH 11 0
BBX 11 13 0 0
BITMAP
0E00
1F00
3F80
7FC0
6EC0
EEE0
EEE0
EEE0
6EC0
7FC0
3F80
1F00
0E00
ENDCHAR
STARTCHAR 0425
ENCODING 1061
SWIDTH 609 0
DWIDTH 11 0
BBX 11 13 0 0
BITMAP
E0E0
71C0
3380
3B80
1F00
0E00
0E00
1E00
1F00
3B80
3380
71C0
E0E0
ENDCHAR
STARTCHAR 0426
ENCODING 1062
SWIDTH 609 0
DWIDTH 11 0
BBX 10 16 1 -3
BITMAP
E380
E380
E380
E380
E380
E380
E380
E380
E380
E380
E380
FFC0
FFC0
01C0
01C0
01C0
ENDCHAR
STARTCHAR 0427
ENCODING 1063
SWIDTH 609 0
DWIDTH 11 0
BBX 9 14 1 0
BITMAP
C380
C380
C380
C380
C380
C380
E780
FF80
7F80
0380
0380
0380
0380
0380
ENDCHAR
STARTCHAR 0428
ENCODING 1064
SWIDTH 609 0
DWIDTH 11 0
BBX 9 13 1 0
BITMAP
D980
D980
D980
D980
D980
D980
D980
D980
D980
D980
D980
FF80
FF80
ENDCHAR
STARTCHAR 0429
ENCODING 1065
SWIDTH 609 0
DWIDTH 11 0
BBX 10 16 1 -3
BITMAP
DD80
DD80
DD80
DD80
DD80
DD80
DD80
DD80
DD80
DD80
DD80
FFC0
FFC0
00C0
00C0
00C0
ENDCHAR
STARTCHAR 042A
ENCODING 1066
SWIDTH 609 0
DWIDTH 11 0
BBX 10 13 0 0
BITMAP
F800
F800
3800
3800
3800
3F00
3FC0
39C0
38C0
38C0
39C0
3FC0
3F00
ENDCHAR
STARTCHAR 042B
ENCODING 1067
SWIDTH 609 0
DWIDTH 11 0
BBX 11 13 0 0
BITMAP
E0E0
E0E0
E0E0
E0E0
E0E0
F8E0
FEE0
E6E0
E6E0
E6E0
E6E0
FEE0
F8E0
ENDCHAR
STARTCHAR 042C
ENCODING 1068
SWIDTH 609 0
DWIDTH 11 0
BBX 9 13 1 0
BITMAP
E000
E000
E000
E000
E000
FE00
FF00
E380
E380
E380
E380
FF00
FE00
ENDCHAR
STARTCHAR 042D
ENCODING 1069
SWIDTH 609 0
DWIDTH 11 0
BBX 8 13 2 0
BITMAP
F8
FC
8E
06
07
FF
FF
07
07
06
8E
FC
F8
ENDCHAR
STARTCHAR 042E
ENCODING 1070
SWIDTH 609 0
DWIDTH 11 0
BBX 11 13 0 0
BITMAP
E380
E7C0
EEC0
ECE0
ECE0
FCE0
FCE0
ECE0
ECE0
ECE0
EEC0
E7C0
E380
ENDCHAR
STARTCHAR 042F
ENCODING 1071
SWIDTH 609 0
DWIDTH 11 0
BBX 10 13 0 0
BITMAP
1FC0
7FC0
71C0
71C0
71C0
71C0
3FC0
1FC0
1DC0
39C0
31C0
71C0
E1C0
ENDCHAR
STARTCHAR 0430
ENCODING 1072
SWIDTH 609 0
DWIDTH 11 0
BBX 9 10 1 0
BITMAP
7E00
7F00
4380
3F80
FF80
E380
E380
E780
FF80
7B80
ENDCHAR
STARTCHAR 0431
ENCODING 1073
SWIDTH 609 0
DWIDTH 11 0
BBX 9 14 1 0
BITMAP
1F00
7F00
F000
C000
FE00
FF00
E380
E380
E180
E180
E380
6380
7F00
3E00
ENDCHAR
STARTCHAR 0432
ENCODING 1074
SWIDTH 609 0
DWIDTH 11 0
BBX 9 10 1 0
BITMAP
FE00
FF00
E380
E300
FF00
FF00
E380
E380
FF80
FF00
ENDCHAR
STARTCHAR 0433
ENCODING 1075
SWIDTH 609 0
DWIDTH 11 0
BBX 7 10 2 0
BITMAP
FE
FE
E0
E0
E0
E0
E0
E0
E0
E0
ENDCHAR
STARTCHAR 0434
ENCODING 1076
SWIDTH 609 0
DWIDTH 11 0
BBX 9 12 1 -2
BITMAP
7F00
7F00
6300
6300
6300
6300
6300
6300
FF80
FF80
C080
C080
ENDCHAR
STARTCHAR 0435
ENCODING 1077
SWIDTH 609 0
DWIDTH 11 0
BBX 9 10 1 0
BITMAP
3E00
7F00
E380
E380
FF80
FF80
C000
E080
7F80
3F00
ENDCHAR
STARTCHAR 0436
ENCODING 1078
SWIDTH 609 0
DWIDTH 11 0
BBX 11 10 0 0
BITMAP
EEE0
6FC0
3F80
3F80
3F80
3F80
7F80
6EC0
6EC0
EEE0
ENDCHAR
STARTCHAR 0437
ENCODING 1079
SWIDTH 609 0
DWIDTH 11 0
BBX 9 10 1 0
BITMAP
7E00
7F00
0300
0300
1F00
1F00
0300
8380
FF00
7E00
ENDCHAR
STARTCHAR 0438
ENCODING 1080
SWIDTH 609 0
DWIDTH 11 0
BBX 9 10 1 0
BITMAP
E380
E780
E780
EF80
EF80
FB80
FB80
F380
F380
E380
ENDCHAR
STARTCHAR 0439
ENCODING 1081
SWIDTH 609 0
DWIDTH 11 0
BBX 9 14 1 0
BITMAP
6200
2200
3E00
0000
E380
E780
E780
EF80
EF80
FB80
FB80
F380
F380
E380
ENDCHAR
STARTCHAR 043A
ENCODING 1082
SWIDTH 609 0
DWIDTH 11 0
BBX 9 10 2 0
BITMAP
C700
CE00
DC00
F800
F800
FC00
CC00
CE00
C700
C780
ENDCHAR
STARTCHAR 043B
ENCODING 1083
SWIDTH 609 0
DWIDTH 11 0
BBX 10 10 0 0
BITMAP
3FC0
3FC0
39C0
39C0
39C0
39C0
39C0
31C0
F1C0
E1C0
ENDCHAR
STARTCHAR 043C
ENCODING 1084
SWIDTH 609 0
DWIDTH 11 0
BBX 9 10 1 0
BITMAP
E380
E380
F780
F780
F580
D580
DD80
DD80
C180
C180
ENDCHAR
STARTCHAR 043D
ENCODING 1085
SWIDTH 609 0
DWIDTH 11 0
BBX 7 10 2 0
BITMAP
C6
C6
C6
FE
FE
C6
C6
C6
C6
C6
ENDCHAR
STARTCHAR 043E
ENCODING 1086
SWIDTH 609 0
DWIDTH 11 0
BBX 9 10 1 0
BITMAP
3E00
7F00
E380
E380
C380
C380
E380
E380
7F00
3E00
ENDCHAR
STARTCHAR 043F
ENCODING 1087
SWIDTH 609 0
DWIDTH 11 0
BBX 7 10 2 0
BITMAP
FE
FE
C6
C6
C6
C6
C6
C6
C6
C6
ENDCHAR
STARTCHAR 0440
ENCODING 1088
SWIDTH 609 0
DWIDTH 11 0
BBX 9 14 1 -4
BITMAP
EE00
FF00
F380
E380
E380
E380
E380
F380
FF00
EE00
E000
E000
E000
E000
ENDCHAR
STARTCHAR 0441
ENCODING 1089
SWIDTH 609 0
DWIDTH 11 0
BBX 8 10 1 0
BITMAP
1F
7F
71
E0
E0
E0
E0
71
7F
1F
ENDCHAR
STARTCHAR 0442
ENCODING 1090
SWIDTH 609 0
DWIDTH 11 0
BBX 8 10 1 0
BITMAP
FF
FF
1C
1C
1C
1C
1C
1C
1C
1C
ENDCHAR
STARTCHAR 0443
ENCODING 1091
SWIDTH 609 0
DWIDTH 11 0
BBX 9 14 1 -4
BITMAP
C180
E380
6380
7300
7700
3600
3E00
3E00
1C00
1C00
1C00
1800
F800
F000
ENDCHAR
STARTCHAR 0444
ENCODING 1092
SWIDTH 609 0
DWIDTH 11 0
BBX 9 17 1 -4
BITMAP
1800
1800
1800
1800
3E00
7F00
D980
D980
D980
D980
D980
FB80
7F00
1C00
1800
1800
1800
ENDCHAR
STARTCHAR 0445
ENCODING 1093
SWIDTH 609 0
DWIDTH 11 0
BBX 10 10 0 0
BITMAP
71C0
3B80
1B00
1F00
0E00
0E00
1F00
3B80
3180
F1C0
ENDCHAR
STARTCHAR 0446
ENCODING 1094
SWIDTH 609 0
DWIDTH 11 0
BBX 10 12 1 -2
BITMAP
E300
E300
E300
E300
E300
E300
E300
E300
FFC0
FFC0
00C0
00C0
ENDCHAR
STARTCHAR 0447
ENCODING 1095
SWIDTH 609 0
DWIDTH 11 0
BBX 8 10 1 0
BITMAP
E3
E3
E3
E3
FF
7F
03
03
03
03
ENDCHAR
STARTCHAR 0448
ENCODING 1096
SWIDTH 609 0
DWIDTH 11 0
BBX 9 10 1 0
BITMAP
D980
D980
D980
D980
D980
D980
D980
D980
FF80
FF80
ENDCHAR
STARTCHAR 0449
ENCODING 1097
SWIDTH 609 0
DWIDTH 11 0
BBX 10 12 1 -2
BITMAP
D980
D980
D980
D980
D980
D980
D980
D980
FFC0
FFC0
00C0
00C0
ENDCHAR
STARTCHAR 044A
ENCODING 1098
SWIDTH 609 0
DWIDTH 11 0
BBX 10 10 0 0
BITMAP
F800
F800
1800
1800
1F80
1FC0
18C0
18C0
1FC0
1F80
ENDCHAR
STARTCHAR 044B
ENCODING 1099
SWIDTH 609 0
DWIDTH 11 0
BBX 11 10 0 0
BITMAP
E0E0
E0E0
E0E0
E0E0
FCE0
FEE0
EEE0
EEE0
FEE0
FCE0
ENDCHAR
STARTCHAR 044C
ENCODING 1100
SWIDTH 609 0
DWIDTH 11 0
BBX 8 10 2 0
BITMAP
C0
C0
C0
C0
FE
FF
C7
C7
FF
FE
ENDCHAR
STARTCHAR 044D
ENCODING 1101
SWIDTH 609 0
DWIDTH 11 0
BBX 8 10 2 0
BITMAP
F8
FC
8E
06
7F
7F
06
8E
FC
F8
ENDCHAR
STARTCHAR 044E
ENCODING 1102
SWIDTH 609 0
DWIDTH 11 0
BBX 10 10 1 0
BITMAP
C700
CF80
DD80
D9C0
F9C0
F9C0
D9C0
DD80
CF80
C700
ENDCHAR
STARTCHAR 044F
ENCODING 1103
SWIDTH 609 0
DWIDTH 11 0
BBX 9 10 1 0
BITMAP
3F80
7F80
E380
E380
7F80
3F80
3B80
7380
E380
E380
ENDCHAR
STARTCHAR 0450
ENCODING 1104
SWIDTH 609 0
DWIDTH 11 0
BBX 9 15 1 0
BITMAP
7000
3800
1800
0C00
0000
3E00
7F00
E380
E380
FF80
FF80
E000
E080
7F80
3F00
ENDCHAR
STARTCHAR 0451
ENCODING 1105
SWIDTH 609 0
DWIDTH 11 0
BBX 9 14 1 0
BITMAP
3700
3700
0000
0000
3E00
7F00
E380
E380
FF80
FF80
C000
E080
7F80
3F00
ENDCHAR
STARTCHAR 0452
ENCODING 1106
SWIDTH 609 0
DWIDTH 11 0
BBX 10 18 0 -4
BITMAP
3000
3000
3000
3000
FF00
FF00
3000
3780
3FC0
39C0
30C0
30C0
30C0
31C0
01C0
0380
0700
0400
ENDCHAR
STARTCHAR 0453
ENCODING 1107
SWIDTH 609 0
DWIDTH 11 0
BBX 7 15 2 0
BITMAP
06
0E
0C
38
00
FE
FE
E0
E0
E0
E0
E0
E0
E0
E0
ENDCHAR
STARTCHAR 0454
ENCODING 1108
SWIDTH 609 0
DWIDTH 11 0
BBX 8 10 1 0
BITMAP
1F
7F
71
E0
FE
FE
E0
71
7F
1F
ENDCHAR
STARTCHAR 0455
ENCODING 1109
SWIDTH 609 0
DWIDTH 11 0
BBX 7 10 2 0
BITMAP
7C
FE
C2
C0
F8
3E
06
86
FE
FC
ENDCHAR
STARTCHAR 0456
ENCODING 1110
SWIDTH 609 0
DWIDTH 11 0
BBX 8 15 2 0
BITMAP
30
30
30
00
00
F0
F0
30
30
30
30
30
38
3F
1F
ENDCHAR
STARTCHAR 0457
ENCODING 1111
SWIDTH 609 0
DWIDTH 11 0
BBX 8 14 2 0
BITMAP
CC
CC
00
00
F0
F0
30
30
30
30
30
38
3F
1F
ENDCHAR
STARTCHAR 0458
ENCODING 1112
SWIDTH 609 0
DWIDTH 11 0
BBX 6 18 2 -4
BITMAP
1C
1C
1C
00
7C
7C
1C
1C
1C
1C
1C
1C
1C
1C
1C
1C
F8
F0
ENDCHAR
STARTCHAR 0459
ENCODING 1113
SWIDTH 609 0
DWIDTH 11 0
BBX 11 10 0 0
BITMAP
3E00
3E00
3600
3600
37C0
37E0
3660
3660
E7C0
E780
ENDCHAR
STARTCHAR 045A
ENCODING 1114
SWIDTH 609 0
DWIDTH 11 0
BBX 11 10 0 0
BITMAP
C600
C600
C600
FE00
FF80
C7C0
C660
C660
C7C0
C780
ENDCHAR
STARTCHAR 045B
ENCODING 1115
SWIDTH 609 0
DWIDTH 11 0
BBX 10 14 0 0
BITMAP
3000
3000
3000
3000
FF00
FF00
3000
3780
3F80
39C0
39C0
31C0
31C0
31C0
ENDCHAR
STARTCHAR 045C
ENCODING 1116
SWIDTH 609 0
DWIDTH 11 0
BBX 9 15 2 0
BITMAP
0600
0C00
1800
3000
0000
C700
CE00
DC00
F800
F800
FC00
CC00
CE00
C700
C780
ENDCHAR
STARTCHAR 045D
ENCODING 1117
SWIDTH 609 0
DWIDTH 11 0
BBX 9 15 1 0
BITMAP
7000
3000
1800
0C00
0000
E380
E780
E780
EF80
EF80
FB80
FB80
F380
F380
E380
ENDCHAR
STARTCHAR 045E
ENCODING 1118
SWIDTH 609 0
DWIDTH 11 0
BBX 9 18 1 -4
BITMAP
2200
2200
3E00
0000
C180
E380
6380
7300
7700
3600
3E00
3E00
1C00
1C00
1C00
1800
F800
F000
ENDCHAR
STARTCHAR 045F
ENCODING 1119
SWIDTH 609 0
DWIDTH 11 0
BBX 7 12 2 -2
BITMAP
C6
C6
C6
C6
C6
C6
C6
C6
FE
FE
30
30
ENDCHAR
STARTCHAR 0462
ENCODING 1122
SWIDTH 609 0
DWIDTH 11 0
BBX 10 13 0 0
BITMAP
3800
FF00
FF00
3800
3800
3F00
3FC0
39C0
38C0
38C0
39C0
3FC0
3F00
ENDCHAR
STARTCHAR 0463
ENCODING 1123
SWIDTH 609 0
DWIDTH 11 0
BBX 10 14 0 0
BITMAP
1800
1800
1800
1800
FF80
FF80
1800
1800
1F80
1FC0
18C0
18C0
1FC0
1F80
ENDCHAR
STARTCHAR 0472
ENCODING 1138
SWIDTH 609 0
DWIDTH 11 0
BBX 9 13 1 0
BITMAP
3E00
7F00
E300
E380
E380
FF80
FF80
E380
E380
E380
E700
7F00
3E00
ENDCHAR
STARTCHAR 0473
ENCODING 1139
SWIDTH 609 0
DWIDTH 11 0
BBX 9 10 1 0
BITMAP
3E00
7F00
E380
E380
FF80
FF80
E380
E380
7F00
3E00
ENDCHAR
STARTCHAR 0490
ENCODING 1168
SWIDTH 609 0
DWIDTH 11 0
BBX 8 16 2 0
BITMAP
03
03
03
FF
FF
E0
E0
E0
E0
E0
E0
E0
E0
E0
E0
E0
ENDCHAR
STARTCHAR 0491
ENCODING 1169
SWIDTH 609 0
DWIDTH 11 0
BBX 8 13 2 0
BITMAP
03
03
03
FF
FF
E0
E0
E0
E0
E0
E0
E0
E0
ENDCHAR
STARTCHAR 0492
ENCODING 1170
SWIDTH 609 0
DWIDTH 11 0
BBX 9 13 1 0
BITMAP
7F80
7F80
7000
7000
7000
FE00
FE00
7000
7000
7000
7000
7000
7000
ENDCHAR
STARTCHAR 0493
ENCODING 1171
SWIDTH 609 0
DWIDTH 11 0
BBX 9 10 1 0
BITMAP
3F80
3F80
3000
3000
FE00
FE00
3000
3000
3000
3000
ENDCHAR
STARTCHAR 0494
ENCODING 1172
SWIDTH 609 0
DWIDTH 11 0
BBX 9 17 1 -4
BITMAP
FF80
FF80
E000
E000
E000
FF00
FF80
E380
E380
E380
E380
E380
E380
0380
0380
0F80
0F00
ENDCHAR
STARTCHAR 0495
ENCODING 1173
SWIDTH 609 0
DWIDTH 11 0
BBX 7 14 2 -4
BITMAP
FE
FE
E0
E0
E0
FC
FE
E6
E6
E6
06
06
3E
3C
ENDCHAR
STARTCHAR 0496
ENCODING 1174
SWIDTH 609 0
DWIDTH 11 0
BBX 11 16 0 -3
BITMAP
EEE0
6EC0
6FC0
3F80
3F80
3F80
3F80
3F80
7F80
6FC0
6EC0
6EE0
CEE0
0060
0060
0060
ENDCHAR
STARTCHAR 0497
ENCODING 1175
SWIDTH 609 0
DWIDTH 11 0
BBX 11 12 0 -2
BITMAP
EEE0
6FC0
3F80
3F80
3F80
3F80
7FC0
6EC0
6EE0
EEE0
0060
0060
ENDCHAR
STARTCHAR 0498
ENCODING 1176
SWIDTH 609 0
DWIDTH 11 0
BBX 9 17 1 -4
BITMAP
7C00
FF00
C700
0300
0300
0700
3E00
3F00
0300
0380
8380
FF00
FE00
0800
0C00
4C00
3800
ENDCHAR
STARTCHAR 0499
ENCODING 1177
SWIDTH 609 0
DWIDTH 11 0
BBX 9 14 1 -4
BITMAP
7C00
7F00
8700
0300
0700
3E00
3F00
0380
FF00
7E00
0800
0C00
4C00
3800
ENDCHAR
STARTCHAR 049A
ENCODING 1178
SWIDTH 609 0
DWIDTH 11 0
BBX 10 16 1 -3
BITMAP
E3C0
E300
E700
EE00
FC00
FC00
FC00
FE00
EE00
E700
E300
E3C0
E1C0
01C0
01C0
01C0
ENDCHAR
STARTCHAR 049B
ENCODING 1179
SWIDTH 609 0
DWIDTH 11 0
BBX 9 12 2 -2
BITMAP
C700
CE00
DC00
F800
F800
FC00
CC00
CE00
C780
C780
0380
0380
ENDCHAR
STARTCHAR 04A2
ENCODING 1186
SWIDTH 609 0
DWIDTH 11 0
BBX 10 16 1 -3
BITMAP
C300
C300
C300
C300
C300
FF00
FF00
C300
C300
C300
C300
C3C0
C3C0
00C0
00C0
00C0
ENDCHAR
STARTCHAR 04A3
ENCODING 1187
SWIDTH 609 0
DWIDTH 11 0
BBX 11 12 0 -2
BITMAP
E300
E300
E300
FF00
FF00
E300
E300
E300
E3E0
E3E0
00E0
00E0
ENDCHAR
STARTCHAR 04A4
ENCODING 1188
SWIDTH 609 0
DWIDTH 11 0
BBX 10 13 1 0
BITMAP
C7C0
C7C0
C600
C600
C600
FE00
FE00
C600
C600
C600
C600
C600
C600
ENDCHAR
STARTCHAR 04A5
ENCODING 1189
SWIDTH 609 0
DWIDTH 11 0
BBX 10 10 1 0
BITMAP
C7C0
C7C0
C600
C600
FE00
FE00
C600
C600
C600
C600
ENDCHAR
STARTCHAR 04AA
ENCODING 1194
SWIDTH 609 0
DWIDTH 11 0
BBX 8 17 1 -4
BITMAP
1F
3F
71
70
E0
E0
E0
E0
E0
60
71
7F
3F
0E
02
16
1E
ENDCHAR
STARTCHAR 04AB
ENCODING 1195
SWIDTH 609 0
DWIDTH 11 0
BBX 8 14 1 -4
BITMAP
1F
3F
71
60
E0
E0
E0
71
7F
3F
0E
06
26
1C
ENDCHAR
STARTCHAR 04AC
ENCODING 1196
SWIDTH 609 0
DWIDTH 11 0
BBX 9 16 1 -3
BITMAP
FF80
FF80
1C00
1C00
1C00
1C00
1C00
1C00
1C00
1C00
1C00
1F00
1F00
0300
0300
0300
ENDCHAR
STARTCHAR 04AD
ENCODING 1197
SWIDTH 609 0
DWIDTH 11 0
BBX 8 12 1 -2
BITMAP
FF
FF
1C
1C
1C
1C
1C
1C
1F
1F
03
03
ENDCHAR
STARTCHAR 04AE
ENCODING 1198
SWIDTH 609 0
DWIDTH 11 0
BBX 11 13 0 0
BITMAP
E0E0
71C0
71C0
3B80
3B00
1F00
1E00
0E00
0E00
0E00
0E00
0E00
0E00
ENDCHAR
STARTCHAR 04AF
ENCODING 1199
SWIDTH 609 0
DWIDTH 11 0
BBX 9 14 1 -4
BITMAP
C380
E380
E300
6700
7700
3600
3E00
3E00
1C00
1C00
1C00
1C00
1C00
1C00
ENDCHAR
STARTCHAR 04B0
ENCODING 1200
SWIDTH 609 0
DWIDTH 11 0
BBX 11 13 0 0
BITMAP
E0E0
71C0
71C0
3B80
3B80
1F00
1F00
0E00
0E00
3F80
3F80
0E00
0E00
ENDCHAR
STARTCHAR 04B1
ENCODING 1201
SWIDTH 609 0
DWIDTH 11 0
BBX 9 14 1 -4
BITMAP
C380
E380
E300
6300
7700
7600
3600
3E00
3C00
1C00
1C00
7E00
7E00
1C00
ENDCHAR
STARTCHAR 04B2
ENCODING 1202
SWIDTH 609 0
DWIDTH 11 0
BBX 11 16 0 -3
BITMAP
E0E0
71C0
3380
3B80
1F00
1E00
0E00
0E00
1F00
3B00
3380
71E0
E0E0
00E0
00E0
00E0
ENDCHAR
STARTCHAR 04B3
ENCODING 1203
SWIDTH 609 0
DWIDTH 11 0
BBX 10 12 0 -2
BITMAP
71C0
3B80
1B00
1F00
0E00
0E00
1F00
3B80
31C0
F1C0
00C0
00C0
ENDCHAR
STARTCHAR 04BA
ENCODING 1210
SWIDTH 609 0
DWIDTH 11 0
BBX 9 14 1 0
BITMAP
E000
E000
E000
E000
E000
FF00
FF80
E380
E180
E180
E180
E180
E180
E180
ENDCHAR
STARTCHAR 04BB
ENCODING 1211
SWIDTH 609 0
DWIDTH 11 0
BBX 7 14 2 0
BITMAP
C0
C0
C0
C0
DC
FE
E6
C6
C6
C6
C6
C6
C6
C6
ENDCHAR
STARTCHAR 04C0
ENCODING 1216
SWIDTH 609 0
DWIDTH 11 0
BBX 7 13 2 0
BITMAP
FE
FE
38
38
38
38
38
38
38
38
38
FE
FE
ENDCHAR
STARTCHAR 04C1
ENCODING 1217
SWIDTH 609 0
DWIDTH 11 0
BBX 11 16 0 0
BITMAP
3100
1F00
0000
EEE0
6EC0
6FC0
3F80
3F80
3F80
3F80
3F80
7F80
6EC0
6EC0
6EC0
CEE0
ENDCHAR
STARTCHAR 04C2
ENCODING 1218
SWIDTH 609 0
DWIDTH 11 0
BBX 11 14 0 0
BITMAP
3100
1100
1F00
0000
EEE0
6FC0
3F80
3F80
3F80
3F80
7F80
6EC0
6EC0
EEE0
ENDCHAR
STARTCHAR 04C3
ENCODING 1219
SWIDTH 609 0
DWIDTH 11 0
BBX 10 17 1 -4
BITMAP
E3C0
E300
E700
EE00
FC00
FF00
FF00
F380
E380
E380
E380
E380
E380
0380
0380
1F00
1E00
ENDCHAR
STARTCHAR 04C4
ENCODING 1220
SWIDTH 609 0
DWIDTH 11 0
BBX 8 14 2 -4
BITMAP
C7
CE
DC
F8
FC
FE
CE
CE
CE
CE
0E
0E
3E
3C
ENDCHAR
STARTCHAR 04C7
ENCODING 1223
SWIDTH 609 0
DWIDTH 11 0
BBX 9 17 1 -4
BITMAP
E380
E380
E380
E380
E380
FF80
FF80
E380
E380
E380
E380
E380
E380
0380
0380
1F00
1E00
ENDCHAR
STARTCHAR 04C8
ENCODING 1224
SWIDTH 609 0
DWIDTH 11 0
BBX 7 14 2 -4
BITMAP
C6
C6
C6
C6
FE
FE
C6
C6
C6
C6
06
06
3E
3C
ENDCHAR
STARTCHAR 04CB
ENCODING 1227
SWIDTH 609 0
DWIDTH 11 0
BBX 9 17 1 -3
BITMAP
C380
C380
C380
C380
C380
C380
E380
FF80
7F80
0380
0380
0380
0F80
0F80
0C00
0C00
0C00
ENDCHAR
STARTCHAR 04CC
ENCODING 1228
SWIDTH 609 0
DWIDTH 11 0
BBX 8 12 1 -2
BITMAP
E3
E3
E3
E3
7F
3F
03
03
1F
1F
1C
1C
ENDCHAR
STARTCHAR 04CF
ENCODING 1231
SWIDTH 609 0
DWIDTH 11 0
BBX 3 14 3 0
BITMAP
E0
E0
E0
E0
E0
E0
E0
E0
E0
E0
E0
E0
E0
E0
ENDCHAR
STARTCHAR 04D0
ENCODING 1232
SWIDTH 609 0
DWIDTH 11 0
BBX 11 16 0 0
BITMAP
3100
1F00
0000
0E00
1E00
1F00
1B00
1B00
3B80
3B80
3180
3F80
7FC0
71C0
60C0
E0E0
ENDCHAR
STARTCHAR 04D1
ENCODING 1233
SWIDTH 609 0
DWIDTH 11 0
BBX 9 14 1 0
BITMAP
6200
3E00
0000
0000
7E00
7F00
4380
3F80
FF80
E380
E380
E380
FF80
7B80
ENDCHAR
STARTCHAR 04D2
ENCODING 1234
SWIDTH 609 0
DWIDTH 11 0
BBX 11 16 0 0
BITMAP
1B00
1B00
0000
0E00
1E00
1F00
1B00
1B00
3B80
3B80
3180
3F80
7FC0
71C0
60C0
E0E0
ENDCHAR
STARTCHAR 04D3
ENCODING 1235
SWIDTH 609 0
DWIDTH 11 0
BBX 9 14 1 0
BITMAP
3600
3600
0000
0000
7E00
7F00
4380
3F80
FF80
E380
E380
E780
FF80
7B80
ENDCHAR
STARTCHAR 04D4
ENCODING 1236
SWIDTH 609 0
DWIDTH 11 0
BBX 10 13 0 0
BITMAP
1FC0
1FC0
1F00
3700
3700
37C0
37C0
7700
7F00
7F00
6700
E7C0
C7C0
ENDCHAR
STARTCHAR 04D5
ENCODING 1237
SWIDTH 609 0
DWIDTH 11 0
BBX 10 10 0 0
BITMAP
7B80
7FC0
4EC0
0EC0
7FC0
FFC0
CE00
CE40
FBC0
7BC0
ENDCHAR
STARTCHAR 04D6
ENCODING 1238
SWIDTH 609 0
DWIDTH 11 0
BBX 9 16 1 0
BITMAP
2300
3E00
0000
FF80
FF80
E000
E000
E000
FF00
FF00
E000
E000
E000
E000
FF80
FF80
ENDCHAR
STARTCHAR 04D7
ENCODING 1239
SWIDTH 609 0
DWIDTH 11 0
BBX 9 14 1 0
BITMAP
2300
3E00
0000
0000
3E00
7F00
E380
E380
FF80
FF80
E000
E080
7F80
3F00
ENDCHAR
STARTCHAR 04D8
ENCODING 1240
SWIDTH 609 0
DWIDTH 11 0
BBX 9 13 1 0
BITMAP
3E00
3F00
2700
0380
0380
0380
FF80
FF80
E380
E380
E300
7F00
3E00
ENDCHAR
STARTCHAR 04D9
ENCODING 1241
SWIDTH 609 0
DWIDTH 11 0
BBX 9 10 1 0
BITMAP
7E00
FF00
8380
0180
FF80
FF80
E380
E380
7F00
3E00
ENDCHAR
STARTCHAR 04DA
ENCODING 1242
SWIDTH 609 0
DWIDTH 11 0
BBX 9 16 1 0
BITMAP
3600
3600
0000
3E00
3F00
2700
0380
0380
0380
FF80
FF80
E380
E380
E300
7F00
3E00
ENDCHAR
STARTCHAR 04DB
ENCODING 1243
SWIDTH 609 0
DWIDTH 11 0
BBX 9 14 1 0
BITMAP
3600
3600
0000
0000
7E00
FF00
8380
0180
FF80
FF80
E380
E380
7F00
3E00
ENDCHAR
STARTCHAR 04DC
ENCODING 1244
SWIDTH 609 0
DWIDTH 11 0
BBX 11 16 0 0
BITMAP
1B00
1B00
0000
EEE0
6EC0
6FC0
3F80
3F80
3F80
3F80
3F80
7F80
6EC0
6EC0
6EC0
CEE0
ENDCHAR
STARTCHAR 04DD
ENCODING 1245
SWIDTH 609 0
DWIDTH 11 0
BBX 11 14 0 0
BITMAP
1B00
1B00
0000
0000
EEE0
6FC0
3F80
3F80
3F80
3F80
7F80
6EC0
6EC0
EEE0
ENDCHAR
STARTCHAR 04DE
ENCODING 1246
SWIDTH 609 0
DWIDTH 11 0
BBX 9 16 1 0
BITMAP
7600
7600
0000
7E00
FF00
8700
0300
0700
3E00
3E00
0300
0380
0380
8380
FF00
FE00
ENDCHAR
STARTCHAR 04DF
ENCODING 1247
SWIDTH 609 0
DWIDTH 11 0
BBX 9 14 1 0
BITMAP
3600
3600
0000
0000
7E00
7F00
0700
0700
3E00
3F00
0300
8380
FF00
7E00
ENDCHAR
STARTCHAR 04E0
ENCODING 1248
SWIDTH 609 0
DWIDTH 11 0
BBX 11 13 0 0
BITMAP
7FC0
7FC0
03C0
0780
0F00
1E00
1FC0
01C0
00E0
E0E0
F1E0
7FC0
3F80
ENDCHAR
STARTCHAR 04E1
ENCODING 1249
SWIDTH 609 0
DWIDTH 11 0
BBX 9 14 1 -4
BITMAP
FF00
FF00
0700
0E00
1C00
3800
3E00
3F00
0780
0380
0380
8780
FF00
FE00
ENDCHAR
STARTCHAR 04E2
ENCODING 1250
SWIDTH 609 0
DWIDTH 11 0
BBX 9 16 1 0
BITMAP
3E00
3E00
0000
C380
C780
C780
C780
CD80
CD80
C980
D980
D980
F180
F180
E180
E180
ENDCHAR
STARTCHAR 04E3
ENCODING 1251
SWIDTH 609 0
DWIDTH 11 0
BBX 9 13 1 0
BITMAP
3E00
3E00
0000
E380
E780
E780
EF80
EF80
FB80
FB80
F380
F380
E380
ENDCHAR
STARTCHAR 04E4
ENCODING 1252
SWIDTH 609 0
DWIDTH 11 0
BBX 9 17 1 0
BITMAP
3600
3600
0000
0000
C380
C780
C780
C780
CD80
CD80
C980
D980
D980
F180
F180
E180
E180
ENDCHAR
STARTCHAR 04E5
ENCODING 1253
SWIDTH 609 0
DWIDTH 11 0
BBX 9 14 1 0
BITMAP
3600
3600
0000
0000
E380
E780
E780
EF80
EF80
FB80
FB80
F380
F380
E380
ENDCHAR
STARTCHAR 04E6
ENCODING 1254
SWIDTH 609 0
DWIDTH 11 0
BBX 9 17 1 0
BITMAP
3600
3600
0000
0000
3E00
7F00
6700
E380
E380
E380
E380
E380
E380
E380
6700
7F00
3E00
ENDCHAR
STARTCHAR 04E7
ENCODING 1255
SWIDTH 609 0
DWIDTH 11 0
BBX 9 14 1 0
BITMAP
3600
3600
0000
0000
3E00
7F00
E380
E380
C380
C380
E380
E380
7F00
3E00
ENDCHAR
STARTCHAR 04E8
ENCODING 1256
SWIDTH 609 0
DWIDTH 11 0
BBX 9 13 1 0
BITMAP
3E00
7F00
6300
E380
E380
FF80
FF80
E380
E380
E380
6700
7F00
3E00
ENDCHAR
STARTCHAR 04E9
ENCODING 1257
SWIDTH 609 0
DWIDTH 11 0
BBX 9 10 1 0
BITMAP
3E00
7F00
E380
E380
FF80
FF80
E380
E380
7F00
3E00
ENDCHAR
STARTCHAR 04EA
ENCODING 1258
SWIDTH 609 0
DWIDTH 11 0
BBX 9 17 1 0
BITMAP
3600
3600
0000
0000
3E00
7F00
6300
E380
E380
FF80
FF80
E380
E380
E380
6700
7F00
3E00
ENDCHAR
STARTCHAR 04EB
ENCODING 1259
SWIDTH 609 0
DWIDTH 11 0
BBX 9 14 1 0
BITMAP
3600
3600
0000
0000
3E00
7F00
E380
E380
FF80
FF80
E380
E380
7F00
3E00
ENDCHAR
STARTCHAR 04EC
ENCODING 1260
SWIDTH 609 0
DWIDTH 11 0
BBX 8 17 2 0
BITMAP
CC
CC
00
00
F8
FC
8E
06
07
FF
FF
07
07
0E
8E
FC
F8
ENDCHAR
STARTCHAR 04ED
ENCODING 1261
SWIDTH 609 0
DWIDTH 11 0
BBX 8 14 2 0
BITMAP
CC
CC
00
00
F8
FC
8E
06
7F
7F
06
8E
FE
F8
ENDCHAR
STARTCHAR 04EE
ENCODING 1262
SWIDTH 609 0
DWIDTH 11 0
BBX 11 16 0 0
BITMAP
1F00
1F00
0000
E0E0
71C0
31C0
3980
1B80
1F00
0F00
0F00
0E00
0E00
1C00
3C00
3800
ENDCHAR
STARTCHAR 04EF
ENCODING 1263
SWIDTH 609 0
DWIDTH 11 0
BBX 9 17 1 -4
BITMAP
3E00
3E00
0000
C380
E380
E300
6300
7700
3600
3600
3E00
1C00
1C00
1C00
1800
F800
F000
ENDCHAR
STARTCHAR 04F0
ENCODING 1264
SWIDTH 609 0
DWIDTH 11 0
BBX 11 17 0 0
BITMAP
1B00
1B00
0000
0000
E0E0
71C0
31C0
3980
1B80
1F00
0F00
0F00
0E00
0E00
1C00
3C00
3800
ENDCHAR
STARTCHAR 04F1
ENCODING 1265
SWIDTH 609 0
DWIDTH 11 0
BBX 9 17 1 -4
BITMAP
3600
3600
0000
C380
E380
E300
6300
7700
3600
3600
3E00
1C00
1C00
1C00
1800
F800
F000
ENDCHAR
STARTCHAR 04F2
ENCODING 1266
SWIDTH 609 0
DWIDTH 11 0
BBX 11 17 0 0
BITMAP
0FC0
1B00
2000
0000
E0E0
71C0
31C0
3980
1B80
1F00
0F00
0F00
0E00
0E00
1C00
3C00
3800
ENDCHAR
STARTCHAR 04F3
ENCODING 1267
SWIDTH 609 0
DWIDTH 11 0
BBX 9 18 1 -4
BITMAP
1B80
3200
2600
0000
C380
E380
E300
6300
7700
3600
3600
3E00
1C00
1C00
1C00
1800
F800
F000
ENDCHAR
STARTCHAR 04F4
ENCODING 1268
SWIDTH 609 0
DWIDTH 11 0
BBX 9 17 1 0
BITMAP
3600
3600
0000
C380
C380
C380
C380
C380
C380
E780
FF80
7F80
0380
0380
0380
0380
0380
ENDCHAR
STARTCHAR 04F5
ENCODING 1269
SWIDTH 609 0
DWIDTH 11 0
BBX 8 14 1 0
BITMAP
36
36
00
00
E3
E3
E3
E3
FF
7F
03
03
03
03
ENDCHAR
STARTCHAR 04F6
ENCODING 1270
SWIDTH 609 0
DWIDTH 11 0
BBX 8 16 2 -3
BITMAP
FF
FF
C0
C0
C0
C0
C0
C0
C0
C0
C0
F8
F8
38
38
38
ENDCHAR
STARTCHAR 04F7
ENCODING 1271
SWIDTH 609 0
DWIDTH 11 0
BBX 7 12 2 -2
BITMAP
FE
FE
E0
E0
E0
E0
E0
E0
F8
F8
18
18
ENDCHAR
STARTCHAR 04F8
ENCODING 1272
SWIDTH 609 0
DWIDTH 11 0
BBX 11 17 0 0
BITMAP
1B80
1B80
0000
0000
E0E0
E0E0
E0E0
E0E0
E0E0
F8E0
FEE0
E6E0
E6E0
E6E0
E6E0
FEE0
F8E0
ENDCHAR
STARTCHAR 04F9
ENCODING 1273
SWIDTH 609 0
DWIDTH 11 0
BBX 11 14 0 0
BITMAP
1B00
1B00
0000
0000
E0E0
E0E0
E0E0
E0E0
FCE0
FEE0
EEE0
EEE0
FEE0
FCE0
ENDCHAR
STARTCHAR 0510
ENCODING 1296
SWIDTH 609 0
DWIDTH 11 0
BBX 9 13 1 0
BITMAP
3F00
7F00
E100
E000
6000
3C00
7C00
E000
E000
E000
E080
7F80
3F00
ENDCHAR
STARTCHAR 0511
ENCODING 1297
SWIDTH 609 0
DWIDTH 11 0
BBX 8 10 1 0
BITMAP
3F
7F
61
60
3C
7C
E0
E1
7F
3F
ENDCHAR
STARTCHAR 051A
ENCODING 1306
SWIDTH 609 0
DWIDTH 11 0
BBX 10 16 1 -3
BITMAP
3E00
7F00
6700
E380
E380
E380
E380
E380
E380
E380
E700
7F00
3E00
0700
0380
01C0
ENDCHAR
STARTCHAR 051B
ENCODING 1307
SWIDTH 609 0
DWIDTH 11 0
BBX 9 14 1 -4
BITMAP
3B80
7F80
E780
E380
C380
C380
E380
E780
7F80
3B80
0380
0380
0380
0380
ENDCHAR
STARTCHAR 051C
ENCODING 1308
SWIDTH 609 0
DWIDTH 11 0
BBX 11 13 0 0
BITMAP
C060
C0E0
E0E0
EEC0
6EC0
6EC0
6AC0
6AC0
7BC0
7BC0
7BC0
71C0
3180
ENDCHAR
STARTCHAR 051D
ENCODING 1309
SWIDTH 609 0
DWIDTH 11 0
BBX 11 10 0 0
BITMAP
C060
C0E0
E0C0
6EC0
6EC0
6AC0
6AC0
7AC0
3B80
3180
ENDCHAR
STARTCHAR 0531
ENCODING 1329
SWIDTH 609 0
DWIDTH 11 0
BBX 9 13 1 0
BITMAP
C380
C380
C380
C380
C380
C380
C380
C380
C780
CF80
EF00
FF80
3F00
ENDCHAR
STARTCHAR 0532
ENCODING 1330
SWIDTH 609 0
DWIDTH 11 0
BBX 9 13 1 0
BITMAP
3E00
7F00
E380
E380
C380
C000
C000
FF80
FF80
C000
C000
C000
C000
ENDCHAR
STARTCHAR 0533
ENCODING 1331
SWIDTH 609 0
DWIDTH 11 0
BBX 11 13 0 0
BITMAP
3E00
7F00
7780
E380
E180
E180
E180
7180
7FE0
3FE0
0180
0180
0180
ENDCHAR
STARTCHAR 0534
ENCODING 1332
SWIDTH 609 0
DWIDTH 11 0
BBX 11 13 0 0
BITMAP
3E00
7F80
7380
E180
E180
0180
0180
01E0
01E0
0180
0180
0180
0180
ENDCHAR
STARTCHAR 0535
ENCODING 1333
SWIDTH 609 0
DWIDTH 11 0
BBX 9 13 1 0
BITMAP
C000
C000
C000
FF80
FF80
C000
C000
C380
C380
E380
F700
7F00
3E00
ENDCHAR
STARTCHAR 0536
ENCODING 1334
SWIDTH 609 0
DWIDTH 11 0
BBX 9 13 1 0
BITMAP
3E00
7F00
E380
C380
C380
0180
0380
0380
0300
0700
EE00
FF80
FF80
ENDCHAR
STARTCHAR 0537
ENCODING 1335
SWIDTH 609 0
DWIDTH 11 0
BBX 9 13 1 0
BITMAP
E000
E000
E000
FF80
FF80
E000
E000
E000
E000
E000
E000
FF00
FF00
ENDCHAR
STARTCHAR 0538
ENCODING 1336
SWIDTH 609 0
DWIDTH 11 0
BBX 9 13 1 0
BITMAP
3E00
7F00
E380
E380
C380
C000
C000
C000
C000
C000
C000
FF80
FF80
ENDCHAR
STARTCHAR 0539
ENCODING 1337
SWIDTH 609 0
DWIDTH 11 0
BBX 11 13 0 0
BITMAP
3F00
7F80
6180
E1C0
E1C0
E7E0
EFE0
EDC0
F9C0
F9C0
EDC0
EF80
E700
ENDCHAR
STARTCHAR 053A
ENCODING 1338
SWIDTH 609 0
DWIDTH 11 0
BBX 11 13 0 0
BITMAP
0180
0180
0180
3FE0
7FE0
7180
E180
E180
E180
E380
7780
7F00
3E00
ENDCHAR
STARTCHAR 053B
ENCODING 1339
SWIDTH 609 0
DWIDTH 11 0
BBX 9 13 1 0
BITMAP
E000
E000
E000
FE00
FF00
E380
E380
E380
E380
E000
E000
E000
E000
ENDCHAR
STARTCHAR 053C
ENCODING 1340
SWIDTH 609 0
DWIDTH 11 0
BBX 9 13 1 0
BITMAP
E000
E000
E000
E000
E000
E000
E000
E000
E000
E000
E000
FF80
FF80
ENDCHAR
STARTCHAR 053D
ENCODING 1341
SWIDTH 609 0
DWIDTH 11 0
BBX 9 13 1 0
BITMAP
C000
C000
C000
F980
F980
D980
D980
D980
D980
D980
D980
DF80
CF00
ENDCHAR
STARTCHAR 053E
ENCODING 1342
SWIDTH 609 0
DWIDTH 11 0
BBX 11 13 0 0
BITMAP
C7C0
CFC0
FE20
FF80
71C0
71C0
70C0
60E0
60E0
70C0
71C0
3F80
1F00
ENDCHAR
STARTCHAR 053F
ENCODING 1343
SWIDTH 609 0
DWIDTH 11 0
BBX 9 13 1 0
BITMAP
E000
E000
E000
E380
E380
E380
E380
F780
7F80
3F80
0380
0380
0380
ENDCHAR
STARTCHAR 0540
ENCODING 1344
SWIDTH 609 0
DWIDTH 11 0
BBX 9 14 1 -1
BITMAP
0E00
0700
0380
0780
1F00
3C00
7000
E000
E000
FC00
7F00
0F80
0380
0080
ENDCHAR
STARTCHAR 0541
ENCODING 1345
SWIDTH 609 0
DWIDTH 11 0
BBX 9 13 1 0
BITMAP
3E00
7F00
E380
C380
C380
0380
0380
7B80
FF00
CF00
CF00
FF80
7900
ENDCHAR
STARTCHAR 0542
ENCODING 1346
SWIDTH 609 0
DWIDTH 11 0
BBX 11 13 0 0
BITMAP
3E00
7F00
7380
E180
E180
0180
0180
0180
0180
0180
0180
01E0
01E0
ENDCHAR
STARTCHAR 0543
ENCODING 1347
SWIDTH 609 0
DWIDTH 11 0
BBX 9 13 1 0
BITMAP
E180
7780
7F00
3C00
3C00
3C00
7C00
6E00
E700
C700
C380
FF80
FF80
ENDCHAR
STARTCHAR 0544
ENCODING 1348
SWIDTH 609 0
DWIDTH 11 0
BBX 11 13 0 0
BITMAP
E1E0
E1E0
E180
E180
E180
E180
E180
E180
E180
E180
7380
7F00
3E00
ENDCHAR
STARTCHAR 0545
ENCODING 1349
SWIDTH 609 0
DWIDTH 11 0
BBX 10 13 0 0
BITMAP
1F00
3F80
39C0
01C0
01C0
FF80
FFC0
01C0
00C0
70C0
71C0
3FC0
1F00
ENDCHAR
STARTCHAR 0546
ENCODING 1350
SWIDTH 609 0
DWIDTH 11 0
BBX 11 13 0 0
BITMAP
F000
F000
3000
3000
3000
3000
3000
30E0
30E0
30C0
39C0
3FC0
0F80
ENDCHAR
STARTCHAR 0547
ENCODING 1351
SWIDTH 609 0
DWIDTH 11 0
BBX 9 13 1 0
BITMAP
F000
FE00
1F00
7F00
E100
E000
C000
C000
C180
E380
E380
7F00
3E00
ENDCHAR
STARTCHAR 0548
ENCODING 1352
SWIDTH 609 0
DWIDTH 11 0
BBX 9 13 1 0
BITMAP
3E00
7F00
E380
E380
E380
E380
E380
E380
E380
E380
E380
E380
E380
ENDCHAR
STARTCHAR 0549
ENCODING 1353
SWIDTH 609 0
DWIDTH 11 0
BBX 9 13 1 0
BITMAP
3E00
7F00
E380
C380
C380
0380
0380
0380
C700
FE00
7E00
1F00
0700
ENDCHAR
STARTCHAR 054A
ENCODING 1354
SWIDTH 609 0
DWIDTH 11 0
BBX 10 13 0 0
BITMAP
1F00
3F80
6EC0
6EC0
EEC0
EEC0
0EC0
0EC0
0EC0
00C0
00C0
00C0
00C0
ENDCHAR
STARTCHAR 054B
ENCODING 1355
SWIDTH 609 0
DWIDTH 11 0
BBX 9 13 1 0
BITMAP
3E00
7F00
E380
C380
C180
E180
FB80
3F80
0F00
0F00
EE00
FF80
FF80
ENDCHAR
STARTCHAR 054C
ENCODING 1356
SWIDTH 609 0
DWIDTH 11 0
BBX 11 13 0 0
BITMAP
3E00
7F80
7380
E180
E180
E180
E180
E1E0
E1E0
E180
E180
E180
E180
ENDCHAR
STARTCHAR 054D
ENCODING 1357
SWIDTH 609 0
DWIDTH 11 0
BBX 9 13 1 0
BITMAP
E380
E380
E380
E380
E380
E380
E380
E380
E380
E380
F780
7F00
3E00
ENDCHAR
STARTCHAR 054E
ENCODING 1358
SWIDTH 609 0
DWIDTH 11 0
BBX 11 13 0 0
BITMAP
0180
0180
0180
0180
E180
E180
E180
7380
7F80
3F80
0180
01E0
01E0
ENDCHAR
STARTCHAR 054F
ENCODING 1359
SWIDTH 609 0
DWIDTH 11 0
BBX 9 13 1 0
BITMAP
3E00
7F00
E380
E000
F000
7C00
3F00
0F80
0380
E380
E380
7F00
3E00
ENDCHAR
STARTCHAR 0550
ENCODING 1360
SWIDTH 609 0
DWIDTH 11 0
BBX 9 13 1 0
BITMAP
3E00
7F00
E380
E380
E380
E000
E000
E000
E000
E000
E000
E000
E000
ENDCHAR
STARTCHAR 0551
ENCODING 1361
SWIDTH 609 0
DWIDTH 11 0
BBX 10 13 0 0
BITMAP
1F00
3F80
31C0
31C0
39C0
FF80
FFC0
01C0
00C0
70C0
79C0
3FC0
1F00
ENDCHAR
STARTCHAR 0552
ENCODING 1362
SWIDTH 609 0
DWIDTH 11 0
BBX 9 13 1 0
BITMAP
E000
E000
E000
FF80
FF80
E000
E000
E000
E000
E000
E000
E000
E000
ENDCHAR
STARTCHAR 0553
ENCODING 1363
SWIDTH 609 0
DWIDTH 11 0
BBX 11 13 0 0
BITMAP
0E00
3F80
7FC0
6EC0
EEC0
CEE0
CEE0
EEE0
EEC0
6EC0
7FC0
3F80
0E00
ENDCHAR
STARTCHAR 0554
ENCODING 1364
SWIDTH 609 0
DWIDTH 11 0
BBX 10 13 0 0
BITMAP
0F00
3FC0
39C0
30C0
30C0
39C0
3FC0
3F80
3000
3000
FFC0
FFC0
3000
ENDCHAR
STARTCHAR 0555
ENCODING 1365
SWIDTH 609 0
DWIDTH 11 0
BBX 9 13 1 0
BITMAP
3E00
7F00
6700
E380
E380
E380
E380
E380
E380
E380
6700
7F00
3E00
ENDCHAR
STARTCHAR 0556
ENCODING 1366
SWIDTH 609 0
DWIDTH 11 0
BBX 11 13 0 0
BITMAP
3E00
7E00
6E00
7F80
3FC0
0EC0
0EE0
0EE0
CEE0
EEC0
6EC0
7FC0
3F00
ENDCHAR
STARTCHAR 0559
ENCODING 1369
SWIDTH 609 0
DWIDTH 11 0
BBX 3 5 4 9
BITMAP
60
C0
C0
C0
60
ENDCHAR
STARTCHAR 055A
ENCODING 1370
SWIDTH 609 0
DWIDTH 11 0
BBX 3 6 4 7
BITMAP
E0
E0
E0
E0
C0
C0
ENDCHAR
STARTCHAR 055B
ENCODING 1371
SWIDTH 609 0
DWIDTH 11 0
BBX 6 3 2 11
BITMAP
3C
38
F0
ENDCHAR
STARTCHAR 055C
ENCODING 1372
SWIDTH 609 0
DWIDTH 11 0
BBX 9 5 1 11
BITMAP
0380
0F00
7F00
7C00
E000
ENDCHAR
STARTCHAR 055D
ENCODING 1373
SWIDTH 609 0
DWIDTH 11 0
BBX 6 3 2 11
BITMAP
F0
38
1C
ENDCHAR
STARTCHAR 055E
ENCODING 1374
SWIDTH 609 0
DWIDTH 11 0
BBX 9 6 1 11
BITMAP
1F00
7F80
6180
C980
8F80
0700
ENDCHAR
STARTCHAR 055F
ENCODING 1375
SWIDTH 609 0
DWIDTH 11 0
BBX 7 2 2 11
BITMAP
80
FE
ENDCHAR
STARTCHAR 0561
ENCODING 1377
SWIDTH 609 0
DWIDTH 11 0
BBX 9 10 1 0
BITMAP
D980
D980
D980
D980
D980
D980
D980
DD80
FF80
EF80
ENDCHAR
STARTCHAR 0562
ENCODING 1378
SWIDTH 609 0
DWIDTH 11 0
BBX 9 14 1 -4
BITMAP
EE00
FF00
E700
E300
E300
E300
E000
E000
FF80
FF80
E000
E000
E000
E000
ENDCHAR
STARTCHAR 0563
ENCODING 1379
SWIDTH 609 0
DWIDTH 11 0
BBX 9 14 1 -4
BITMAP
7B00
FF00
E700
C300
C300
C300
C300
E700
FF80
7B80
0300
0300
0300
0300
ENDCHAR
STARTCHAR 0564
ENCODING 1380
SWIDTH 609 0
DWIDTH 11 0
BBX 9 14 1 -4
BITMAP
DE00
FE00
E700
E700
C700
C700
C700
C700
C780
C780
0700
0700
0700
0700
ENDCHAR
STARTCHAR 0565
ENCODING 1381
SWIDTH 609 0
DWIDTH 11 0
BBX 9 13 1 0
BITMAP
E000
E000
E000
FF80
FF80
E000
E000
E300
E300
E300
E700
7F00
7B00
ENDCHAR
STARTCHAR 0566
ENCODING 1382
SWIDTH 609 0
DWIDTH 11 0
BBX 9 14 1 -4
BITMAP
7B00
FF00
E700
C300
C300
C300
C300
E700
FF00
7B00
0300
0300
0380
0380
ENDCHAR
STARTCHAR 0567
ENCODING 1383
SWIDTH 609 0
DWIDTH 11 0
BBX 7 13 2 0
BITMAP
C0
C0
C0
FE
FE
C0
C0
C0
C0
C0
C0
FE
FE
ENDCHAR
STARTCHAR 0568
ENCODING 1384
SWIDTH 609 0
DWIDTH 11 0
BBX 9 14 1 -4
BITMAP
EE00
FF00
E700
E300
E300
E300
E300
E300
E300
E300
E000
E000
FF80
FF80
ENDCHAR
STARTCHAR 0569
ENCODING 1385
SWIDTH 609 0
DWIDTH 11 0
BBX 10 14 0 -4
BITMAP
EF00
FF80
F180
E1C0
E1C0
E7C0
E9C0
F980
E980
EF00
E000
E000
E000
E000
ENDCHAR
STARTCHAR 056A
ENCODING 1386
SWIDTH 609 0
DWIDTH 11 0
BBX 9 13 1 0
BITMAP
0300
0300
0300
3F80
7F80
E300
C300
C300
C300
C300
E700
7E00
3C00
ENDCHAR
STARTCHAR 056B
ENCODING 1387
SWIDTH 609 0
DWIDTH 11 0
BBX 8 17 1 -4
BITMAP
E0
E0
E0
EE
FF
F3
E3
E3
E3
E3
E3
E3
E3
E0
E0
E0
E0
ENDCHAR
STARTCHAR 056C
ENCODING 1388
SWIDTH 609 0
DWIDTH 11 0
BBX 5 14 3 -4
BITMAP
C0
C0
C0
C0
C0
C0
C0
C0
C0
C0
C0
C0
F8
F8
ENDCHAR
STARTCHAR 056D
ENCODING 1389
SWIDTH 609 0
DWIDTH 11 0
BBX 9 17 1 -4
BITMAP
C000
C000
C000
F980
F980
D980
D980
D980
D980
D980
DD80
CF80
CF80
C000
C000
C000
C000
ENDCHAR
STARTCHAR 056E
ENCODING 1390
SWIDTH 609 0
DWIDTH 11 0
BBX 9 14 1 0
BITMAP
2000
3800
7000
7800
3F80
7F80
E700
E380
C380
C380
E380
E380
7F00
3E00
ENDCHAR
STARTCHAR 056F
ENCODING 1391
SWIDTH 609 0
DWIDTH 11 0
BBX 8 17 1 -4
BITMAP
E0
E0
E0
E3
E3
E3
E3
E3
E3
E3
67
7F
3B
03
03
03
03
ENDCHAR
STARTCHAR 0570
ENCODING 1392
SWIDTH 609 0
DWIDTH 11 0
BBX 8 13 1 0
BITMAP
E0
E0
E0
EE
FF
F3
E3
E3
E3
E3
E3
E3
E3
ENDCHAR
STARTCHAR 0571
ENCODING 1393
SWIDTH 609 0
DWIDTH 11 0
BBX 9 13 1 0
BITMAP
3800
7400
3C00
1C00
3E00
7700
6300
6300
E380
E380
E380
7F80
3B80
ENDCHAR
STARTCHAR 0572
ENCODING 1394
SWIDTH 609 0
DWIDTH 11 0
BBX 9 14 1 -4
BITMAP
DE00
FE00
E700
E700
C700
C700
C700
C700
C700
C700
0700
0700
0780
0780
ENDCHAR
STARTCHAR 0573
ENCODING 1395
SWIDTH 609 0
DWIDTH 11 0
BBX 9 13 1 0
BITMAP
0700
1F00
3800
FC00
FE00
7700
6300
6380
E380
6380
7380
7F80
3B80
ENDCHAR
STARTCHAR 0574
ENCODING 1396
SWIDTH 609 0
DWIDTH 11 0
BBX 10 13 1 0
BITMAP
03C0
03C0
0300
E300
E300
E300
E300
E300
E300
E300
6700
7F00
3B00
ENDCHAR
STARTCHAR 0575
ENCODING 1397
SWIDTH 609 0
DWIDTH 11 0
BBX 7 14 2 -4
BITMAP
0E
0E
0E
0E
0E
0E
0E
0E
0E
0E
0E
0C
FC
F8
ENDCHAR
STARTCHAR 0576
ENCODING 1398
SWIDTH 609 0
DWIDTH 11 0
BBX 9 13 1 0
BITMAP
F000
F000
7000
7380
7380
7380
7380
7380
7380
7380
7380
7F80
3F80
ENDCHAR
STARTCHAR 0577
ENCODING 1399
SWIDTH 609 0
DWIDTH 11 0
BBX 8 14 1 -4
BITMAP
3E
7F
E7
23
03
07
07
0E
1C
38
70
60
FF
7F
ENDCHAR
STARTCHAR 0578
ENCODING 1400
SWIDTH 609 0
DWIDTH 11 0
BBX 8 10 1 0
BITMAP
EE
FF
E3
E3
E3
E3
E3
E3
E3
E3
ENDCHAR
STARTCHAR 0579
ENCODING 1401
SWIDTH 609 0
DWIDTH 11 0
BBX 7 14 2 -4
BITMAP
30
78
60
60
7C
1E
38
30
70
60
E0
C0
FE
7E
ENDCHAR
STARTCHAR 057A
ENCODING 1402
SWIDTH 609 0
DWIDTH 11 0
BBX 9 14 1 -4
BITMAP
D980
D980
D980
D980
D980
D980
D980
DD80
FF80
EF80
0180
0180
0180
0180
ENDCHAR
STARTCHAR 057B
ENCODING 1403
SWIDTH 609 0
DWIDTH 11 0
BBX 9 14 1 -4
BITMAP
3E00
7F00
E300
E380
E380
7300
3700
1E00
1C00
3800
7000
6000
7F00
7F00
ENDCHAR
STARTCHAR 057C
ENCODING 1404
SWIDTH 609 0
DWIDTH 11 0
BBX 9 10 1 0
BITMAP
FE00
FF00
E700
E300
E300
E300
E700
E600
EF80
EF80
ENDCHAR
STARTCHAR 057D
ENCODING 1405
SWIDTH 609 0
DWIDTH 11 0
BBX 8 10 1 0
BITMAP
E3
E3
E3
E3
E3
E3
E3
67
7F
3B
ENDCHAR
STARTCHAR 057E
ENCODING 1406
SWIDTH 609 0
DWIDTH 11 0
BBX 9 17 1 -4
BITMAP
0700
0700
0700
C700
C700
C700
C700
C700
C700
C700
E700
FF00
7700
0700
0700
0780
0780
ENDCHAR
STARTCHAR 057F
ENCODING 1407
SWIDTH 609 0
DWIDTH 11 0
BBX 9 10 1 0
BITMAP
DB00
DF80
DD80
D980
D980
D980
D980
D980
F980
E980
ENDCHAR
STARTCHAR 0580
ENCODING 1408
SWIDTH 609 0
DWIDTH 11 0
BBX 8 14 1 -4
BITMAP
EE
FF
E3
E3
E3
E3
E3
E3
E3
E3
E0
E0
E0
E0
ENDCHAR
STARTCHAR 0581
ENCODING 1409
SWIDTH 609 0
DWIDTH 11 0
BBX 9 14 1 -4
BITMAP
3B80
7F80
E380
E380
E380
E380
E380
E780
7F80
3B80
0380
4380
7F00
7E00
ENDCHAR
STARTCHAR 0582
ENCODING 1410
SWIDTH 609 0
DWIDTH 11 0
BBX 7 10 2 0
BITMAP
C0
C0
C0
C0
C0
C0
C0
C0
FE
FE
ENDCHAR
STARTCHAR 0583
ENCODING 1411
SWIDTH 609 0
DWIDTH 11 0
BBX 9 17 1 -4
BITMAP
1800
1800
1800
DB00
DF80
DD80
D980
D980
D980
D980
D980
F980
F980
1800
1800
1800
1800
ENDCHAR
STARTCHAR 0584
ENCODING 1412
SWIDTH 609 0
DWIDTH 11 0
BBX 9 14 1 -4
BITMAP
6F00
7F00
7380
6180
6180
6180
6380
7380
7F00
6F00
6000
FF80
FF80
6000
ENDCHAR
STARTCHAR 0585
ENCODING 1413
SWIDTH 609 0
DWIDTH 11 0
BBX 9 10 1 0
BITMAP
3E00
7F00
E380
E380
C380
C380
E380
E380
7F00
3E00
ENDCHAR
STARTCHAR 0586
ENCODING 1414
SWIDTH 609 0
DWIDTH 11 0
BBX 11 17 0 -4
BITMAP
3E00
7E00
6E00
7F80
7FC0
3FC0
0EC0
0EE0
0EC0
0EC0
6EC0
FFC0
3F80
0E00
0E00
0E00
0E00
ENDCHAR
STARTCHAR 0587
ENCODING 1415
SWIDTH 609 0
DWIDTH 11 0
BBX 10 13 0 0
BITMAP
E000
E000
E000
E300
E300
E300
E300
E300
E300
E300
E700
7FC0
7BC0
ENDCHAR
STARTCHAR 0589
ENCODING 1417
SWIDTH 609 0
DWIDTH 11 0
BBX 3 9 4 0
BITMAP
E0
E0
E0
00
00
00
E0
E0
E0
ENDCHAR
STARTCHAR 058A
ENCODING 1418
SWIDTH 609 0
DWIDTH 11 0
BBX 5 3 3 3
BITMAP
F8
F8
70
ENDCHAR
STARTCHAR 0E3F
ENCODING 3647
SWIDTH 609 0
DWIDTH 11 0
BBX 9 16 1 -2
BITMAP
0800
0800
FF00
FF00
EB80
EB00
FF00
FF00
EB80
EB80
EB80
EB80
FF80
FF00
0800
0800
ENDCHAR
STARTCHAR 10D0
ENCODING 4304
SWIDTH 609 0
DWIDTH 11 0
BBX 9 11 1 0
BITMAP
3800
3800
1E00
0F00
0380
E380
C380
E380
E380
7F00
3E00
ENDCHAR
STARTCHAR 10D1
ENCODING 4305
SWIDTH 609 0
DWIDTH 11 0
BBX 9 14 1 0
BITMAP
6000
7800
3C00
1C00
1C00
7F00
E300
E380
C380
C380
E380
E380
7F00
3E00
ENDCHAR
STARTCHAR 10D2
ENCODING 4306
SWIDTH 609 0
DWIDTH 11 0
BBX 9 14 1 -4
BITMAP
3C00
7E00
E700
4700
4600
3E00
7F00
E780
C380
C180
C180
E380
7F00
3E00
ENDCHAR
STARTCHAR 10D3
ENCODING 4307
SWIDTH 609 0
DWIDTH 11 0
BBX 11 14 0 -4
BITMAP
3F80
7FC0
ECC0
ECE0
ECE0
ECE0
ECE0
6CC0
67C0
6380
3800
7E00
6F00
0380
ENDCHAR
STARTCHAR 10D4
ENCODING 4308
SWIDTH 609 0
DWIDTH 11 0
BBX 9 13 1 -3
BITMAP
3F00
6380
6380
6380
6380
0380
4380
E380
C380
C380
E380
7F00
3E00
ENDCHAR
STARTCHAR 10D5
ENCODING 4309
SWIDTH 609 0
DWIDTH 11 0
BBX 9 14 1 -4
BITMAP
3E00
7F00
E380
E380
E380
4380
0F00
0F00
E380
C380
C380
E380
7F00
3E00
ENDCHAR
STARTCHAR 10D6
ENCODING 4310
SWIDTH 609 0
DWIDTH 11 0
BBX 9 14 1 0
BITMAP
7C00
FE00
E600
E600
FE00
7F00
E380
E380
C380
C380
E380
E380
7F00
3E00
ENDCHAR
STARTCHAR 10D7
ENCODING 4311
SWIDTH 609 0
DWIDTH 11 0
BBX 11 10 0 0
BITMAP
3F80
7FC0
66C0
E6E0
E6E0
E6E0
E4E0
64C0
7CC0
3980
ENDCHAR
STARTCHAR 10D8
ENCODING 4312
SWIDTH 609 0
DWIDTH 11 0
BBX 9 10 1 0
BITMAP
3E00
7F00
E380
E380
C380
C380
E380
E380
6300
7700
ENDCHAR
STARTCHAR 10D9
ENCODING 4313
SWIDTH 609 0
DWIDTH 11 0
BBX 9 14 1 -4
BITMAP
3C00
3F00
0700
0380
0380
0380
0F00
0F00
C380
E380
C380
E380
7F00
3E00
ENDCHAR
STARTCHAR 10DA
ENCODING 4314
SWIDTH 609 0
DWIDTH 11 0
BBX 9 14 1 -4
BITMAP
3E00
7F00
E380
E380
C380
C380
E300
E300
6300
7000
7800
FC00
4E00
0700
ENDCHAR
STARTCHAR 10DB
ENCODING 4315
SWIDTH 609 0
DWIDTH 11 0
BBX 9 14 1 0
BITMAP
7E00
FF00
E380
0380
3F80
7F80
E380
E380
C380
C380
E380
E380
7F00
3E00
ENDCHAR
STARTCHAR 10DC
ENCODING 4316
SWIDTH 609 0
DWIDTH 11 0
BBX 9 14 1 0
BITMAP
7F00
FF00
E000
C000
DE00
FF00
E380
E380
C380
C380
E380
E380
7F00
3E00
ENDCHAR
STARTCHAR 10DD
ENCODING 4317
SWIDTH 609 0
DWIDTH 11 0
BBX 11 10 0 0
BITMAP
3B80
7FC0
6CC0
ECE0
ECE0
ECE0
E0E0
E0C0
60C0
7180
ENDCHAR
STARTCHAR 10DE
ENCODING 4318
SWIDTH 609 0
DWIDTH 11 0
BBX 9 14 1 0
BITMAP
7000
7E00
0F00
0380
0380
1F00
1F00
0380
E380
C380
E380
E380
7F00
3E00
ENDCHAR
STARTCHAR 10DF
ENCODING 4319
SWIDTH 609 0
DWIDTH 11 0
BBX 9 14 1 -4
BITMAP
0380
FF80
F980
7980
3980
1980
1980
F980
E180
0180
C180
E380
FF00
3E00
ENDCHAR
STARTCHAR 10E0
ENCODING 4320
SWIDTH 609 0
DWIDTH 11 0
BBX 11 15 0 0
BITMAP
0100
0700
1E00
3800
3000
7B80
7FC0
E6C0
E6E0
E6E0
E6E0
E8E0
60C0
60C0
71C0
ENDCHAR
STARTCHAR 10E1
ENCODING 4321
SWIDTH 609 0
DWIDTH 11 0
BBX 9 14 1 0
BITMAP
C000
C000
C200
C600
CC00
CC00
CF00
C380
C380
C380
E380
E380
7F00
3E00
ENDCHAR
STARTCHAR 10E2
ENCODING 4322
SWIDTH 609 0
DWIDTH 11 0
BBX 11 16 0 -4
BITMAP
0C00
0400
0400
1F00
3F80
75C0
64C0
E4E0
E4E0
E0E0
E0E0
E0E0
60C0
71C0
3F80
1F00
ENDCHAR
STARTCHAR 10E3
ENCODING 4323
SWIDTH 609 0
DWIDTH 11 0
BBX 10 14 0 -4
BITMAP
9B80
FFC0
6DC0
0DC0
0DC0
0DC0
01C0
21C0
31C0
71C0
71C0
71C0
3F80
1F00
ENDCHAR
STARTCHAR 10E4
ENCODING 4324
SWIDTH 609 0
DWIDTH 11 0
BBX 11 14 0 -4
BITMAP
3F80
7FC0
E6C0
E6E0
E6E0
E6E0
E6C0
6780
7DC0
38E0
00E0
30E0
3FC0
1F80
ENDCHAR
STARTCHAR 10E5
ENCODING 4325
SWIDTH 609 0
DWIDTH 11 0
BBX 9 18 1 -4
BITMAP
0180
0180
0180
0180
3D80
7F80
6380
6380
6380
4180
0180
4180
E180
E180
E380
E380
7F00
3E00
ENDCHAR
STARTCHAR 10E6
ENCODING 4326
SWIDTH 609 0
DWIDTH 11 0
BBX 11 14 0 -4
BITMAP
3B80
7FC0
6CC0
ECE0
ECE0
ECE0
E0E0
60C0
71C0
3800
3C00
3F00
2300
0380
ENDCHAR
STARTCHAR 10E7
ENCODING 4327
SWIDTH 609 0
DWIDTH 11 0
BBX 9 14 1 -4
BITMAP
3B80
7380
E380
E380
E380
E380
E380
7F80
3F80
0380
E380
E380
7F00
3E00
ENDCHAR
STARTCHAR 10E8
ENCODING 4328
SWIDTH 609 0
DWIDTH 11 0
BBX 10 14 0 0
BITMAP
7780
FFC0
EDC0
01C0
1FC0
3FC0
71C0
71C0
71C0
71C0
71C0
71C0
3F80
1F00
ENDCHAR
STARTCHAR 10E9
ENCODING 4329
SWIDTH 609 0
DWIDTH 11 0
BBX 9 14 1 0
BITMAP
7C00
FE00
E700
C600
DE00
FF00
E380
E380
C380
C380
C380
C300
C700
CE00
ENDCHAR
STARTCHAR 10EA
ENCODING 4330
SWIDTH 609 0
DWIDTH 11 0
BBX 9 15 1 -4
BITMAP
4000
6E00
EE00
E780
C180
C180
CF00
CF00
C180
C180
C180
E180
E380
7F00
3E00
ENDCHAR
STARTCHAR 10EB
ENCODING 4331
SWIDTH 609 0
DWIDTH 11 0
BBX 9 14 1 0
BITMAP
0180
0180
0180
0180
3D80
7F80
E380
E380
E380
E380
E380
E380
7F00
3E00
ENDCHAR
STARTCHAR 10EC
ENCODING 4332
SWIDTH 609 0
DWIDTH 11 0
BBX 10 14 1 0
BITMAP
7380
FFC0
CDC0
C000
DE00
FF00
E380
E380
C380
C380
E380
E380
7F00
3E00
ENDCHAR
STARTCHAR 10ED
ENCODING 4333
SWIDTH 609 0
DWIDTH 11 0
BBX 9 18 1 -4
BITMAP
0C00
0C00
0C00
0C00
3C00
7E00
E780
C780
E600
7C00
3C00
0F00
4780
E380
C380
E380
FF00
3E00
ENDCHAR
STARTCHAR 10EE
ENCODING 4334
SWIDTH 609 0
DWIDTH 11 0
BBX 9 14 1 0
BITMAP
C000
C000
C000
C000
DE00
FF00
E380
E380
C380
C380
E380
E380
7F00
3E00
ENDCHAR
STARTCHAR 10EF
ENCODING 4335
SWIDTH 609 0
DWIDTH 11 0
BBX 9 16 1 -4
BITMAP
1C00
1800
9800
F800
FF80
1F80
1980
1C00
0E00
4700
E380
C380
E380
E380
7F00
3E00
ENDCHAR
STARTCHAR 10F0
ENCODING 4336
SWIDTH 609 0
DWIDTH 11 0
BBX 9 14 1 0
BITMAP
3000
3F00
0F80
0380
1F00
1F80
0380
1F80
DF00
C380
E380
E380
7F00
3E00
ENDCHAR
STARTCHAR 10F1
ENCODING 4337
SWIDTH 609 0
DWIDTH 11 0
BBX 9 18 1 -4
BITMAP
0C00
0F00
0780
C380
EF80
EF80
6380
6380
EF00
EF00
E380
C380
CF00
CF00
E180
E380
7F80
3F00
ENDCHAR
STARTCHAR 10F2
ENCODING 4338
SWIDTH 609 0
DWIDTH 11 0
BBX 9 13 1 -3
BITMAP
3E00
7F00
E380
E380
C380
E380
E380
F700
7F00
3E00
FF80
E380
8080
ENDCHAR
STARTCHAR 10F3
ENCODING 4339
SWIDTH 609 0
DWIDTH 11 0
BBX 9 13 1 -3
BITMAP
FF80
FF80
E380
E300
0700
3E00
3F00
0380
E380
C380
E380
FF00
3E00
ENDCHAR
STARTCHAR 10F4
ENCODING 4340
SWIDTH 609 0
DWIDTH 11 0
BBX 9 18 1 -4
BITMAP
3800
F800
E000
C080
E180
FF80
3F80
0380
0380
0700
3E00
3F00
0380
0380
E380
E380
7F00
3E00
ENDCHAR
STARTCHAR 10F5
ENCODING 4341
SWIDTH 609 0
DWIDTH 11 0
BBX 9 14 1 0
BITMAP
7E00
FF00
E300
E300
FF80
3F80
0300
3F80
7F80
E300
E300
E300
FF00
3E00
ENDCHAR
STARTCHAR 10F6
ENCODING 4342
SWIDTH 609 0
DWIDTH 11 0
BBX 11 14 0 -4
BITMAP
3B80
7FC0
E4E0
E4E0
E4E0
E4E0
E4E0
E6E0
77C0
3780
0E00
0E00
1C00
1800
ENDCHAR
STARTCHAR 10F7
ENCODING 4343
SWIDTH 609 0
DWIDTH 11 0
BBX 9 14 1 -4
BITMAP
3C00
7E00
6700
6700
0E00
3E00
7800
E100
E380
C180
C180
E380
FF00
3E00
ENDCHAR
STARTCHAR 10F8
ENCODING 4344
SWIDTH 609 0
DWIDTH 11 0
BBX 9 14 1 -4
BITMAP
CF00
C700
C380
C380
C380
C380
E380
FF00
FE00
C000
E380
E380
7F00
3E00
ENDCHAR
STARTCHAR 10F9
ENCODING 4345
SWIDTH 609 0
DWIDTH 11 0
BBX 9 13 1 -3
BITMAP
7F00
E380
C180
C180
E380
FF80
7F00
3C00
7000
7300
7300
7F00
3E00
ENDCHAR
STARTCHAR 10FA
ENCODING 4346
SWIDTH 609 0
DWIDTH 11 0
BBX 9 12 1 -2
BITMAP
3E00
7F00
E380
E380
E380
E300
6300
7700
3800
7E00
E400
0400
ENDCHAR
STARTCHAR 10FB
ENCODING 4347
SWIDTH 609 0
DWIDTH 11 0
BBX 6 9 2 0
BITMAP
E0
E0
00
0C
0C
00
00
E0
E0
ENDCHAR
STARTCHAR 10FC
ENCODING 4348
SWIDTH 609 0
DWIDTH 11 0
BBX 5 8 3 6
BITMAP
70
C0
F0
D0
D0
D8
50
70
ENDCHAR
STARTCHAR 1E80
ENCODING 7808
SWIDTH 609 0
DWIDTH 11 0
BBX 11 17 0 0
BITMAP
3800
0C00
0600
0000
C060
C0E0
E0E0
EEC0
6EC0
6EC0
6AC0
6AC0
7BC0
7BC0
7BC0
71C0
3180
ENDCHAR
STARTCHAR 1E81
ENCODING 7809
SWIDTH 609 0
DWIDTH 11 0
BBX 11 15 0 0
BITMAP
7000
3800
1800
0C00
0000
C060
C0E0
E0C0
6EC0
6EC0
6AC0
6AC0
7AC0
3B80
3180
ENDCHAR
STARTCHAR 1E82
ENCODING 7810
SWIDTH 609 0
DWIDTH 11 0
BBX 11 17 0 0
BITMAP
0300
0600
0C00
0000
C060
C0E0
E0E0
EEC0
6EC0
6EC0
6AC0
6AC0
7BC0
7BC0
7BC0
71C0
3180
ENDCHAR
STARTCHAR 1E83
ENCODING 7811
SWIDTH 609 0
DWIDTH 11 0
BBX 11 15 0 0
BITMAP
01C0
0380
0300
0600
0000
C060
C0E0
E0C0
6EC0
6EC0
6AC0
6AC0
7AC0
3B80
3180
ENDCHAR
STARTCHAR 1E84
ENCODING 7812
SWIDTH 609 0
DWIDTH 11 0
BBX 11 16 0 0
BITMAP
1B00
1B00
0000
C060
C0E0
E0E0
EEC0
6EC0
6EC0
6AC0
6AC0
7BC0
7BC0
7BC0
71C0
3180
ENDCHAR
STARTCHAR 1E85
ENCODING 7813
SWIDTH 609 0
DWIDTH 11 0
BBX 11 14 0 0
BITMAP
1B00
1B00
0000
0000
C060
C0E0
E0C0
6EC0
6EC0
6AC0
6AC0
7AC0
3B80
3180
ENDCHAR
STARTCHAR 1EBC
ENCODING 7868
SWIDTH 609 0
DWIDTH 11 0
BBX 9 17 1 0
BITMAP
3100
2B00
2600
0000
FF80
FF80
E000
E000
E000
FF00
FF00
E000
E000
E000
E000
FF80
FF80
ENDCHAR
STARTCHAR 1EBD
ENCODING 7869
SWIDTH 609 0
DWIDTH 11 0
BBX 9 14 1 0
BITMAP
3B00
6E00
0000
0000
3E00
7F00
E380
C380
FF80
FF80
C000
E080
7F80
3F00
ENDCHAR
STARTCHAR 1EF2
ENCODING 7922
SWIDTH 609 0
DWIDTH 11 0
BBX 11 17 0 0
BITMAP
3800
0C00
0600
0000
E0E0
71C0
71C0
3B80
3B00
1F00
1E00
0E00
0E00
0E00
0E00
0E00
0E00
ENDCHAR
STARTCHAR 1EF3
ENCODING 7923
SWIDTH 609 0
DWIDTH 11 0
BBX 9 18 1 -4
BITMAP
E000
3000
1800
0000
C180
E380
6380
7300
7700
3600
3E00
3E00
1C00
1C00
1C00
1800
F800
F000
ENDCHAR
STARTCHAR 1EF8
ENCODING 7928
SWIDTH 609 0
DWIDTH 11 0
BBX 11 17 0 0
BITMAP
1980
1580
1300
0000
E0E0
71C0
71C0
3B80
3B00
1F00
1E00
0E00
0E00
0E00
0E00
0E00
0E00
ENDCHAR
STARTCHAR 1EF9
ENCODING 7929
SWIDTH 609 0
DWIDTH 11 0
BBX 9 18 1 -4
BITMAP
3100
2B00
2600
0000
C180
E380
6380
7300
7700
3600
3E00
3E00
1C00
1C00
1C00
1800
F800
F000
ENDCHAR
STARTCHAR 2000
ENCODING 8192
SWIDTH 609 0
DWIDTH 11 0
BBX 0 0 0 0
BITMAP
ENDCHAR
STARTCHAR 2001
ENCODING 8193
SWIDTH 609 0
DWIDTH 11 0
BBX 0 0 0 0
BITMAP
ENDCHAR
STARTCHAR 2002
ENCODING 8194
SWIDTH 609 0
DWIDTH 11 0
BBX 0 0 0 0
BITMAP
ENDCHAR
STARTCHAR 2003
ENCODING 8195
SWIDTH 609 0
DWIDTH 11 0
BBX 0 0 0 0
BITMAP
ENDCHAR
STARTCHAR 2004
ENCODING 8196
SWIDTH 609 0
DWIDTH 11 0
BBX 0 0 0 0
BITMAP
ENDCHAR
STARTCHAR 2005
ENCODING 8197
SWIDTH 609 0
DWIDTH 11 0
BBX 0 0 0 0
BITMAP
ENDCHAR
STARTCHAR 2006
ENCODING 8198
SWIDTH 609 0
DWIDTH 11 0
BBX 0 0 0 0
BITMAP
ENDCHAR
STARTCHAR 2007
ENCODING 8199
SWIDTH 609 0
DWIDTH 11 0
BBX 0 0 0 0
BITMAP
ENDCHAR
STARTCHAR 2008
ENCODING 8200
SWIDTH 609 0
DWIDTH 11 0
BBX 0 0 0 0
BITMAP
ENDCHAR
STARTCHAR 2009
ENCODING 8201
SWIDTH 609 0
DWIDTH 11 0
BBX 0 0 0 0
BITMAP
ENDCHAR
STARTCHAR 200A
ENCODING 8202
SWIDTH 609 0
DWIDTH 11 0
BBX 0 0 0 0
BITMAP
ENDCHAR
STARTCHAR 2010
ENCODING 8208
SWIDTH 609 0
DWIDTH 11 0
BBX 5 2 3 4
BITMAP
F8
F8
ENDCHAR
STARTCHAR 2011
ENCODING 8209
SWIDTH 609 0
DWIDTH 11 0
BBX 5 2 3 4
BITMAP
F8
F8
ENDCHAR
STARTCHAR 2012
ENCODING 8210
SWIDTH 609 0
DWIDTH 11 0
BBX 9 2 1 4
BITMAP
FF80
FF80
ENDCHAR
STARTCHAR 2013
ENCODING 8211
SWIDTH 609 0
DWIDTH 11 0
BBX 5 2 3 4
BITMAP
F8
F8
ENDCHAR
STARTCHAR 2014
ENCODING 8212
SWIDTH 609 0
DWIDTH 11 0
BBX 11 2 0 4
BITMAP
FFE0
FFE0
ENDCHAR
STARTCHAR 2015
ENCODING 8213
SWIDTH 609 0
DWIDTH 11 0
BBX 11 2 0 4
BITMAP
FFE0
FFE0
ENDCHAR
STARTCHAR 2016
ENCODING 8214
SWIDTH 609 0
DWIDTH 11 0
BBX 7 18 2 -4
BITMAP
C6
C6
C6
C6
C6
C6
C6
C6
C6
C6
C6
C6
C6
C6
C6
C6
C6
C6
ENDCHAR
STARTCHAR 2017
ENCODING 8215
SWIDTH 609 0
DWIDTH 11 0
BBX 11 4 0 -4
BITMAP
FFE0
FFE0
FFE0
FFE0
ENDCHAR
STARTCHAR 2018
ENCODING 8216
SWIDTH 609 0
DWIDTH 11 0
BBX 3 6 4 8
BITMAP
60
60
E0
E0
E0
E0
ENDCHAR
STARTCHAR 2019
ENCODING 8217
SWIDTH 609 0
DWIDTH 11 0
BBX 3 6 4 8
BITMAP
60
60
60
E0
C0
C0
ENDCHAR
STARTCHAR 201A
ENCODING 8218
SWIDTH 609 0
DWIDTH 11 0
BBX 4 6 3 -2
BITMAP
70
70
70
60
60
C0
ENDCHAR
STARTCHAR 201B
ENCODING 8219
SWIDTH 609 0
DWIDTH 11 0
BBX 3 6 4 8
BITMAP
E0
E0
E0
E0
60
60
ENDCHAR
STARTCHAR 201C
ENCODING 8220
SWIDTH 609 0
DWIDTH 11 0
BBX 9 6 1 8
BITMAP
3380
7300
6700
E700
E700
E700
ENDCHAR
STARTCHAR 201D
ENCODING 8221
SWIDTH 609 0
DWIDTH 11 0
BBX 9 6 1 8
BITMAP
7380
7380
7380
6300
6700
C600
ENDCHAR
STARTCHAR 201E
ENCODING 8222
SWIDTH 609 0
DWIDTH 11 0
BBX 9 6 1 -2
BITMAP
7380
7380
7380
6300
6700
C600
ENDCHAR
STARTCHAR 201F
ENCODING 8223
SWIDTH 609 0
DWIDTH 11 0
BBX 9 6 1 8
BITMAP
E700
E700
E700
6700
7300
3380
ENDCHAR
STARTCHAR 2020
ENCODING 8224
SWIDTH 609 0
DWIDTH 11 0
BBX 8 15 1 -2
BITMAP
1C
1C
1C
FF
FF
1C
1C
1C
1C
1C
1C
1C
1C
1C
1C
ENDCHAR
STARTCHAR 2021
ENCODING 8225
SWIDTH 609 0
DWIDTH 11 0
BBX 8 15 1 -2
BITMAP
1C
1C
1C
FF
FF
1C
1C
1C
1C
1C
FF
FF
1C
1C
1C
ENDCHAR
STARTCHAR 2022
ENCODING 8226
SWIDTH 609 0
DWIDTH 11 0
BBX 7 6 2 4
BITMAP
38
7C
FE
FE
7C
38
ENDCHAR
STARTCHAR 2023
ENCODING 8227
SWIDTH 609 0
DWIDTH 11 0
BBX 7 8 2 3
BITMAP
80
C0
F0
FC
FE
F8
E0
C0
ENDCHAR
STARTCHAR 2024
ENCODING 8228
SWIDTH 609 0
DWIDTH 11 0
BBX 3 3 4 0
BITMAP
E0
E0
E0
ENDCHAR
STARTCHAR 2025
ENCODING 8229
SWIDTH 609 0
DWIDTH 11 0
BBX 7 3 2 0
BITMAP
EE
EE
EE
ENDCHAR
STARTCHAR 2026
ENCODING 8230
SWIDTH 609 0
DWIDTH 11 0
BBX 9 3 1 0
BITMAP
DD80
DD80
DD80
ENDCHAR
STARTCHAR 2027
ENCODING 8231
SWIDTH 609 0
DWIDTH 11 0
BBX 3 3 4 5
BITMAP
C0
E0
E0
ENDCHAR
STARTCHAR 202F
ENCODING 8239
SWIDTH 609 0
DWIDTH 11 0
BBX 0 0 0 0
BITMAP
ENDCHAR
STARTCHAR 2030
ENCODING 8240
SWIDTH 609 0
DWIDTH 11 0
BBX 11 12 0 0
BITMAP
7000
D800
D800
71C0
0600
3800
C000
71C0
4B60
CA60
4B60
71C0
ENDCHAR
STARTCHAR 2031
ENCODING 8241
SWIDTH 609 0
DWIDTH 11 0
BBX 11 12 0 0
BITMAP
7000
D800
D800
71C0
0600
3800
C000
7FC0
DB60
9320
DB60
7FC0
ENDCHAR
STARTCHAR 2032
ENCODING 8242
SWIDTH 609 0
DWIDTH 11 0
BBX 4 3 3 10
BITMAP
30
60
C0
ENDCHAR
STARTCHAR 2033
ENCODING 8243
SWIDTH 609 0
DWIDTH 11 0
BBX 7 3 2 10
BITMAP
7E
6C
D8
ENDCHAR
STARTCHAR 2034
ENCODING 8244
SWIDTH 609 0
DWIDTH 11 0
BBX 11 3 0 10
BITMAP
76E0
6C80
D980
ENDCHAR
STARTCHAR 2035
ENCODING 8245
SWIDTH 609 0
DWIDTH 11 0
BBX 4 3 3 10
BITMAP
E0
30
10
ENDCHAR
STARTCHAR 2036
ENCODING 8246
SWIDTH 609 0
DWIDTH 11 0
BBX 7 3 2 10
BITMAP
DC
6C
36
ENDCHAR
STARTCHAR 2037
ENCODING 8247
SWIDTH 609 0
DWIDTH 11 0
BBX 11 3 0 10
BITMAP
FD80
66C0
3260
ENDCHAR
STARTCHAR 2039
ENCODING 8249
SWIDTH 609 0
DWIDTH 11 0
BBX 4 8 2 1
BITMAP
10
30
60
C0
60
30
10
10
ENDCHAR
STARTCHAR 203A
ENCODING 8250
SWIDTH 609 0
DWIDTH 11 0
BBX 4 6 5 2
BITMAP
C0
E0
30
60
C0
80
ENDCHAR
STARTCHAR 203C
ENCODING 8252
SWIDTH 609 0
DWIDTH 11 0
BBX 9 13 1 0
BITMAP
6300
6300
6300
6300
6300
6300
6300
6300
6300
0000
6300
E380
6300
ENDCHAR
STARTCHAR 203D
ENCODING 8253
SWIDTH 609 0
DWIDTH 11 0
BBX 7 13 2 0
BITMAP
7C
FE
FE
36
3E
3C
38
30
30
30
30
30
30
ENDCHAR
STARTCHAR 203E
ENCODING 8254
SWIDTH 609 0
DWIDTH 11 0
BBX 11 2 0 12
BITMAP
FFE0
FFE0
ENDCHAR
STARTCHAR 203F
ENCODING 8255
SWIDTH 609 0
DWIDTH 11 0
BBX 12 3 -1 -4
BITMAP
E030
7FF0
1FC0
ENDCHAR
STARTCHAR 2044
ENCODING 8260
SWIDTH 609 0
DWIDTH 11 0
BBX 9 14 1 -1
BITMAP
0180
0300
0300
0600
0600
0C00
0C00
1800
1800
3000
3000
6000
6000
C000
ENDCHAR
STARTCHAR 2045
ENCODING 8261
SWIDTH 609 0
DWIDTH 11 0
BBX 4 17 4 -3
BITMAP
F0
F0
C0
C0
C0
C0
C0
F0
F0
C0
C0
C0
C0
C0
C0
F0
F0
ENDCHAR
STARTCHAR 2046
ENCODING 8262
SWIDTH 609 0
DWIDTH 11 0
BBX 4 17 3 -3
BITMAP
F0
F0
30
30
30
30
30
F0
F0
30
30
30
30
30
30
F0
F0
ENDCHAR
STARTCHAR 2047
ENCODING 8263
SWIDTH 609 0
DWIDTH 11 0
BBX 11 13 0 0
BITMAP
73C0
FBC0
FBE0
9CE0
18C0
31C0
3180
7180
7180
7180
6180
7380
6180
ENDCHAR
STARTCHAR 2048
ENCODING 8264
SWIDTH 609 0
DWIDTH 11 0
BBX 10 13 0 0
BITMAP
7180
F980
F980
9980
1980
3180
7180
7180
7180
7000
6180
71C0
6180
ENDCHAR
STARTCHAR 2049
ENCODING 8265
SWIDTH 609 0
DWIDTH 11 0
BBX 10 13 1 0
BITMAP
E780
E780
E7C0
E9C0
E180
E380
E300
6300
6300
0300
6300
E700
E300
ENDCHAR
STARTCHAR 204B
ENCODING 8267
SWIDTH 609 0
DWIDTH 11 0
BBX 9 15 1 -2
BITMAP
FE00
CF80
CF80
CF80
CF80
CF80
CF00
CC00
CC00
CC00
CC00
CC00
CC00
CC00
CC00
ENDCHAR
STARTCHAR 205F
ENCODING 8287
SWIDTH 609 0
DWIDTH 11 0
BBX 0 0 0 0
BITMAP
ENDCHAR
STARTCHAR 2070
ENCODING 8304
SWIDTH 609 0
DWIDTH 11 0
BBX 6 7 2 10
BITMAP
38
6C
44
D4
44
6C
38
ENDCHAR
STARTCHAR 2074
ENCODING 8308
SWIDTH 609 0
DWIDTH 11 0
BBX 6 7 2 10
BITMAP
18
38
68
C8
FC
08
08
ENDCHAR
STARTCHAR 2075
ENCODING 8309
SWIDTH 609 0
DWIDTH 11 0
BBX 5 7 3 10
BITMAP
F8
80
F0
98
08
98
F0
ENDCHAR
STARTCHAR 2076
ENCODING 8310
SWIDTH 609 0
DWIDTH 11 0
BBX 6 7 3 10
BITMAP
78
C0
F8
D8
8C
D8
78
ENDCHAR
STARTCHAR 2077
ENCODING 8311
SWIDTH 609 0
DWIDTH 11 0
BBX 5 7 3 10
BITMAP
F8
18
10
30
20
60
C0
ENDCHAR
STARTCHAR 2078
ENCODING 8312
SWIDTH 609 0
DWIDTH 11 0
BBX 6 7 2 10
BITMAP
7C
44
38
6C
C4
6C
78
ENDCHAR
STARTCHAR 2079
ENCODING 8313
SWIDTH 609 0
DWIDTH 11 0
BBX 6 7 2 10
BITMAP
78
CC
CC
7C
04
4C
78
ENDCHAR
STARTCHAR 207A
ENCODING 8314
SWIDTH 609 0
DWIDTH 11 0
BBX 6 5 2 6
BITMAP
10
10
FC
10
10
ENDCHAR
STARTCHAR 207B
ENCODING 8315
SWIDTH 609 0
DWIDTH 11 0
BBX 6 1 2 9
BITMAP
FC
ENDCHAR
STARTCHAR 207C
ENCODING 8316
SWIDTH 609 0
DWIDTH 11 0
BBX 5 3 3 8
BITMAP
F8
00
F8
ENDCHAR
STARTCHAR 207D
ENCODING 8317
SWIDTH 609 0
DWIDTH 11 0
BBX 3 9 4 5
BITMAP
60
40
C0
C0
C0
C0
C0
40
60
ENDCHAR
STARTCHAR 207E
ENCODING 8318
SWIDTH 609 0
DWIDTH 11 0
BBX 3 9 4 5
BITMAP
C0
40
60
60
60
60
60
40
C0
ENDCHAR
STARTCHAR 208A
ENCODING 8330
SWIDTH 609 0
DWIDTH 11 0
BBX 6 5 2 0
BITMAP
10
10
FC
10
10
ENDCHAR
STARTCHAR 208B
ENCODING 8331
SWIDTH 609 0
DWIDTH 11 0
BBX 6 1 2 3
BITMAP
FC
ENDCHAR
STARTCHAR 208C
ENCODING 8332
SWIDTH 609 0
DWIDTH 11 0
BBX 5 3 3 2
BITMAP
F8
00
F8
ENDCHAR
STARTCHAR 208D
ENCODING 8333
SWIDTH 609 0
DWIDTH 11 0
BBX 3 9 4 -1
BITMAP
60
40
C0
C0
C0
C0
C0
40
60
ENDCHAR
STARTCHAR 208E
ENCODING 8334
SWIDTH 609 0
DWIDTH 11 0
BBX 3 9 4 -1
BITMAP
C0
40
60
60
60
60
60
40
C0
ENDCHAR
STARTCHAR 20A0
ENCODING 8352
SWIDTH 609 0
DWIDTH 11 0
BBX 11 13 0 0
BITMAP
3800
7C00
E400
C3E0
C3E0
C300
C300
E7C0
7FC0
3F00
0300
03E0
03E0
ENDCHAR
STARTCHAR 20A1
ENCODING 8353
SWIDTH 609 0
DWIDTH 11 0
BBX 9 15 1 -1
BITMAP
0680
1F80
3F80
7580
ED00
EB00
EA00
EA00
FA00
F600
F400
7480
7F80
3F00
2800
ENDCHAR
STARTCHAR 20A2
ENCODING 8354
SWIDTH 609 0
DWIDTH 11 0
BBX 9 13 1 0
BITMAP
1E00
7F00
7100
E000
ED80
CF80
CE00
CC00
EC00
EC80
7F00
7F00
1E00
ENDCHAR
STARTCHAR 20A3
ENCODING 8355
SWIDTH 609 0
DWIDTH 11 0
BBX 10 13 0 0
BITMAP
7FC0
7FC0
7800
7800
7800
7FC0
7FC0
7800
7800
7800
FC00
7800
7800
ENDCHAR
STARTCHAR 20A4
ENCODING 8356
SWIDTH 609 0
DWIDTH 11 0
BBX 9 13 1 0
BITMAP
1F80
3F80
3880
3800
FE00
FE00
3800
FE00
FE00
3800
3800
FF80
FF80
ENDCHAR
STARTCHAR 20A5
ENCODING 8357
SWIDTH 609 0
DWIDTH 11 0
BBX 11 13 0 -1
BITMAP
0100
0100
DDC0
FFC0
EEC0
EEE0
CCE0
CCE0
CCE0
CCE0
CCE0
CCE0
1000
ENDCHAR
STARTCHAR 20A6
ENCODING 8358
SWIDTH 609 0
DWIDTH 11 0
BBX 11 13 0 0
BITMAP
79C0
79C0
79C0
79C0
FFE0
FFE0
7FC0
FFE0
FFE0
77C0
73C0
73C0
73C0
ENDCHAR
STARTCHAR 20A7
ENCODING 8359
SWIDTH 609 0
DWIDTH 11 0
BBX 11 13 0 0
BITMAP
F400
F400
FC00
DFE0
DFE0
DD20
F500
F5C0
C4E0
C460
C760
C7E0
C3C0
ENDCHAR
STARTCHAR 20A8
ENCODING 8360
SWIDTH 609 0
DWIDTH 11 0
BBX 11 13 0 0
BITMAP
F800
F800
CC00
CDC0
CFC0
CE20
FB00
FBC0
D9E0
CC60
CC60
CFE0
C7C0
ENDCHAR
STARTCHAR 20A9
ENCODING 8361
SWIDTH 609 0
DWIDTH 11 0
BBX 11 13 0 0
BITMAP
CC60
CE60
FFE0
4AC0
FFE0
6AC0
6AC0
7AC0
7BC0
7B80
3380
3180
3180
ENDCHAR
STARTCHAR 20AA
ENCODING 8362
SWIDTH 609 0
DWIDTH 11 0
BBX 11 13 0 0
BITMAP
FC60
FE60
C660
C360
C360
DB60
DB60
DB60
D860
D860
CC60
CFE0
C7E0
ENDCHAR
STARTCHAR 20AB
ENCODING 8363
SWIDTH 609 0
DWIDTH 11 0
BBX 10 18 2 -4
BITMAP
0380
0FC0
0FC0
0380
3B80
7F80
E380
E380
E380
E380
E380
E380
7F80
3B80
0000
0000
3F00
3F00
ENDCHAR
STARTCHAR 20AC
ENCODING 8364
SWIDTH 609 0
DWIDTH 11 0
BBX 10 13 0 0
BITMAP
0F80
1FC0
3840
3800
7F00
FF00
3000
7E00
FC00
3800
3840
1FC0
0F80
ENDCHAR
STARTCHAR 20AD
ENCODING 8365
SWIDTH 609 0
DWIDTH 11 0
BBX 11 13 0 0
BITMAP
71C0
7380
7300
7700
7E00
7C00
FF80
7C00
7E00
7700
7780
7380
71E0
ENDCHAR
STARTCHAR 20AE
ENCODING 8366
SWIDTH 609 0
DWIDTH 11 0
BBX 11 13 0 0
BITMAP
FFE0
FFE0
0E00
0E00
0F00
0E00
0F00
1E00
0E00
1E00
0E00
0E00
0E00
ENDCHAR
STARTCHAR 20AF
ENCODING 8367
SWIDTH 609 0
DWIDTH 11 0
BBX 11 17 0 -4
BITMAP
3800
7C00
5400
1600
3200
2200
22C0
22E0
22A0
E7A0
E5A0
FDC0
D9C0
0100
0100
0100
0100
ENDCHAR
STARTCHAR 20B0
ENCODING 8368
SWIDTH 609 0
DWIDTH 11 0
BBX 11 13 0 0
BITMAP
0780
07C0
06C0
0EC0
06C0
36C0
7B80
EFC0
4EE0
00E0
00E0
03C0
0380
ENDCHAR
STARTCHAR 20B1
ENCODING 8369
SWIDTH 609 0
DWIDTH 11 0
BBX 10 13 1 0
BITMAP
FE00
FF00
E380
FFC0
FFC0
E380
FF00
FE00
E000
E000
E000
E000
E000
ENDCHAR
STARTCHAR 20B2
ENCODING 8370
SWIDTH 609 0
DWIDTH 11 0
BBX 10 16 0 -1
BITMAP
0600
0600
0F80
3FC0
7E40
7600
6600
E600
E7C0
E7C0
66C0
76C0
7EC0
3FC0
1F80
0600
ENDCHAR
STARTCHAR 20B3
ENCODING 8371
SWIDTH 609 0
DWIDTH 11 0
BBX 11 13 0 0
BITMAP
0E00
0E00
1F00
1F00
1B00
7FC0
7FC0
3380
7FC0
7FC0
71C0
60C0
E0E0
ENDCHAR
STARTCHAR 20B4
ENCODING 8372
SWIDTH 609 0
DWIDTH 11 0
BBX 11 13 0 0
BITMAP
1F00
3F80
21C0
FFE0
FFE0
1F80
3E00
FFE0
FFE0
7000
70C0
3FC0
1F80
ENDCHAR
STARTCHAR 20B5
ENCODING 8373
SWIDTH 609 0
DWIDTH 11 0
BBX 10 16 0 -2
BITMAP
0300
0300
0FC0
3FC0
7F40
7B40
7300
F300
F300
7300
7B40
7F40
3FC0
0FC0
0300
0300
ENDCHAR
STARTCHAR 20B7
ENCODING 8375
SWIDTH 609 0
DWIDTH 11 0
BBX 11 15 0 -2
BITMAP
07C0
1FE0
1C60
3800
3800
1E00
0F80
03C0
01C0
7DC0
55C0
7F80
FF00
AC00
A800
ENDCHAR
STARTCHAR 20B8
ENCODING 8376
SWIDTH 609 0
DWIDTH 11 0
BBX 9 13 1 0
BITMAP
FF80
FF80
0000
FF80
FF80
1C00
1C00
1C00
1C00
1C00
1C00
1C00
1C00
ENDCHAR
STARTCHAR 20B9
ENCODING 8377
SWIDTH 609 0
DWIDTH 11 0
BBX 9 13 1 0
BITMAP
FF80
FF80
0E00
FF80
FF80
0E00
FC00
F800
1C00
1C00
0E00
0E00
0700
ENDCHAR
STARTCHAR 2116
ENCODING 8470
SWIDTH 609 0
DWIDTH 11 0
BBX 11 13 0 0
BITMAP
C980
C9C0
EB40
EB60
EB60
EB40
E9C0
F980
FBC0
DBC0
D800
D800
D800
ENDCHAR
STARTCHAR 2122
ENCODING 8482
SWIDTH 609 0
DWIDTH 11 0
BBX 10 5 0 8
BITMAP
F6C0
6740
6540
6440
6440
ENDCHAR
STARTCHAR 2126
ENCODING 8486
SWIDTH 609 0
DWIDTH 11 0
BBX 9 13 1 0
BITMAP
3C00
7F00
6700
E380
E380
E380
E380
E380
E380
6300
7600
F780
F780
ENDCHAR
STARTCHAR 2150
ENCODING 8528
SWIDTH 609 0
DWIDTH 11 0
BBX 10 17 0 -2
BITMAP
7000
7000
3000
3000
3000
3000
FC00
01C0
1F00
F000
8FC0
00C0
0180
0180
0300
0300
0600
ENDCHAR
STARTCHAR 2151
ENCODING 8529
SWIDTH 609 0
DWIDTH 11 0
BBX 10 18 0 -3
BITMAP
3000
7000
3000
3000
3000
3000
3000
FC00
03C0
FC00
4780
0CC0
0CC0
0CC0
07C0
00C0
08C0
0780
ENDCHAR
STARTCHAR 2153
ENCODING 8531
SWIDTH 609 0
DWIDTH 11 0
BBX 10 17 0 -2
BITMAP
7000
B000
3000
3000
3000
3000
FC00
01C0
0F00
F800
87C0
00C0
0300
00C0
0040
08C0
0F80
ENDCHAR
STARTCHAR 2154
ENCODING 8532
SWIDTH 609 0
DWIDTH 11 0
BBX 10 17 0 -2
BITMAP
F800
8C00
0C00
1800
3000
6000
FC00
01C0
0F00
F800
87C0
00C0
0300
00C0
0040
08C0
0F80
ENDCHAR
STARTCHAR 2155
ENCODING 8533
SWIDTH 609 0
DWIDTH 11 0
BBX 10 17 0 -2
BITMAP
7000
B000
3000
3000
3000
3000
FC00
01C0
1F00
F000
87C0
0400
0780
00C0
00C0
00C0
0F80
ENDCHAR
STARTCHAR 2156
ENCODING 8534
SWIDTH 609 0
DWIDTH 11 0
BBX 10 17 0 -2
BITMAP
F800
8C00
0C00
1800
3000
6000
FC00
01C0
1F00
F000
87C0
0400
0780
00C0
00C0
00C0
0F80
ENDCHAR
STARTCHAR 2157
ENCODING 8535
SWIDTH 609 0
DWIDTH 11 0
BBX 10 17 0 -2
BITMAP
7800
8C00
0C00
3800
0C00
0C00
F840
03C0
1F00
F000
87C0
0400
0780
00C0
00C0
00C0
0F80
ENDCHAR
STARTCHAR 2158
ENCODING 8536
SWIDTH 609 0
DWIDTH 11 0
BBX 10 16 0 -2
BITMAP
1800
3800
5800
D800
FC00
1800
1840
0780
7800
87C0
0400
0780
08C0
00C0
00C0
0F80
ENDCHAR
STARTCHAR 2159
ENCODING 8537
SWIDTH 609 0
DWIDTH 11 0
BBX 10 17 0 -2
BITMAP
7000
B000
3000
3000
3000
3000
FC00
01C0
0F00
F800
83C0
0400
0F80
0CC0
0C40
04C0
0780
ENDCHAR
STARTCHAR 215A
ENCODING 8538
SWIDTH 609 0
DWIDTH 11 0
BBX 10 17 0 -2
BITMAP
7C00
4000
4000
7800
0C00
0C00
F840
03C0
1F00
F000
83C0
0400
0F80
0CC0
0C40
04C0
0780
ENDCHAR
STARTCHAR 215B
ENCODING 8539
SWIDTH 609 0
DWIDTH 11 0
BBX 10 17 0 -2
BITMAP
7000
B000
3000
3000
3000
3000
FC00
01C0
0F00
F800
8780
0CC0
04C0
0380
0CC0
0CC0
0780
ENDCHAR
STARTCHAR 215C
ENCODING 8540
SWIDTH 609 0
DWIDTH 11 0
BBX 10 17 0 -2
BITMAP
7800
8C00
0C00
3800
0C00
0C00
F840
03C0
1F00
F000
8780
0CC0
04C0
0380
0CC0
0CC0
0780
ENDCHAR
STARTCHAR 215D
ENCODING 8541
SWIDTH 609 0
DWIDTH 11 0
BBX 10 17 0 -2
BITMAP
7C00
4000
4000
7800
0C00
0C00
F840
03C0
1F00
F000
8780
0CC0
04C0
0380
0CC0
0CC0
0780
ENDCHAR
STARTCHAR 215E
ENCODING 8542
SWIDTH 609 0
DWIDTH 11 0
BBX 10 17 0 -2
BITMAP
FC00
0C00
1800
1800
1000
3000
2000
6040
0780
7800
8780
0CC0
04C0
0380
0CC0
0CC0
0780
ENDCHAR
STARTCHAR 215F
ENCODING 8543
SWIDTH 609 0
DWIDTH 11 0
BBX 10 10 0 4
BITMAP
7000
3000
3000
3000
3000
3000
FC00
01C0
1E00
E000
ENDCHAR
STARTCHAR 2189
ENCODING 8585
SWIDTH 609 0
DWIDTH 11 0
BBX 10 17 0 -2
BITMAP
7800
4C00
CC00
FC00
CC00
4C00
7840
03C0
1F00
F000
87C0
00C0
0300
00C0
0040
08C0
0F80
ENDCHAR
STARTCHAR 2190
ENCODING 8592
SWIDTH 609 0
DWIDTH 11 0
BBX 9 6 1 2
BITMAP
6000
C000
FF80
FF80
E000
6000
ENDCHAR
STARTCHAR 2191
ENCODING 8593
SWIDTH 609 0
DWIDTH 11 0
BBX 7 10 2 0
BITMAP
38
78
FE
74
30
30
30
30
30
30
ENDCHAR
STARTCHAR 2192
ENCODING 8594
SWIDTH 609 0
DWIDTH 11 0
BBX 9 6 1 2
BITMAP
0200
0300
FF80
FF80
0300
0200
ENDCHAR
STARTCHAR 2193
ENCODING 8595
SWIDTH 609 0
DWIDTH 11 0
BBX 7 10 2 0
BITMAP
30
30
30
30
30
30
74
FE
7C
38
ENDCHAR
STARTCHAR 2194
ENCODING 8596
SWIDTH 609 0
DWIDTH 11 0
BBX 9 6 1 2
BITMAP
6200
C300
FF80
FF80
E300
6200
ENDCHAR
STARTCHAR 2195
ENCODING 8597
SWIDTH 609 0
DWIDTH 11 0
BBX 7 10 2 0
BITMAP
38
78
FE
74
30
30
74
FE
7C
38
ENDCHAR
STARTCHAR 2196
ENCODING 8598
SWIDTH 609 0
DWIDTH 11 0
BBX 8 8 1 0
BITMAP
78
F8
F0
F8
DC
0E
07
03
ENDCHAR
STARTCHAR 2197
ENCODING 8599
SWIDTH 609 0
DWIDTH 11 0
BBX 9 8 1 0
BITMAP
0F00
0F80
0780
0F80
1D80
3800
F000
6000
ENDCHAR
STARTCHAR 2198
ENCODING 8600
SWIDTH 609 0
DWIDTH 11 0
BBX 9 8 1 0
BITMAP
4000
E000
7000
1980
0D80
0780
0F80
0F00
ENDCHAR
STARTCHAR 2199
ENCODING 8601
SWIDTH 609 0
DWIDTH 11 0
BBX 8 8 1 0
BITMAP
01
03
06
CC
D8
F0
F8
78
ENDCHAR
STARTCHAR 219A
ENCODING 8602
SWIDTH 609 0
DWIDTH 11 0
BBX 9 6 1 2
BITMAP
6380
C300
FF80
FF80
EE00
6400
ENDCHAR
STARTCHAR 219B
ENCODING 8603
SWIDTH 609 0
DWIDTH 11 0
BBX 9 6 1 2
BITMAP
1A00
3B00
FF80
FF80
E300
4200
ENDCHAR
STARTCHAR 219C
ENCODING 8604
SWIDTH 609 0
DWIDTH 11 0
BBX 9 5 1 3
BITMAP
F300
F780
EC80
FC00
B800
ENDCHAR
STARTCHAR 219D
ENCODING 8605
SWIDTH 609 0
DWIDTH 11 0
BBX 9 5 1 3
BITMAP
6780
F780
9B80
1F80
0E80
ENDCHAR
STARTCHAR 219E
ENCODING 8606
SWIDTH 609 0
DWIDTH 11 0
BBX 9 6 1 2
BITMAP
6C00
D800
FF80
FF80
F800
6C00
ENDCHAR
STARTCHAR 219F
ENCODING 8607
SWIDTH 609 0
DWIDTH 11 0
BBX 7 10 2 0
BITMAP
38
78
FE
74
78
FE
74
30
30
30
ENDCHAR
STARTCHAR 21A0
ENCODING 8608
SWIDTH 609 0
DWIDTH 11 0
BBX 9 6 1 2
BITMAP
1A00
1F00
FF80
FF80
1F00
1A00
ENDCHAR
STARTCHAR 21A1
ENCODING 8609
SWIDTH 609 0
DWIDTH 11 0
BBX 7 10 2 0
BITMAP
30
30
30
74
FE
7C
7C
FE
7C
38
ENDCHAR
STARTCHAR 21A2
ENCODING 8610
SWIDTH 609 0
DWIDTH 11 0
BBX 9 6 1 2
BITMAP
6180
C380
FF00
FF00
E180
6080
ENDCHAR
STARTCHAR 21A3
ENCODING 8611
SWIDTH 609 0
DWIDTH 11 0
BBX 9 6 1 2
BITMAP
8200
C300
7F80
7F80
C300
8200
ENDCHAR
STARTCHAR 21A4
ENCODING 8612
SWIDTH 609 0
DWIDTH 11 0
BBX 9 6 1 2
BITMAP
2080
E080
FF80
FF80
6080
2080
ENDCHAR
STARTCHAR 21A5
ENCODING 8613
SWIDTH 609 0
DWIDTH 11 0
BBX 7 10 2 0
BITMAP
38
7C
FE
74
30
30
30
30
FE
FE
ENDCHAR
STARTCHAR 21A6
ENCODING 8614
SWIDTH 609 0
DWIDTH 11 0
BBX 9 6 1 2
BITMAP
8200
8300
FF80
FF80
8300
8200
ENDCHAR
STARTCHAR 21A7
ENCODING 8615
SWIDTH 609 0
DWIDTH 11 0
BBX 7 10 2 0
BITMAP
FE
FE
30
30
30
30
74
FE
7C
38
ENDCHAR
STARTCHAR 21A8
ENCODING 8616
SWIDTH 609 0
DWIDTH 11 0
BBX 7 10 2 0
BITMAP
38
7C
FE
74
30
F6
7C
38
FE
FE
ENDCHAR
STARTCHAR 21A9
ENCODING 8617
SWIDTH 609 0
DWIDTH 11 0
BBX 9 7 1 2
BITMAP
0100
2180
E180
FF80
FF00
E000
6000
ENDCHAR
STARTCHAR 21AA
ENCODING 8618
SWIDTH 609 0
DWIDTH 11 0
BBX 9 7 1 2
BITMAP
4000
C200
C300
FF80
7F80
0300
0200
ENDCHAR
STARTCHAR 21AB
ENCODING 8619
SWIDTH 609 0
DWIDTH 11 0
BBX 9 7 1 2
BITMAP
0700
2F80
ED80
FF80
FF00
EC00
6C00
ENDCHAR
STARTCHAR 21AC
ENCODING 8620
SWIDTH 609 0
DWIDTH 11 0
BBX 9 7 1 2
BITMAP
7000
FA00
DB00
FF80
7F80
1B00
1A00
ENDCHAR
STARTCHAR 21AD
ENCODING 8621
SWIDTH 609 0
DWIDTH 11 0
BBX 9 6 1 2
BITMAP
6300
DD80
F780
F780
6300
2200
ENDCHAR
STARTCHAR 21AE
ENCODING 8622
SWIDTH 609 0
DWIDTH 11 0
BBX 9 6 1 2
BITMAP
6E00
CB00
FF80
FF80
FB00
7A00
ENDCHAR
STARTCHAR 21AF
ENCODING 8623
SWIDTH 609 0
DWIDTH 11 0
BBX 9 13 1 0
BITMAP
4000
6080
6100
C700
DF00
FB00
E300
8600
8600
1600
1F80
0F00
0600
ENDCHAR
STARTCHAR 21B0
ENCODING 8624
SWIDTH 609 0
DWIDTH 11 0
BBX 8 12 2 0
BITMAP
20
60
FF
FF
C3
63
03
03
03
03
03
03
ENDCHAR
STARTCHAR 21B1
ENCODING 8625
SWIDTH 609 0
DWIDTH 11 0
BBX 8 12 1 0
BITMAP
04
06
FF
FF
C6
C4
C0
C0
C0
C0
C0
C0
ENDCHAR
STARTCHAR 21B2
ENCODING 8626
SWIDTH 609 0
DWIDTH 11 0
BBX 8 12 2 0
BITMAP
03
03
03
03
03
03
23
63
FF
FF
E0
60
ENDCHAR
STARTCHAR 21B3
ENCODING 8627
SWIDTH 609 0
DWIDTH 11 0
BBX 8 12 1 0
BITMAP
C0
C0
C0
C0
C0
C0
C4
C6
FF
FF
06
04
ENDCHAR
STARTCHAR 21B4
ENCODING 8628
SWIDTH 609 0
DWIDTH 11 0
BBX 8 10 2 0
BITMAP
F8
F8
18
18
18
18
3A
7F
3C
18
ENDCHAR
STARTCHAR 21B5
ENCODING 8629
SWIDTH 609 0
DWIDTH 11 0
BBX 10 8 1 0
BITMAP
00C0
00C0
20C0
E0C0
FFC0
FFC0
E000
6000
ENDCHAR
STARTCHAR 21B6
ENCODING 8630
SWIDTH 609 0
DWIDTH 11 0
BBX 10 6 0 3
BITMAP
0F80
1FC0
18C0
FE40
7C00
3800
ENDCHAR
STARTCHAR 21B7
ENCODING 8631
SWIDTH 609 0
DWIDTH 11 0
BBX 10 6 0 3
BITMAP
3C00
7E00
6300
CFC0
0780
0300
ENDCHAR
STARTCHAR 21B8
ENCODING 8632
SWIDTH 609 0
DWIDTH 11 0
BBX 10 10 0 0
BITMAP
FFC0
0000
3C00
7C00
7800
7C00
6E00
0700
0380
0080
ENDCHAR
STARTCHAR 21B9
ENCODING 8633
SWIDTH 609 0
DWIDTH 11 0
BBX 9 11 1 0
BITMAP
9800
B000
FF80
FF80
B000
9C80
0680
FF80
FF80
0680
0C80
ENDCHAR
STARTCHAR 21BA
ENCODING 8634
SWIDTH 609 0
DWIDTH 11 0
BBX 10 10 0 0
BITMAP
03C0
03C0
6380
63C0
62C0
E0C0
60C0
7180
3F80
1E00
ENDCHAR
STARTCHAR 21BB
ENCODING 8635
SWIDTH 609 0
DWIDTH 11 0
BBX 10 10 0 0
BITMAP
F800
F800
38C0
69C0
68C0
60C0
60C0
71C0
3F80
0F00
ENDCHAR
STARTCHAR 21BC
ENCODING 8636
SWIDTH 609 0
DWIDTH 11 0
BBX 9 4 1 4
BITMAP
6000
C000
FF80
FF80
ENDCHAR
STARTCHAR 21BD
ENCODING 8637
SWIDTH 609 0
DWIDTH 11 0
BBX 9 4 1 2
BITMAP
FF80
FF80
E000
6000
ENDCHAR
STARTCHAR 21BE
ENCODING 8638
SWIDTH 609 0
DWIDTH 11 0
BBX 5 10 4 0
BITMAP
E0
E0
F8
D0
C0
C0
C0
C0
C0
C0
ENDCHAR
STARTCHAR 21BF
ENCODING 8639
SWIDTH 609 0
DWIDTH 11 0
BBX 4 10 2 0
BITMAP
30
70
F0
70
30
30
30
30
30
30
ENDCHAR
STARTCHAR 21C0
ENCODING 8640
SWIDTH 609 0
DWIDTH 11 0
BBX 9 4 1 4
BITMAP
0200
0300
FF80
FF80
ENDCHAR
STARTCHAR 21C1
ENCODING 8641
SWIDTH 609 0
DWIDTH 11 0
BBX 9 4 1 2
BITMAP
FF80
FF80
0300
0200
ENDCHAR
STARTCHAR 21C2
ENCODING 8642
SWIDTH 609 0
DWIDTH 11 0
BBX 5 10 4 0
BITMAP
C0
C0
C0
C0
C0
C0
D0
F8
F0
E0
ENDCHAR
STARTCHAR 21C3
ENCODING 8643
SWIDTH 609 0
DWIDTH 11 0
BBX 4 10 2 0
BITMAP
30
30
30
30
30
30
70
F0
70
30
ENDCHAR
STARTCHAR 21C4
ENCODING 8644
SWIDTH 609 0
DWIDTH 11 0
BBX 9 10 1 0
BITMAP
0200
0300
FF80
FF80
2300
6200
FF80
FF80
E000
6000
ENDCHAR
STARTCHAR 21C5
ENCODING 8645
SWIDTH 609 0
DWIDTH 11 0
BBX 11 10 0 0
BITMAP
3180
7980
FD80
7580
3180
3180
35C0
3FE0
37C0
3380
ENDCHAR
STARTCHAR 21C6
ENCODING 8646
SWIDTH 609 0
DWIDTH 11 0
BBX 9 10 1 0
BITMAP
6000
C000
FF80
FF80
6200
2300
FF80
FF80
0300
0200
ENDCHAR
STARTCHAR 21C7
ENCODING 8647
SWIDTH 609 0
DWIDTH 11 0
BBX 9 10 1 0
BITMAP
6000
C000
FF80
FF80
6000
6000
FF80
FF80
E000
6000
ENDCHAR
STARTCHAR 21C8
ENCODING 8648
SWIDTH 609 0
DWIDTH 11 0
BBX 11 10 0 0
BITMAP
3380
7BC0
FFE0
75C0
3180
3180
3180
3180
3180
3180
ENDCHAR
STARTCHAR 21C9
ENCODING 8649
SWIDTH 609 0
DWIDTH 11 0
BBX 9 10 1 0
BITMAP
0200
0300
FF80
FF80
0300
0300
FF80
FF80
0300
0200
ENDCHAR
STARTCHAR 21CA
ENCODING 8650
SWIDTH 609 0
DWIDTH 11 0
BBX 11 10 0 0
BITMAP
3180
3180
3180
3180
3180
3180
75C0
FFE0
7FC0
3380
ENDCHAR
STARTCHAR 21CB
ENCODING 8651
SWIDTH 609 0
DWIDTH 11 0
BBX 9 10 1 0
BITMAP
6000
C000
FF80
FF80
0000
0000
FF80
FF80
0300
0200
ENDCHAR
STARTCHAR 21CC
ENCODING 8652
SWIDTH 609 0
DWIDTH 11 0
BBX 9 10 1 0
BITMAP
0200
0300
FF80
FF80
0000
0000
FF80
FF80
E000
6000
ENDCHAR
STARTCHAR 21CD
ENCODING 8653
SWIDTH 609 0
DWIDTH 11 0
BBX 9 7 1 1
BITMAP
2000
6300
FF80
8400
FF80
6800
2000
ENDCHAR
STARTCHAR 21CE
ENCODING 8654
SWIDTH 609 0
DWIDTH 11 0
BBX 9 6 1 2
BITMAP
6A00
FF80
8880
FF80
6B00
2A00
ENDCHAR
STARTCHAR 21CF
ENCODING 8655
SWIDTH 609 0
DWIDTH 11 0
BBX 9 7 1 1
BITMAP
0200
0B00
FF80
1080
FF80
6300
0200
ENDCHAR
STARTCHAR 21D0
ENCODING 8656
SWIDTH 609 0
DWIDTH 11 0
BBX 9 7 1 1
BITMAP
2000
6000
FF80
8000
FF80
6000
2000
ENDCHAR
STARTCHAR 21D1
ENCODING 8657
SWIDTH 609 0
DWIDTH 11 0
BBX 7 10 2 0
BITMAP
38
78
EE
6C
28
28
28
28
28
28
ENDCHAR
STARTCHAR 21D2
ENCODING 8658
SWIDTH 609 0
DWIDTH 11 0
BBX 9 7 1 1
BITMAP
0200
0300
FF80
0080
FF80
0300
0200
ENDCHAR
STARTCHAR 21D3
ENCODING 8659
SWIDTH 609 0
DWIDTH 11 0
BBX 7 10 2 0
BITMAP
28
28
28
28
28
28
6C
EE
7C
38
ENDCHAR
STARTCHAR 21D4
ENCODING 8660
SWIDTH 609 0
DWIDTH 11 0
BBX 9 7 1 1
BITMAP
2200
6300
FF80
8080
FF80
6300
2200
ENDCHAR
STARTCHAR 21D5
ENCODING 8661
SWIDTH 609 0
DWIDTH 11 0
BBX 7 10 2 0
BITMAP
38
78
EE
6C
28
28
6C
EE
7C
38
ENDCHAR
STARTCHAR 21D6
ENCODING 8662
SWIDTH 609 0
DWIDTH 11 0
BBX 9 9 1 -1
BITMAP
7800
F800
D000
C800
F400
1A00
0D80
0600
0200
ENDCHAR
STARTCHAR 21D7
ENCODING 8663
SWIDTH 609 0
DWIDTH 11 0
BBX 9 9 1 -1
BITMAP
0F00
0F80
0580
0B80
1780
2C00
D800
3000
2000
ENDCHAR
STARTCHAR 21D8
ENCODING 8664
SWIDTH 609 0
DWIDTH 11 0
BBX 9 8 1 0
BITMAP
2000
D000
4800
2580
1380
0980
0F80
0F00
ENDCHAR
STARTCHAR 21D9
ENCODING 8665
SWIDTH 609 0
DWIDTH 11 0
BBX 9 8 1 0
BITMAP
0200
0580
0B00
D600
EC00
D800
F800
7800
ENDCHAR
STARTCHAR 21DA
ENCODING 8666
SWIDTH 609 0
DWIDTH 11 0
BBX 9 6 1 2
BITMAP
2000
FF80
FF80
C000
7F80
2000
ENDCHAR
STARTCHAR 21DB
ENCODING 8667
SWIDTH 609 0
DWIDTH 11 0
BBX 9 6 1 2
BITMAP
0200
FF80
FF80
0180
FF00
0200
ENDCHAR
STARTCHAR 21DC
ENCODING 8668
SWIDTH 609 0
DWIDTH 11 0
BBX 9 6 1 2
BITMAP
6000
C600
FF80
FF80
E900
6000
ENDCHAR
STARTCHAR 21DD
ENCODING 8669
SWIDTH 609 0
DWIDTH 11 0
BBX 9 6 1 2
BITMAP
0200
3300
F780
FF80
4B00
0200
ENDCHAR
STARTCHAR 21E0
ENCODING 8672
SWIDTH 609 0
DWIDTH 11 0
BBX 9 6 1 2
BITMAP
6000
C000
F680
F680
E000
6000
ENDCHAR
STARTCHAR 21E1
ENCODING 8673
SWIDTH 609 0
DWIDTH 11 0
BBX 7 10 2 0
BITMAP
38
7C
F6
30
00
30
30
00
30
30
ENDCHAR
STARTCHAR 21E2
ENCODING 8674
SWIDTH 609 0
DWIDTH 11 0
BBX 9 6 1 2
BITMAP
0200
0300
B780
B780
0300
0200
ENDCHAR
STARTCHAR 21E3
ENCODING 8675
SWIDTH 609 0
DWIDTH 11 0
BBX 7 10 2 0
BITMAP
30
30
00
30
30
00
30
F6
7C
38
ENDCHAR
STARTCHAR 21E4
ENCODING 8676
SWIDTH 609 0
DWIDTH 11 0
BBX 9 6 1 2
BITMAP
9800
B000
FF80
FF80
B000
9800
ENDCHAR
STARTCHAR 21E5
ENCODING 8677
SWIDTH 609 0
DWIDTH 11 0
BBX 9 6 1 2
BITMAP
0C80
0680
FF80
FF80
0680
0C80
ENDCHAR
STARTCHAR 21E6
ENCODING 8678
SWIDTH 609 0
DWIDTH 11 0
BBX 10 7 0 1
BITMAP
1000
3000
5FC0
8040
5FC0
3000
1000
ENDCHAR
STARTCHAR 21E7
ENCODING 8679
SWIDTH 609 0
DWIDTH 11 0
BBX 7 10 2 0
BITMAP
10
28
64
EA
28
28
28
28
28
38
ENDCHAR
STARTCHAR 21E8
ENCODING 8680
SWIDTH 609 0
DWIDTH 11 0
BBX 10 7 1 1
BITMAP
0200
0300
FE80
8040
FE80
0300
0200
ENDCHAR
STARTCHAR 21E9
ENCODING 8681
SWIDTH 609 0
DWIDTH 11 0
BBX 7 10 2 0
BITMAP
38
28
28
28
28
28
AA
44
28
10
ENDCHAR
STARTCHAR 21EB
ENCODING 8683
SWIDTH 609 0
DWIDTH 11 0
BBX 7 10 2 0
BITMAP
10
28
64
EA
28
28
28
2E
8E
FE
ENDCHAR
STARTCHAR 21EC
ENCODING 8684
SWIDTH 609 0
DWIDTH 11 0
BBX 7 11 2 0
BITMAP
10
38
44
FE
28
28
28
28
EE
82
FE
ENDCHAR
STARTCHAR 21ED
ENCODING 8685
SWIDTH 609 0
DWIDTH 11 0
BBX 7 10 2 0
BITMAP
10
38
74
FA
38
38
38
3E
9E
FE
ENDCHAR
STARTCHAR 21EE
ENCODING 8686
SWIDTH 609 0
DWIDTH 11 0
BBX 7 10 2 0
BITMAP
10
28
54
EA
64
EA
28
28
28
38
ENDCHAR
STARTCHAR 21EF
ENCODING 8687
SWIDTH 609 0
DWIDTH 11 0
BBX 7 10 2 0
BITMAP
10
28
54
EA
64
EA
28
2E
8E
FE
ENDCHAR
STARTCHAR 21F0
ENCODING 8688
SWIDTH 609 0
DWIDTH 11 0
BBX 10 7 1 1
BITMAP
C200
C300
FE80
8040
FE80
C300
C200
ENDCHAR
STARTCHAR 21F1
ENCODING 8689
SWIDTH 609 0
DWIDTH 11 0
BBX 10 10 0 0
BITMAP
FFC0
8000
9E00
BE00
BC00
BE00
B700
8380
81C0
80C0
ENDCHAR
STARTCHAR 21F2
ENCODING 8690
SWIDTH 609 0
DWIDTH 11 0
BBX 10 10 0 0
BITMAP
4040
E040
3040
1940
0D40
0740
0F40
0F40
0040
7FC0
ENDCHAR
STARTCHAR 21F3
ENCODING 8691
SWIDTH 609 0
DWIDTH 11 0
BBX 7 11 2 0
BITMAP
10
38
44
EE
28
28
28
EE
44
38
10
ENDCHAR
STARTCHAR 21F4
ENCODING 8692
SWIDTH 609 0
DWIDTH 11 0
BBX 9 6 1 2
BITMAP
7200
FB00
FF80
FF80
FB00
7200
ENDCHAR
STARTCHAR 21F5
ENCODING 8693
SWIDTH 609 0
DWIDTH 11 0
BBX 11 10 0 0
BITMAP
3380
33C0
3FE0
35C0
3180
3180
7580
FD80
7980
3180
ENDCHAR
STARTCHAR 21F6
ENCODING 8694
SWIDTH 609 0
DWIDTH 11 0
BBX 9 14 1 -2
BITMAP
0200
0300
FF80
FF80
0300
0300
FF80
FF80
0300
0300
FF80
FF80
0300
0200
ENDCHAR
STARTCHAR 21F7
ENCODING 8695
SWIDTH 609 0
DWIDTH 11 0
BBX 9 6 1 2
BITMAP
2400
E400
FF80
FF80
6400
2400
ENDCHAR
STARTCHAR 21F8
ENCODING 8696
SWIDTH 609 0
DWIDTH 11 0
BBX 9 6 1 2
BITMAP
1200
1300
FF80
FF80
1300
1200
ENDCHAR
STARTCHAR 21F9
ENCODING 8697
SWIDTH 609 0
DWIDTH 11 0
BBX 9 6 1 2
BITMAP
2A00
EB00
FF80
FF80
6B00
2A00
ENDCHAR
STARTCHAR 21FA
ENCODING 8698
SWIDTH 609 0
DWIDTH 11 0
BBX 9 6 1 2
BITMAP
2F00
EF00
FF80
FF80
6F00
2F00
ENDCHAR
STARTCHAR 21FB
ENCODING 8699
SWIDTH 609 0
DWIDTH 11 0
BBX 9 6 1 2
BITMAP
5A00
5B00
FF80
FF80
5B00
5A00
ENDCHAR
STARTCHAR 21FC
ENCODING 8700
SWIDTH 609 0
DWIDTH 11 0
BBX 9 6 1 2
BITMAP
3600
7700
FF80
FF80
7700
3600
ENDCHAR
STARTCHAR 21FD
ENCODING 8701
SWIDTH 609 0
DWIDTH 11 0
BBX 10 8 0 1
BITMAP
1000
3000
7000
DFC0
5FC0
3000
3000
1000
ENDCHAR
STARTCHAR 21FE
ENCODING 8702
SWIDTH 609 0
DWIDTH 11 0
BBX 10 8 1 1
BITMAP
0200
0300
0300
FEC0
FE80
0300
0200
0200
ENDCHAR
STARTCHAR 21FF
ENCODING 8703
SWIDTH 609 0
DWIDTH 11 0
BBX 11 8 0 1
BITMAP
1100
3180
7180
DF60
5F40
3180
3100
1100
ENDCHAR
STARTCHAR 2200
ENCODING 8704
SWIDTH 609 0
DWIDTH 11 0
BBX 11 13 0 0
BITMAP
E0E0
60C0
71C0
7FC0
3F80
3180
3B80
3B80
1B00
1B00
1F00
1E00
0E00
ENDCHAR
STARTCHAR 2201
ENCODING 8705
SWIDTH 609 0
DWIDTH 11 0
BBX 11 13 0 0
BITMAP
1F00
3F80
79C0
71E0
F000
F000
F000
F000
F000
71E0
79C0
3F80
1F00
ENDCHAR
STARTCHAR 2202
ENCODING 8706
SWIDTH 609 0
DWIDTH 11 0
BBX 9 12 1 0
BITMAP
1E00
3B00
0100
0100
3980
6780
6380
E300
C300
C700
6600
3C00
ENDCHAR
STARTCHAR 2203
ENCODING 8707
SWIDTH 609 0
DWIDTH 11 0
BBX 9 13 1 0
BITMAP
FF80
FF80
0380
0380
0380
FF80
FF80
0380
0380
0380
0380
FF80
FF80
ENDCHAR
STARTCHAR 2204
ENCODING 8708
SWIDTH 609 0
DWIDTH 11 0
BBX 9 15 1 -1
BITMAP
0600
FF80
FF80
0F80
0B80
1B80
FF80
FF80
1380
3380
3380
2380
FF80
FF80
6000
ENDCHAR
STARTCHAR 2205
ENCODING 8709
SWIDTH 609 0
DWIDTH 11 0
BBX 9 10 1 0
BITMAP
3C80
7F80
E300
C780
8C80
9880
F180
6380
FF00
BE00
ENDCHAR
STARTCHAR 2206
ENCODING 8710
SWIDTH 609 0
DWIDTH 11 0
BBX 11 13 0 0
BITMAP
0E00
0E00
0E00
1F00
1B00
1B00
3B80
3180
3180
71C0
60C0
FFC0
FFE0
ENDCHAR
STARTCHAR 2207
ENCODING 8711
SWIDTH 609 0
DWIDTH 11 0
BBX 11 12 0 0
BITMAP
FFE0
7FC0
60C0
71C0
3180
3180
3B80
1B00
1B00
1E00
0E00
0E00
ENDCHAR
STARTCHAR 2208
ENCODING 8712
SWIDTH 609 0
DWIDTH 11 0
BBX 9 13 1 0
BITMAP
1F80
3F80
6000
C000
C000
FF80
FF80
C000
C000
E000
7000
3F80
1F80
ENDCHAR
STARTCHAR 2209
ENCODING 8713
SWIDTH 609 0
DWIDTH 11 0
BBX 9 17 1 -2
BITMAP
0100
0180
1F80
3F80
6300
C600
C600
FF80
FF80
DC00
D800
F800
7800
3F80
3F80
6000
2000
ENDCHAR
STARTCHAR 220A
ENCODING 8714
SWIDTH 609 0
DWIDTH 11 0
BBX 9 9 1 1
BITMAP
3F80
7F80
E000
C000
FF80
FF80
E000
7F80
3F80
ENDCHAR
STARTCHAR 220B
ENCODING 8715
SWIDTH 609 0
DWIDTH 11 0
BBX 9 13 1 0
BITMAP
FC00
FE00
0300
0300
0180
FF80
FF80
0180
0180
0300
0700
FE00
FC00
ENDCHAR
STARTCHAR 220C
ENCODING 8716
SWIDTH 609 0
DWIDTH 11 0
BBX 9 17 1 -2
BITMAP
0200
0300
FE00
FE00
0F00
0F80
1D80
FF80
FF80
3180
3180
3380
6700
FE00
FC00
C000
4000
ENDCHAR
STARTCHAR 220D
ENCODING 8717
SWIDTH 609 0
DWIDTH 11 0
BBX 9 9 1 1
BITMAP
FC00
FF00
0380
0180
FF80
FF80
0380
FF00
FE00
ENDCHAR
STARTCHAR 220E
ENCODING 8718
SWIDTH 609 0
DWIDTH 11 0
BBX 7 11 2 0
BITMAP
FE
FE
FE
FE
FE
FE
FE
FE
FE
FE
FE
ENDCHAR
STARTCHAR 220F
ENCODING 8719
SWIDTH 609 0
DWIDTH 11 0
BBX 9 17 1 -4
BITMAP
FF80
FF80
E380
E380
E380
E380
E380
E380
E380
E380
E380
E380
E380
E380
E380
E380
E380
ENDCHAR
STARTCHAR 2210
ENCODING 8720
SWIDTH 609 0
DWIDTH 11 0
BBX 9 17 1 -4
BITMAP
E380
E380
E380
E380
E380
E380
E380
E380
E380
E380
E380
E380
E380
E380
E380
FF80
FF80
ENDCHAR
STARTCHAR 2211
ENCODING 8721
SWIDTH 609 0
DWIDTH 11 0
BBX 9 17 1 -4
BITMAP
FF80
FF80
6000
7000
3000
1800
1C00
0C00
0E00
0C00
1C00
1800
3000
7000
6000
FF80
FF80
ENDCHAR
STARTCHAR 2212
ENCODING 8722
SWIDTH 609 0
DWIDTH 11 0
BBX 9 2 1 5
BITMAP
FF80
FF80
ENDCHAR
STARTCHAR 2213
ENCODING 8723
SWIDTH 609 0
DWIDTH 11 0
BBX 9 11 1 0
BITMAP
FF80
FF80
0000
1800
1800
1800
FF80
FF80
1800
1800
1800
ENDCHAR
STARTCHAR 2217
ENCODING 8727
SWIDTH 609 0
DWIDTH 11 0
BBX 9 8 1 2
BITMAP
0800
8880
EB80
3E00
3E00
EB80
8900
0800
ENDCHAR
STARTCHAR 2218
ENCODING 8728
SWIDTH 609 0
DWIDTH 11 0
BBX 5 6 3 4
BITMAP
70
D8
88
88
98
70
ENDCHAR
STARTCHAR 221A
ENCODING 8730
SWIDTH 609 0
DWIDTH 11 0
BBX 10 15 0 0
BITMAP
00C0
00C0
00C0
0180
0180
0180
0380
F300
7300
3300
1E00
1E00
1E00
0C00
0C00
ENDCHAR
STARTCHAR 221B
ENCODING 8731
SWIDTH 609 0
DWIDTH 11 0
BBX 10 17 0 0
BITMAP
7800
4400
04C0
3CC0
0CC0
0780
8780
7D80
1380
F300
7300
1300
1E00
1E00
1E00
0C00
0C00
ENDCHAR
STARTCHAR 221C
ENCODING 8732
SWIDTH 609 0
DWIDTH 11 0
BBX 10 17 0 0
BITMAP
1C00
1C00
3CC0
6CC0
4CC0
FF80
0D80
0D80
1380
F300
7300
1B00
1E00
1E00
1E00
0C00
0C00
ENDCHAR
STARTCHAR 221D
ENCODING 8733
SWIDTH 609 0
DWIDTH 11 0
BBX 7 7 2 2
BITMAP
72
FE
9C
8C
9C
FE
72
ENDCHAR
STARTCHAR 221E
ENCODING 8734
SWIDTH 609 0
DWIDTH 11 0
BBX 11 7 0 2
BITMAP
73C0
FBC0
CE60
CC60
CE60
7BC0
7180
ENDCHAR
STARTCHAR 221F
ENCODING 8735
SWIDTH 609 0
DWIDTH 11 0
BBX 9 9 1 2
BITMAP
C000
C000
C000
C000
C000
C000
C000
FF80
FF80
ENDCHAR
STARTCHAR 2220
ENCODING 8736
SWIDTH 609 0
DWIDTH 11 0
BBX 9 9 1 2
BITMAP
0380
0300
0600
0C00
1800
1800
3000
7F80
FF80
ENDCHAR
STARTCHAR 2223
ENCODING 8739
SWIDTH 609 0
DWIDTH 11 0
BBX 2 18 4 -4
BITMAP
C0
C0
C0
C0
C0
C0
C0
C0
C0
C0
C0
C0
C0
C0
C0
C0
C0
C0
ENDCHAR
STARTCHAR 2227
ENCODING 8743
SWIDTH 609 0
DWIDTH 11 0
BBX 7 10 2 0
BITMAP
38
38
7C
6C
6C
6C
EC
EE
CE
C6
ENDCHAR
STARTCHAR 2228
ENCODING 8744
SWIDTH 609 0
DWIDTH 11 0
BBX 7 10 2 0
BITMAP
C6
CE
EE
EC
6C
6C
6C
7C
38
38
ENDCHAR
STARTCHAR 2229
ENCODING 8745
SWIDTH 609 0
DWIDTH 11 0
BBX 7 10 2 0
BITMAP
7C
FE
C6
C6
C6
C6
C6
C6
C6
C6
ENDCHAR
STARTCHAR 222A
ENCODING 8746
SWIDTH 609 0
DWIDTH 11 0
BBX 7 11 2 0
BITMAP
C6
C6
C6
C6
C6
C6
C6
C6
EE
FE
7C
ENDCHAR
STARTCHAR 222B
ENCODING 8747
SWIDTH 609 0
DWIDTH 11 0
BBX 9 17 1 -3
BITMAP
0380
0580
0D80
0C00
0C00
0C00
1C00
1C00
1C00
1800
1800
1800
1800
1800
D800
D000
E000
ENDCHAR
STARTCHAR 222C
ENCODING 8748
SWIDTH 609 0
DWIDTH 11 0
BBX 11 20 0 -4
BITMAP
1DC0
3DE0
35A0
3180
3180
3180
3180
3180
3180
3180
3180
3180
3180
3180
3180
3180
3180
3180
F780
F700
ENDCHAR
STARTCHAR 222D
ENCODING 8749
SWIDTH 609 0
DWIDTH 11 0
BBX 11 20 0 -4
BITMAP
3FE0
76E0
6EC0
6EC0
6EC0
6EC0
6EC0
6EC0
6EC0
6EC0
6EC0
6EC0
6EC0
6EC0
6EC0
6EC0
6EC0
6EC0
FDC0
FF80
ENDCHAR
STARTCHAR 2234
ENCODING 8756
SWIDTH 609 0
DWIDTH 11 0
BBX 9 9 1 1
BITMAP
1C00
1C00
1C00
0000
0000
0000
E380
E380
E380
ENDCHAR
STARTCHAR 2235
ENCODING 8757
SWIDTH 609 0
DWIDTH 11 0
BBX 9 9 1 1
BITMAP
E380
E380
E380
0000
0000
0000
1C00
1C00
1C00
ENDCHAR
STARTCHAR 2236
ENCODING 8758
SWIDTH 609 0
DWIDTH 11 0
BBX 3 9 4 1
BITMAP
E0
E0
E0
00
00
00
E0
E0
E0
ENDCHAR
STARTCHAR 2237
ENCODING 8759
SWIDTH 609 0
DWIDTH 11 0
BBX 9 9 1 1
BITMAP
E380
E380
E380
0000
0000
0000
E380
E380
E380
ENDCHAR
STARTCHAR 2238
ENCODING 8760
SWIDTH 609 0
DWIDTH 11 0
BBX 9 6 1 5
BITMAP
1C00
1C00
1C00
0000
FF80
FF80
ENDCHAR
STARTCHAR 2239
ENCODING 8761
SWIDTH 609 0
DWIDTH 11 0
BBX 9 9 1 1
BITMAP
0380
0380
0380
FC00
FC00
0000
0380
0380
0380
ENDCHAR
STARTCHAR 223A
ENCODING 8762
SWIDTH 609 0
DWIDTH 11 0
BBX 11 10 0 0
BITMAP
E0C0
E0C0
E0C0
0000
7FC0
7FC0
0000
E0E0
E0E0
E0E0
ENDCHAR
STARTCHAR 223B
ENCODING 8763
SWIDTH 609 0
DWIDTH 11 0
BBX 9 11 1 0
BITMAP
1C00
1C00
1C00
0000
F880
FF80
8F00
0000
1C00
1C00
1C00
ENDCHAR
STARTCHAR 223C
ENCODING 8764
SWIDTH 609 0
DWIDTH 11 0
BBX 9 3 1 4
BITMAP
F880
FF80
8F00
ENDCHAR
STARTCHAR 223D
ENCODING 8765
SWIDTH 609 0
DWIDTH 11 0
BBX 9 3 1 4
BITMAP
8F80
FF80
F080
ENDCHAR
STARTCHAR 2241
ENCODING 8769
SWIDTH 609 0
DWIDTH 11 0
BBX 9 9 1 1
BITMAP
0600
0C00
0C00
FC80
FF80
9F00
1800
3000
3000
ENDCHAR
STARTCHAR 2242
ENCODING 8770
SWIDTH 609 0
DWIDTH 11 0
BBX 9 6 1 2
BITMAP
FF80
FF80
0000
F880
FF80
8F00
ENDCHAR
STARTCHAR 2243
ENCODING 8771
SWIDTH 609 0
DWIDTH 11 0
BBX 9 6 1 3
BITMAP
F880
FF80
8F00
0000
FF80
FF80
ENDCHAR
STARTCHAR 2244
ENCODING 8772
SWIDTH 609 0
DWIDTH 11 0
BBX 9 11 1 1
BITMAP
0300
0200
2680
FD80
DF80
0A00
1800
FF80
FF80
6000
4000
ENDCHAR
STARTCHAR 2245
ENCODING 8773
SWIDTH 609 0
DWIDTH 11 0
BBX 9 10 1 1
BITMAP
F880
FF80
8F80
0000
FF80
FF80
0000
0000
FF80
FF80
ENDCHAR
STARTCHAR 2246
ENCODING 8774
SWIDTH 609 0
DWIDTH 11 0
BBX 9 11 1 0
BITMAP
F880
FF80
8F80
0200
FF80
FF80
0C00
1800
FF80
FF80
6000
ENDCHAR
STARTCHAR 2247
ENCODING 8775
SWIDTH 609 0
DWIDTH 11 0
BBX 9 14 1 -1
BITMAP
0200
0300
FF80
FF80
8F00
0C00
FF80
FF80
1800
3000
FF80
FF80
6000
2000
ENDCHAR
STARTCHAR 2248
ENCODING 8776
SWIDTH 609 0
DWIDTH 11 0
BBX 9 7 1 2
BITMAP
F880
FF80
8F80
0000
F880
FF80
8F00
ENDCHAR
STARTCHAR 2249
ENCODING 8777
SWIDTH 609 0
DWIDTH 11 0
BBX 9 11 1 0
BITMAP
0400
0600
FE80
FF80
8F80
1C00
F880
FF80
B700
3000
1000
ENDCHAR
STARTCHAR 224A
ENCODING 8778
SWIDTH 609 0
DWIDTH 11 0
BBX 9 10 1 1
BITMAP
F880
FF80
8F80
0000
F880
FF80
8F00
0000
FF80
FF80
ENDCHAR
STARTCHAR 224B
ENCODING 8779
SWIDTH 609 0
DWIDTH 11 0
BBX 9 10 1 0
BITMAP
FF80
FF80
0000
F880
FF80
8F80
0000
F880
FF80
8F00
ENDCHAR
STARTCHAR 224C
ENCODING 8780
SWIDTH 609 0
DWIDTH 11 0
BBX 9 10 1 1
BITMAP
8F00
FF80
F880
0000
FF80
FF80
0000
0000
FF80
FF80
ENDCHAR
STARTCHAR 224D
ENCODING 8781
SWIDTH 609 0
DWIDTH 11 0
BBX 9 7 1 2
BITMAP
C180
FF80
3E00
0000
3E00
FF80
C180
ENDCHAR
STARTCHAR 224E
ENCODING 8782
SWIDTH 609 0
DWIDTH 11 0
BBX 9 11 1 0
BITMAP
1C00
3E00
3600
E380
E380
0000
0000
E380
E780
3E00
1C00
ENDCHAR
STARTCHAR 224F
ENCODING 8783
SWIDTH 609 0
DWIDTH 11 0
BBX 9 8 1 3
BITMAP
1C00
3E00
E780
E380
0000
0000
FF80
FF80
ENDCHAR
STARTCHAR 2250
ENCODING 8784
SWIDTH 609 0
DWIDTH 11 0
BBX 9 10 1 3
BITMAP
1C00
1C00
1C00
0000
FF80
FF80
0000
0000
FF80
FF80
ENDCHAR
STARTCHAR 2251
ENCODING 8785
SWIDTH 609 0
DWIDTH 11 0
BBX 9 14 1 -1
BITMAP
1C00
1C00
1C00
0000
FF80
FF80
0000
0000
FF80
FF80
0000
1C00
1C00
1C00
ENDCHAR
STARTCHAR 2252
ENCODING 8786
SWIDTH 609 0
DWIDTH 11 0
BBX 9 14 1 -1
BITMAP
E000
E000
E000
0000
FF80
FF80
0000
0000
FF80
FF80
0000
0380
0380
0380
ENDCHAR
STARTCHAR 2253
ENCODING 8787
SWIDTH 609 0
DWIDTH 11 0
BBX 9 14 1 -1
BITMAP
0380
0380
0380
0000
FF80
FF80
0000
0000
FF80
FF80
0000
E000
E000
E000
ENDCHAR
STARTCHAR 2254
ENCODING 8788
SWIDTH 609 0
DWIDTH 11 0
BBX 9 7 1 2
BITMAP
C000
DF80
DF80
0000
C000
DF80
DF80
ENDCHAR
STARTCHAR 2255
ENCODING 8789
SWIDTH 609 0
DWIDTH 11 0
BBX 9 7 1 2
BITMAP
0180
FD80
FD80
0000
0180
FD80
FD80
ENDCHAR
STARTCHAR 2256
ENCODING 8790
SWIDTH 609 0
DWIDTH 11 0
BBX 9 6 1 3
BITMAP
FF80
FF80
3600
3600
FF80
FF80
ENDCHAR
STARTCHAR 2257
ENCODING 8791
SWIDTH 609 0
DWIDTH 11 0
BBX 9 12 1 3
BITMAP
1C00
3E00
2200
3E00
1C00
0000
FF80
FF80
0000
0000
FF80
FF80
ENDCHAR
STARTCHAR 2258
ENCODING 8792
SWIDTH 609 0
DWIDTH 11 0
BBX 9 10 1 3
BITMAP
3E00
7F00
4100
0000
FF80
FF80
0000
0000
FF80
FF80
ENDCHAR
STARTCHAR 2259
ENCODING 8793
SWIDTH 609 0
DWIDTH 11 0
BBX 9 12 1 3
BITMAP
0800
1C00
1C00
3600
3600
0000
FF80
FF80
0000
0000
FF80
FF80
ENDCHAR
STARTCHAR 225A
ENCODING 8794
SWIDTH 609 0
DWIDTH 11 0
BBX 9 12 1 3
BITMAP
3600
3600
1C00
1C00
0800
0000
FF80
FF80
0000
0000
FF80
FF80
ENDCHAR
STARTCHAR 225B
ENCODING 8795
SWIDTH 609 0
DWIDTH 11 0
BBX 9 14 1 3
BITMAP
0800
0800
4F00
3E00
1C00
1400
2200
0000
FF80
FF80
0000
0000
FF80
FF80
ENDCHAR
STARTCHAR 225C
ENCODING 8796
SWIDTH 609 0
DWIDTH 11 0
BBX 9 14 1 3
BITMAP
0800
0800
1C00
1400
3400
3600
3E00
4000
FF80
FF80
0000
0000
FF80
FF80
ENDCHAR
STARTCHAR 225D
ENCODING 8797
SWIDTH 609 0
DWIDTH 11 0
BBX 9 11 1 2
BITMAP
2180
ED80
BD00
ED00
0000
FF80
FF80
0000
0000
FF80
FF80
ENDCHAR
STARTCHAR 225E
ENCODING 8798
SWIDTH 609 0
DWIDTH 11 0
BBX 9 12 1 3
BITMAP
7F00
4900
4900
4900
4900
0000
FF80
FF80
0000
0000
FF80
FF80
ENDCHAR
STARTCHAR 225F
ENCODING 8799
SWIDTH 609 0
DWIDTH 11 0
BBX 9 13 1 3
BITMAP
3C00
0400
0C00
1000
1800
1800
0000
FF80
FF80
0000
0000
FF80
FF80
ENDCHAR
STARTCHAR 2260
ENCODING 8800
SWIDTH 609 0
DWIDTH 11 0
BBX 9 12 1 0
BITMAP
0100
0180
0300
FF80
FF80
0C00
1800
FF80
FF80
6000
C000
4000
ENDCHAR
STARTCHAR 2261
ENCODING 8801
SWIDTH 609 0
DWIDTH 11 0
BBX 9 10 1 1
BITMAP
FF80
FF80
0000
0000
FF80
FF80
0000
0000
FF80
FF80
ENDCHAR
STARTCHAR 2262
ENCODING 8802
SWIDTH 609 0
DWIDTH 11 0
BBX 9 14 1 -1
BITMAP
0200
0300
FF80
FF80
0E00
0C00
FF80
FF80
1800
3000
FF80
FF80
6000
2000
ENDCHAR
STARTCHAR 2263
ENCODING 8803
SWIDTH 609 0
DWIDTH 11 0
BBX 9 13 1 -1
BITMAP
FF80
FF80
0000
0000
FF80
FF80
0000
FF80
FF80
0000
0000
FF80
FF80
ENDCHAR
STARTCHAR 2264
ENCODING 8804
SWIDTH 609 0
DWIDTH 11 0
BBX 9 10 1 0
BITMAP
0380
1F80
FC00
E000
FC00
1F80
0380
0000
FF80
FF80
ENDCHAR
STARTCHAR 2265
ENCODING 8805
SWIDTH 609 0
DWIDTH 11 0
BBX 9 10 1 0
BITMAP
E000
FC00
1F80
0380
1F80
FC00
E000
0000
FF80
FF80
ENDCHAR
STARTCHAR 2266
ENCODING 8806
SWIDTH 609 0
DWIDTH 11 0
BBX 9 13 1 -2
BITMAP
0380
1F80
FC00
E000
FC00
1F80
0380
0080
FF80
FF80
0000
FF80
FF80
ENDCHAR
STARTCHAR 2267
ENCODING 8807
SWIDTH 609 0
DWIDTH 11 0
BBX 9 13 1 -2
BITMAP
E000
FC00
1F80
0380
1F80
FC00
E000
8000
FF80
FF80
0000
FF80
FF80
ENDCHAR
STARTCHAR 2268
ENCODING 8808
SWIDTH 609 0
DWIDTH 11 0
BBX 9 14 1 -3
BITMAP
0380
1F80
FC00
E000
FC00
1F80
0380
0380
FF80
FF80
1C00
FF80
FF80
6000
ENDCHAR
STARTCHAR 2269
ENCODING 8809
SWIDTH 609 0
DWIDTH 11 0
BBX 9 14 1 -3
BITMAP
E000
FC00
1F80
0380
1F80
FC00
E000
8300
FF80
FF80
1C00
FF80
FF80
6000
ENDCHAR
STARTCHAR 226D
ENCODING 8813
SWIDTH 609 0
DWIDTH 11 0
BBX 9 13 1 -1
BITMAP
0200
0300
0600
C780
FF80
3E00
1800
1C00
FF80
F180
3000
6000
2000
ENDCHAR
STARTCHAR 226E
ENCODING 8814
SWIDTH 609 0
DWIDTH 11 0
BBX 9 11 1 0
BITMAP
0200
0780
0F80
3E00
FC00
E800
F800
1F00
1780
3080
3000
ENDCHAR
STARTCHAR 226F
ENCODING 8815
SWIDTH 609 0
DWIDTH 11 0
BBX 9 11 1 0
BITMAP
0600
C400
FC00
3E00
0F80
1B80
1F80
7C00
F000
A000
6000
ENDCHAR
STARTCHAR 2270
ENCODING 8816
SWIDTH 609 0
DWIDTH 11 0
BBX 9 14 1 -2
BITMAP
0200
0300
0780
1F80
FE00
EC00
FC00
1F80
1B80
1800
FF80
FF80
3000
1000
ENDCHAR
STARTCHAR 2271
ENCODING 8817
SWIDTH 609 0
DWIDTH 11 0
BBX 9 14 1 -2
BITMAP
0400
0600
EC00
FC00
1F80
1B80
1F80
FC00
F000
3000
FF80
FF80
4000
C000
ENDCHAR
STARTCHAR 2272
ENCODING 8818
SWIDTH 609 0
DWIDTH 11 0
BBX 9 10 1 0
BITMAP
0180
0F80
7E00
F000
F800
3F80
0780
0080
FF80
FF80
ENDCHAR
STARTCHAR 2273
ENCODING 8819
SWIDTH 609 0
DWIDTH 11 0
BBX 9 10 1 0
BITMAP
C000
F800
3F00
0780
0F80
FE00
F000
8000
FF80
FF80
ENDCHAR
STARTCHAR 2274
ENCODING 8820
SWIDTH 609 0
DWIDTH 11 0
BBX 9 13 1 -1
BITMAP
0200
0300
0380
0F80
7E00
FC00
FC00
3F80
1F80
1880
FF80
FF80
3000
ENDCHAR
STARTCHAR 2275
ENCODING 8821
SWIDTH 609 0
DWIDTH 11 0
BBX 9 14 1 -1
BITMAP
0400
0600
CC00
FC00
3F00
1F80
1F80
FE00
F000
B000
F880
FF80
E700
4000
ENDCHAR
STARTCHAR 2276
ENCODING 8822
SWIDTH 609 0
DWIDTH 11 0
BBX 9 14 1 -2
BITMAP
0380
1F80
FE00
E000
FC00
3F80
8380
F080
FE00
0F80
0780
3F00
F800
C000
ENDCHAR
STARTCHAR 2277
ENCODING 8823
SWIDTH 609 0
DWIDTH 11 0
BBX 9 14 1 -2
BITMAP
C000
FC00
3F80
0380
1F80
FC00
E080
8780
3F00
F800
F000
7E00
0F80
0180
ENDCHAR
STARTCHAR 2278
ENCODING 8824
SWIDTH 609 0
DWIDTH 11 0
BBX 9 18 1 -4
BITMAP
0300
0300
0780
1F80
FE00
EE00
FC00
3F80
9F80
F880
FE00
1F80
3780
3F00
F800
E000
6000
2000
ENDCHAR
STARTCHAR 2279
ENCODING 8825
SWIDTH 609 0
DWIDTH 11 0
BBX 9 18 1 -4
BITMAP
0300
0300
E700
FE00
3F80
0F80
1F80
FC00
FC80
9F80
3F00
F800
F000
7E00
3F80
6180
6000
2000
ENDCHAR
STARTCHAR 227A
ENCODING 8826
SWIDTH 609 0
DWIDTH 11 0
BBX 9 13 1 -1
BITMAP
0080
0080
0180
0780
1F00
FC00
F000
FE00
0F00
0380
0180
0080
0080
ENDCHAR
STARTCHAR 227B
ENCODING 8827
SWIDTH 609 0
DWIDTH 11 0
BBX 9 13 1 -1
BITMAP
8000
8000
C000
F000
7C00
1F80
0F80
3F80
7800
E000
C000
8000
8000
ENDCHAR
STARTCHAR 227C
ENCODING 8828
SWIDTH 609 0
DWIDTH 11 0
BBX 9 17 1 -3
BITMAP
0080
0080
0180
0380
1F00
FC00
F000
FE00
0F00
C380
F180
3C80
0E00
0300
0180
0080
0080
ENDCHAR
STARTCHAR 227D
ENCODING 8829
SWIDTH 609 0
DWIDTH 11 0
BBX 9 17 1 -3
BITMAP
8000
8000
C000
E000
7C00
1F80
0F80
3F80
7800
E180
CF80
9E00
3800
6000
C000
8000
8000
ENDCHAR
STARTCHAR 227E
ENCODING 8830
SWIDTH 609 0
DWIDTH 11 0
BBX 9 15 1 -2
BITMAP
0080
0080
0380
0700
FE00
F800
FC00
3E00
0780
0180
0080
0080
F880
FF80
8F00
ENDCHAR
STARTCHAR 227F
ENCODING 8831
SWIDTH 609 0
DWIDTH 11 0
BBX 9 15 1 -2
BITMAP
8000
8000
E000
7000
3F80
0F80
1F80
7C00
F000
C000
8000
8000
7880
FF80
8700
ENDCHAR
STARTCHAR 2280
ENCODING 8832
SWIDTH 609 0
DWIDTH 11 0
BBX 9 15 1 -2
BITMAP
0380
0380
0380
0780
0780
1F00
FE00
FC00
FE00
1F00
1B80
1980
3880
3080
3000
ENDCHAR
STARTCHAR 2281
ENCODING 8833
SWIDTH 609 0
DWIDTH 11 0
BBX 9 15 1 -2
BITMAP
0600
8600
8C00
CC00
FC00
7C00
1F80
1F80
3F80
7800
F000
E000
E000
E000
C000
ENDCHAR
STARTCHAR 2282
ENCODING 8834
SWIDTH 609 0
DWIDTH 11 0
BBX 9 9 1 1
BITMAP
3F80
7F80
E000
C000
C000
C000
E000
7F80
3F80
ENDCHAR
STARTCHAR 2283
ENCODING 8835
SWIDTH 609 0
DWIDTH 11 0
BBX 9 9 1 1
BITMAP
FE00
FF00
0380
0180
0180
0180
0380
FF00
FE00
ENDCHAR
STARTCHAR 2284
ENCODING 8836
SWIDTH 609 0
DWIDTH 11 0
BBX 9 13 1 -1
BITMAP
0300
0600
3F80
7F80
EC00
CC00
C800
D800
F800
7F80
3F80
2000
6000
ENDCHAR
STARTCHAR 2285
ENCODING 8837
SWIDTH 609 0
DWIDTH 11 0
BBX 9 13 1 -1
BITMAP
0300
0600
FE00
FF00
0F80
0D80
0980
1980
1B80
FF00
FE00
2000
6000
ENDCHAR
STARTCHAR 2286
ENCODING 8838
SWIDTH 609 0
DWIDTH 11 0
BBX 9 12 1 0
BITMAP
3F80
7F80
E000
C000
C000
C000
E000
7F80
3F80
0000
FF80
FF80
ENDCHAR
STARTCHAR 2287
ENCODING 8839
SWIDTH 609 0
DWIDTH 11 0
BBX 9 12 1 0
BITMAP
FE00
FF00
0380
0180
0180
0180
0380
FF00
FE00
0000
FF80
FF80
ENDCHAR
STARTCHAR 2288
ENCODING 8840
SWIDTH 609 0
DWIDTH 11 0
BBX 9 16 1 -2
BITMAP
0200
0300
3F80
7F80
E400
CC00
CC00
D800
F800
7F80
3F80
3000
FF80
FF80
6000
C000
ENDCHAR
STARTCHAR 2289
ENCODING 8841
SWIDTH 609 0
DWIDTH 11 0
BBX 9 16 1 -2
BITMAP
0200
0300
FE00
FF00
0780
0D80
0D80
1980
1B80
FF00
FE00
3000
FF80
FF80
6000
C000
ENDCHAR
STARTCHAR 228A
ENCODING 8842
SWIDTH 609 0
DWIDTH 11 0
BBX 9 14 1 -2
BITMAP
3F80
7F80
E000
C000
C000
C000
E000
7F80
3F80
0E00
FF80
FF80
3800
1000
ENDCHAR
STARTCHAR 228B
ENCODING 8843
SWIDTH 609 0
DWIDTH 11 0
BBX 9 14 1 -2
BITMAP
FE00
FF00
0380
0180
0180
0180
0380
FF00
FE00
0E00
FF80
FF80
3800
1000
ENDCHAR
STARTCHAR 228D
ENCODING 8845
SWIDTH 609 0
DWIDTH 11 0
BBX 9 12 1 0
BITMAP
C180
C180
C180
C180
C180
DD80
DD80
C180
C180
E380
7F00
3E00
ENDCHAR
STARTCHAR 228E
ENCODING 8846
SWIDTH 609 0
DWIDTH 11 0
BBX 9 12 1 0
BITMAP
C180
C180
C180
C180
C980
C980
DD80
C980
C180
E380
7F00
3E00
ENDCHAR
STARTCHAR 228F
ENCODING 8847
SWIDTH 609 0
DWIDTH 11 0
BBX 9 10 1 1
BITMAP
FF80
FF80
C000
C000
C000
C000
C000
C000
FF80
FF80
ENDCHAR
STARTCHAR 2290
ENCODING 8848
SWIDTH 609 0
DWIDTH 11 0
BBX 9 10 1 1
BITMAP
FF80
FF80
0180
0180
0180
0180
0180
0180
FF80
FF80
ENDCHAR
STARTCHAR 2291
ENCODING 8849
SWIDTH 609 0
DWIDTH 11 0
BBX 9 12 1 0
BITMAP
FF80
FF80
C000
C000
C000
C000
FF80
FF80
0000
0000
FF80
FF80
ENDCHAR
STARTCHAR 2292
ENCODING 8850
SWIDTH 609 0
DWIDTH 11 0
BBX 9 12 1 0
BITMAP
FF80
FF80
0180
0180
0180
0180
FF80
FF80
0000
0000
FF80
FF80
ENDCHAR
STARTCHAR 2293
ENCODING 8851
SWIDTH 609 0
DWIDTH 11 0
BBX 9 11 1 0
BITMAP
FF80
FF80
C180
C180
C180
C180
C180
C180
C180
C180
C180
ENDCHAR
STARTCHAR 2294
ENCODING 8852
SWIDTH 609 0
DWIDTH 11 0
BBX 9 11 1 0
BITMAP
C180
C180
C180
C180
C180
C180
C180
C180
C180
FF80
FF80
ENDCHAR
STARTCHAR 2295
ENCODING 8853
SWIDTH 609 0
DWIDTH 11 0
BBX 11 10 0 0
BITMAP
1F00
3F80
65C0
C4C0
FF60
FF60
C4C0
75C0
3F80
1F00
ENDCHAR
STARTCHAR 2296
ENCODING 8854
SWIDTH 609 0
DWIDTH 11 0
BBX 11 10 0 0
BITMAP
1F00
3F80
71C0
C0C0
FF60
FF60
C0C0
71C0
3F80
1F00
ENDCHAR
STARTCHAR 2297
ENCODING 8855
SWIDTH 609 0
DWIDTH 11 0
BBX 11 10 0 0
BITMAP
1F00
3F80
71C0
DBC0
CE60
CE60
DBC0
71C0
3F80
1F00
ENDCHAR
STARTCHAR 2298
ENCODING 8856
SWIDTH 609 0
DWIDTH 11 0
BBX 11 10 0 0
BITMAP
1F00
3F80
71C0
C3C0
C660
CC60
D8C0
71C0
3F80
1F00
ENDCHAR
STARTCHAR 2299
ENCODING 8857
SWIDTH 609 0
DWIDTH 11 0
BBX 11 10 0 0
BITMAP
1F00
3F80
71C0
CEC0
CE60
CE60
C0C0
71C0
3F80
1F00
ENDCHAR
STARTCHAR 229A
ENCODING 8858
SWIDTH 609 0
DWIDTH 11 0
BBX 11 10 0 0
BITMAP
1F00
3F80
71C0
CEC0
DB60
DB60
CEC0
71C0
3F80
1F00
ENDCHAR
STARTCHAR 229B
ENCODING 8859
SWIDTH 609 0
DWIDTH 11 0
BBX 11 10 0 0
BITMAP
1F00
3F80
64C0
F5C0
DF60
DF60
F5C0
64C0
3F80
1F00
ENDCHAR
STARTCHAR 229C
ENCODING 8860
SWIDTH 609 0
DWIDTH 11 0
BBX 11 10 0 0
BITMAP
1F00
3F80
71C0
DFC0
C060
DF60
C0C0
71C0
3F80
1F00
ENDCHAR
STARTCHAR 229D
ENCODING 8861
SWIDTH 609 0
DWIDTH 11 0
BBX 11 10 0 0
BITMAP
1F00
3F80
71C0
C0C0
CE60
CE60
C0C0
71C0
3F80
1F00
ENDCHAR
STARTCHAR 229E
ENCODING 8862
SWIDTH 609 0
DWIDTH 11 0
BBX 10 10 0 1
BITMAP
FFC0
FFC0
C440
C440
FF40
FF40
C440
C440
FFC0
FFC0
ENDCHAR
STARTCHAR 229F
ENCODING 8863
SWIDTH 609 0
DWIDTH 11 0
BBX 10 10 0 1
BITMAP
FFC0
FFC0
C040
C040
FF40
FF40
C040
C040
FFC0
FFC0
ENDCHAR
STARTCHAR 22A0
ENCODING 8864
SWIDTH 609 0
DWIDTH 11 0
BBX 10 10 0 1
BITMAP
FFC0
FFC0
D140
FBC0
CE40
CE40
FBC0
D140
FFC0
FFC0
ENDCHAR
STARTCHAR 22A1
ENCODING 8865
SWIDTH 609 0
DWIDTH 11 0
BBX 10 10 0 1
BITMAP
FFC0
FFC0
C040
C040
CE40
CE40
CE40
C040
FFC0
FFC0
ENDCHAR
STARTCHAR 22A2
ENCODING 8866
SWIDTH 609 0
DWIDTH 11 0
BBX 9 11 1 0
BITMAP
C000
C000
C000
C000
FF80
FF80
C000
C000
C000
C000
C000
ENDCHAR
STARTCHAR 22A3
ENCODING 8867
SWIDTH 609 0
DWIDTH 11 0
BBX 9 11 1 0
BITMAP
0180
0180
0180
0180
FF80
FF80
0180
0180
0180
0180
0180
ENDCHAR
STARTCHAR 22A4
ENCODING 8868
SWIDTH 609 0
DWIDTH 11 0
BBX 9 11 1 0
BITMAP
FF80
FF80
1800
1800
1800
1800
1800
1800
1800
1800
1800
ENDCHAR
STARTCHAR 22B2
ENCODING 8882
SWIDTH 609 0
DWIDTH 11 0
BBX 9 9 1 1
BITMAP
0180
0F80
3F80
F180
E180
F980
1F80
0780
0080
ENDCHAR
STARTCHAR 22B3
ENCODING 8883
SWIDTH 609 0
DWIDTH 11 0
BBX 9 9 1 1
BITMAP
C000
F800
FE00
CF80
C380
CF80
FC00
F000
8000
ENDCHAR
STARTCHAR 22B4
ENCODING 8884
SWIDTH 609 0
DWIDTH 11 0
BBX 9 10 1 0
BITMAP
0380
1F80
FD80
E180
FD80
1F80
0380
0000
FF80
FF80
ENDCHAR
STARTCHAR 22B5
ENCODING 8885
SWIDTH 609 0
DWIDTH 11 0
BBX 9 10 1 0
BITMAP
E000
FC00
DF80
C380
DF80
FC00
E000
0000
FF80
FF80
ENDCHAR
STARTCHAR 22B8
ENCODING 8888
SWIDTH 609 0
DWIDTH 11 0
BBX 11 5 0 3
BITMAP
01C0
0240
FE60
FE40
03C0
ENDCHAR
STARTCHAR 22C2
ENCODING 8898
SWIDTH 609 0
DWIDTH 11 0
BBX 9 18 1 -4
BITMAP
3E00
7F00
E380
C180
C180
C180
C180
C180
C180
C180
C180
C180
C180
C180
C180
C180
C180
C180
ENDCHAR
STARTCHAR 22C3
ENCODING 8899
SWIDTH 609 0
DWIDTH 11 0
BBX 9 17 1 -4
BITMAP
C180
C180
C180
C180
C180
C180
C180
C180
C180
C180
C180
C180
C180
C180
E380
7F00
3E00
ENDCHAR
STARTCHAR 22C4
ENCODING 8900
SWIDTH 609 0
DWIDTH 11 0
BBX 11 11 0 1
BITMAP
0400
0E00
1B00
3180
60C0
C060
60C0
3180
1B00
0E00
0400
ENDCHAR
STARTCHAR 22C5
ENCODING 8901
SWIDTH 609 0
DWIDTH 11 0
BBX 3 3 4 5
BITMAP
E0
E0
E0
ENDCHAR
STARTCHAR 22C6
ENCODING 8902
SWIDTH 609 0
DWIDTH 11 0
BBX 7 6 2 3
BITMAP
10
10
FE
38
38
44
ENDCHAR
STARTCHAR 22CD
ENCODING 8909
SWIDTH 609 0
DWIDTH 11 0
BBX 9 6 1 3
BITMAP
8F80
FF80
F080
0000
FF80
FF80
ENDCHAR
STARTCHAR 22CE
ENCODING 8910
SWIDTH 609 0
DWIDTH 11 0
BBX 11 11 0 0
BITMAP
F1E0
3380
3B80
1B00
1F00
0E00
0E00
0E00
0E00
0E00
0E00
ENDCHAR
STARTCHAR 22CF
ENCODING 8911
SWIDTH 609 0
DWIDTH 11 0
BBX 11 11 0 0
BITMAP
0E00
0E00
0E00
0E00
0E00
0E00
1F00
1B00
3B80
3380
F1E0
ENDCHAR
STARTCHAR 22D0
ENCODING 8912
SWIDTH 609 0
DWIDTH 11 0
BBX 9 12 1 0
BITMAP
1F80
3F80
7000
EF80
DF80
D800
D800
DF80
EF80
7000
3F80
1F80
ENDCHAR
STARTCHAR 22D1
ENCODING 8913
SWIDTH 609 0
DWIDTH 11 0
BBX 9 12 1 0
BITMAP
FC00
FE00
0700
FB80
F980
0D80
0D80
F980
FB80
0700
FE00
F800
ENDCHAR
STARTCHAR 22DA
ENCODING 8922
SWIDTH 609 0
DWIDTH 11 0
BBX 9 18 1 -5
BITMAP
0380
1F80
FC00
E000
FC00
1F80
0380
0080
FF80
FF80
8000
E000
FC00
1F80
0380
3F80
FC00
C000
ENDCHAR
STARTCHAR 22DB
ENCODING 8923
SWIDTH 609 0
DWIDTH 11 0
BBX 9 18 1 -5
BITMAP
E000
FC00
1F80
0380
1F80
FC00
E000
8000
FF80
FF80
0080
0380
1F80
FC00
E000
FE00
1F80
0380
ENDCHAR
STARTCHAR 22DC
ENCODING 8924
SWIDTH 609 0
DWIDTH 11 0
BBX 9 10 1 0
BITMAP
FF80
FF80
0080
0380
1F80
FC00
E000
FE00
1F80
0380
ENDCHAR
STARTCHAR 22DD
ENCODING 8925
SWIDTH 609 0
DWIDTH 11 0
BBX 9 10 1 0
BITMAP
FF80
FF80
8000
E000
FC00
1F80
0380
3F80
FC00
C000
ENDCHAR
STARTCHAR 22DE
ENCODING 8926
SWIDTH 609 0
DWIDTH 11 0
BBX 9 17 1 -4
BITMAP
0080
0080
0180
0300
0E00
3C80
F180
C380
0F00
FE00
F000
FC00
1F00
0380
0180
0080
0080
ENDCHAR
STARTCHAR 22DF
ENCODING 8927
SWIDTH 609 0
DWIDTH 11 0
BBX 9 17 1 -4
BITMAP
8000
8000
C000
6000
3800
9E00
CF80
E180
7800
3F80
0F80
1F80
7C00
E000
C000
8000
8000
ENDCHAR
STARTCHAR 22E0
ENCODING 8928
SWIDTH 609 0
DWIDTH 11 0
BBX 9 19 1 -4
BITMAP
0600
0680
0680
0780
0F80
1F00
FC00
FC00
7E00
1F00
DB80
F980
3C80
1E00
3300
3180
3080
3080
7000
ENDCHAR
STARTCHAR 22E1
ENCODING 8929
SWIDTH 609 0
DWIDTH 11 0
BBX 9 19 1 -4
BITMAP
0600
8600
8600
C600
FE00
7C00
1F80
0F80
3F00
7800
F980
9F80
9E00
7800
F000
F000
B000
B000
7000
ENDCHAR
STARTCHAR 22E2
ENCODING 8930
SWIDTH 609 0
DWIDTH 11 0
BBX 9 16 1 -2
BITMAP
0300
0300
FF80
FF80
C600
CC00
CC00
DC00
FF80
FF80
3800
3000
FF80
FF80
6000
6000
ENDCHAR
STARTCHAR 22E3
ENCODING 8931
SWIDTH 609 0
DWIDTH 11 0
BBX 9 16 1 -2
BITMAP
0300
0300
FF80
FF80
0780
0D80
0D80
1D80
FF80
FF80
3800
3000
FF80
FF80
6000
6000
ENDCHAR
STARTCHAR 22E4
ENCODING 8932
SWIDTH 609 0
DWIDTH 11 0
BBX 9 14 1 -2
BITMAP
FF80
FF80
C000
C000
C000
C000
FF80
FF80
0600
0E00
FF80
FF80
3800
1000
ENDCHAR
STARTCHAR 22E5
ENCODING 8933
SWIDTH 609 0
DWIDTH 11 0
BBX 9 14 1 -2
BITMAP
FF80
FF80
0180
0180
0180
0180
FF80
FF80
0600
0E00
FF80
FF80
3800
1000
ENDCHAR
STARTCHAR 22E6
ENCODING 8934
SWIDTH 609 0
DWIDTH 11 0
BBX 9 12 1 -2
BITMAP
0180
0F80
7E00
F000
F800
3F80
0F80
0C80
FF80
FF80
1800
3000
ENDCHAR
STARTCHAR 22E7
ENCODING 8935
SWIDTH 609 0
DWIDTH 11 0
BBX 9 12 1 -2
BITMAP
C000
F800
3F00
0780
0F80
FE00
FC00
8C00
FF80
FF80
1800
3000
ENDCHAR
STARTCHAR 22E8
ENCODING 8936
SWIDTH 609 0
DWIDTH 11 0
BBX 9 17 1 -4
BITMAP
0080
0080
0380
0700
FE00
F800
FC00
3E00
0780
0180
0C80
0C80
FC80
FF80
9F00
1800
3000
ENDCHAR
STARTCHAR 22E9
ENCODING 8937
SWIDTH 609 0
DWIDTH 11 0
BBX 9 17 1 -4
BITMAP
8000
8000
E000
7000
3F80
0F80
1F80
7C00
F000
C000
8C00
8C00
7C80
FF80
9F00
1800
3000
ENDCHAR
STARTCHAR 22EF
ENCODING 8943
SWIDTH 609 0
DWIDTH 11 0
BBX 9 3 1 4
BITMAP
DD80
DD80
DD80
ENDCHAR
STARTCHAR 2304
ENCODING 8964
SWIDTH 609 0
DWIDTH 11 0
BBX 9 6 1 -2
BITMAP
C180
6300
3600
1400
1C00
0800
ENDCHAR
STARTCHAR 2308
ENCODING 8968
SWIDTH 609 0
DWIDTH 11 0
BBX 4 17 4 -3
BITMAP
F0
F0
C0
C0
C0
C0
C0
C0
C0
C0
C0
C0
C0
C0
C0
C0
C0
ENDCHAR
STARTCHAR 2309
ENCODING 8969
SWIDTH 609 0
DWIDTH 11 0
BBX 4 17 3 -3
BITMAP
F0
F0
30
30
30
30
30
30
30
30
30
30
30
30
30
30
30
ENDCHAR
STARTCHAR 230A
ENCODING 8970
SWIDTH 609 0
DWIDTH 11 0
BBX 4 16 4 -2
BITMAP
C0
C0
C0
C0
C0
C0
C0
C0
C0
C0
C0
C0
C0
C0
F0
F0
ENDCHAR
STARTCHAR 230B
ENCODING 8971
SWIDTH 609 0
DWIDTH 11 0
BBX 4 16 3 -2
BITMAP
30
30
30
30
30
30
30
30
30
30
30
30
30
30
F0
F0
ENDCHAR
STARTCHAR 2310
ENCODING 8976
SWIDTH 609 0
DWIDTH 11 0
BBX 9 4 1 4
BITMAP
FF80
FF80
C000
C000
ENDCHAR
STARTCHAR 2320
ENCODING 8992
SWIDTH 609 0
DWIDTH 11 0
BBX 6 21 4 -4
BITMAP
1C
2C
6C
60
60
60
E0
E0
E0
E0
E0
E0
E0
E0
E0
E0
E0
E0
E0
E0
E0
ENDCHAR
STARTCHAR 2321
ENCODING 8993
SWIDTH 609 0
DWIDTH 11 0
BBX 6 21 1 -4
BITMAP
1C
1C
1C
1C
1C
1C
1C
1C
1C
1C
1C
1C
18
18
18
18
18
18
D8
D0
E0
ENDCHAR
STARTCHAR 239B
ENCODING 9115
SWIDTH 609 0
DWIDTH 11 0
BBX 7 21 2 -4
BITMAP
0E
0C
1C
18
38
30
30
70
70
60
60
60
E0
E0
E0
E0
E0
E0
E0
E0
E0
ENDCHAR
STARTCHAR 239C
ENCODING 9116
SWIDTH 609 0
DWIDTH 11 0
BBX 3 21 2 -4
BITMAP
E0
E0
E0
E0
E0
E0
E0
E0
E0
E0
E0
E0
E0
E0
E0
E0
E0
E0
E0
E0
E0
ENDCHAR
STARTCHAR 239D
ENCODING 9117
SWIDTH 609 0
DWIDTH 11 0
BBX 7 21 2 -4
BITMAP
E0
E0
E0
E0
E0
E0
E0
E0
E0
60
60
60
70
70
30
30
38
18
1C
0C
0E
ENDCHAR
STARTCHAR 239E
ENCODING 9118
SWIDTH 609 0
DWIDTH 11 0
BBX 7 21 2 -4
BITMAP
E0
60
70
30
38
38
18
1C
1C
1C
0C
0C
0C
0E
0E
0E
0E
0E
0E
0E
0E
ENDCHAR
STARTCHAR 239F
ENCODING 9119
SWIDTH 609 0
DWIDTH 11 0
BBX 3 21 6 -4
BITMAP
E0
E0
E0
E0
E0
E0
E0
E0
E0
E0
E0
E0
E0
E0
E0
E0
E0
E0
E0
E0
E0
ENDCHAR
STARTCHAR 23A0
ENCODING 9120
SWIDTH 609 0
DWIDTH 11 0
BBX 7 21 2 -4
BITMAP
0E
0E
0E
0E
0E
0E
0E
0E
0C
0C
0C
0C
1C
18
18
38
38
30
70
60
E0
ENDCHAR
STARTCHAR 23A1
ENCODING 9121
SWIDTH 609 0
DWIDTH 11 0
BBX 7 21 2 -4
BITMAP
FE
FE
E0
E0
E0
E0
E0
E0
E0
E0
E0
E0
E0
E0
E0
E0
E0
E0
E0
E0
E0
ENDCHAR
STARTCHAR 23A2
ENCODING 9122
SWIDTH 609 0
DWIDTH 11 0
BBX 3 21 2 -4
BITMAP
E0
E0
E0
E0
E0
E0
E0
E0
E0
E0
E0
E0
E0
E0
E0
E0
E0
E0
E0
E0
E0
ENDCHAR
STARTCHAR 23A3
ENCODING 9123
SWIDTH 609 0
DWIDTH 11 0
BBX 7 21 2 -4
BITMAP
E0
E0
E0
E0
E0
E0
E0
E0
E0
E0
E0
E0
E0
E0
E0
E0
E0
E0
FE
FE
FE
ENDCHAR
STARTCHAR 23A4
ENCODING 9124
SWIDTH 609 0
DWIDTH 11 0
BBX 7 21 2 -4
BITMAP
FE
FE
0E
0E
0E
0E
0E
0E
0E
0E
0E
0E
0E
0E
0E
0E
0E
0E
0E
0E
0E
ENDCHAR
STARTCHAR 23A5
ENCODING 9125
SWIDTH 609 0
DWIDTH 11 0
BBX 3 21 6 -4
BITMAP
E0
E0
E0
E0
E0
E0
E0
E0
E0
E0
E0
E0
E0
E0
E0
E0
E0
E0
E0
E0
E0
ENDCHAR
STARTCHAR 23A6
ENCODING 9126
SWIDTH 609 0
DWIDTH 11 0
BBX 7 21 2 -4
BITMAP
0E
0E
0E
0E
0E
0E
0E
0E
0E
0E
0E
0E
0E
0E
0E
0E
0E
0E
FE
FE
FE
ENDCHAR
STARTCHAR 23A7
ENCODING 9127
SWIDTH 609 0
DWIDTH 11 0
BBX 7 21 4 -4
BITMAP
3E
7E
60
E0
E0
E0
E0
E0
E0
E0
E0
E0
E0
E0
E0
E0
E0
E0
E0
E0
E0
ENDCHAR
STARTCHAR 23A8
ENCODING 9128
SWIDTH 609 0
DWIDTH 11 0
BBX 7 21 0 -4
BITMAP
0E
0E
0E
0E
0E
0E
0E
0E
1C
FC
F8
1C
0C
0E
0E
0E
0E
0E
0E
0E
0E
ENDCHAR
STARTCHAR 23A9
ENCODING 9129
SWIDTH 609 0
DWIDTH 11 0
BBX 7 21 4 -4
BITMAP
E0
E0
E0
E0
E0
E0
E0
E0
E0
E0
E0
E0
E0
E0
E0
E0
E0
E0
60
7E
3E
ENDCHAR
STARTCHAR 23AA
ENCODING 9130
SWIDTH 609 0
DWIDTH 11 0
BBX 3 21 4 -4
BITMAP
E0
E0
E0
E0
E0
E0
E0
E0
E0
E0
E0
E0
E0
E0
E0
E0
E0
E0
E0
E0
E0
ENDCHAR
STARTCHAR 23AB
ENCODING 9131
SWIDTH 609 0
DWIDTH 11 0
BBX 7 21 0 -4
BITMAP
F8
FC
0C
0E
0E
0E
0E
0E
0E
0E
0E
0E
0E
0E
0E
0E
0E
0E
0E
0E
0E
ENDCHAR
STARTCHAR 23AC
ENCODING 9132
SWIDTH 609 0
DWIDTH 11 0
BBX 7 21 4 -4
BITMAP
E0
E0
E0
E0
E0
E0
E0
E0
70
7E
7E
70
E0
E0
E0
E0
E0
E0
E0
E0
E0
ENDCHAR
STARTCHAR 23AD
ENCODING 9133
SWIDTH 609 0
DWIDTH 11 0
BBX 7 21 0 -4
BITMAP
0E
0E
0E
0E
0E
0E
0E
0E
0E
0E
0E
0E
0E
0E
0E
0E
0E
0E
1C
FC
F8
ENDCHAR
STARTCHAR 23AE
ENCODING 9134
SWIDTH 609 0
DWIDTH 11 0
BBX 3 21 4 -4
BITMAP
E0
E0
E0
E0
E0
E0
E0
E0
E0
E0
E0
E0
E0
E0
E0
E0
E0
E0
E0
E0
E0
ENDCHAR
STARTCHAR 2500
ENCODING 9472
SWIDTH 609 0
DWIDTH 11 0
BBX 11 2 0 5
BITMAP
FFE0
FFE0
ENDCHAR
STARTCHAR 2501
ENCODING 9473
SWIDTH 609 0
DWIDTH 11 0
BBX 11 3 0 5
BITMAP
FFE0
FFE0
FFE0
ENDCHAR
STARTCHAR 2502
ENCODING 9474
SWIDTH 609 0
DWIDTH 11 0
BBX 1 21 5 -4
BITMAP
80
80
80
80
80
80
80
80
80
80
80
80
80
80
80
80
80
80
80
80
80
ENDCHAR
STARTCHAR 2503
ENCODING 9475
SWIDTH 609 0
DWIDTH 11 0
BBX 3 21 4 -4
BITMAP
E0
E0
E0
E0
E0
E0
E0
E0
E0
E0
E0
E0
E0
E0
E0
E0
E0
E0
E0
E0
E0
ENDCHAR
STARTCHAR 2504
ENCODING 9476
SWIDTH 609 0
DWIDTH 11 0
BBX 9 2 1 5
BITMAP
DD80
DD80
ENDCHAR
STARTCHAR 2505
ENCODING 9477
SWIDTH 609 0
DWIDTH 11 0
BBX 9 3 1 5
BITMAP
DD80
DD80
DD80
ENDCHAR
STARTCHAR 2506
ENCODING 9478
SWIDTH 609 0
DWIDTH 11 0
BBX 1 19 5 -4
BITMAP
80
80
80
80
80
00
00
80
80
80
80
80
00
00
80
80
80
80
80
ENDCHAR
STARTCHAR 2507
ENCODING 9479
SWIDTH 609 0
DWIDTH 11 0
BBX 3 19 4 -4
BITMAP
E0
E0
E0
E0
E0
00
00
E0
E0
E0
E0
E0
00
00
E0
E0
E0
E0
E0
ENDCHAR
STARTCHAR 2508
ENCODING 9480
SWIDTH 609 0
DWIDTH 11 0
BBX 9 2 1 5
BITMAP
B680
B680
ENDCHAR
STARTCHAR 2509
ENCODING 9481
SWIDTH 609 0
DWIDTH 11 0
BBX 9 3 1 5
BITMAP
B680
B680
B680
ENDCHAR
STARTCHAR 250A
ENCODING 9482
SWIDTH 609 0
DWIDTH 11 0
BBX 1 19 5 -4
BITMAP
80
80
80
80
00
80
80
80
80
00
80
80
80
80
00
80
80
80
80
ENDCHAR
STARTCHAR 250B
ENCODING 9483
SWIDTH 609 0
DWIDTH 11 0
BBX 3 19 4 -4
BITMAP
E0
E0
E0
E0
00
E0
E0
E0
E0
00
E0
E0
E0
E0
00
E0
E0
E0
E0
ENDCHAR
STARTCHAR 250C
ENCODING 9484
SWIDTH 609 0
DWIDTH 11 0
BBX 6 12 5 -4
BITMAP
FC
FC
80
80
80
80
80
80
80
80
80
80
ENDCHAR
STARTCHAR 250D
ENCODING 9485
SWIDTH 609 0
DWIDTH 11 0
BBX 6 12 5 -4
BITMAP
FC
FC
FC
80
80
80
80
80
80
80
80
80
ENDCHAR
STARTCHAR 250E
ENCODING 9486
SWIDTH 609 0
DWIDTH 11 0
BBX 7 12 4 -4
BITMAP
FE
FE
E0
E0
E0
E0
E0
E0
E0
E0
E0
E0
ENDCHAR
STARTCHAR 250F
ENCODING 9487
SWIDTH 609 0
DWIDTH 11 0
BBX 7 12 4 -4
BITMAP
FE
FE
FE
E0
E0
E0
E0
E0
E0
E0
E0
E0
ENDCHAR
STARTCHAR 2510
ENCODING 9488
SWIDTH 609 0
DWIDTH 11 0
BBX 6 12 0 -4
BITMAP
FC
FC
04
04
04
04
04
04
04
04
04
04
ENDCHAR
STARTCHAR 2511
ENCODING 9489
SWIDTH 609 0
DWIDTH 11 0
BBX 6 12 0 -4
BITMAP
FC
FC
FC
04
04
04
04
04
04
04
04
04
ENDCHAR
STARTCHAR 2512
ENCODING 9490
SWIDTH 609 0
DWIDTH 11 0
BBX 7 12 0 -4
BITMAP
FE
FE
0E
0E
0E
0E
0E
0E
0E
0E
0E
0E
ENDCHAR
STARTCHAR 2513
ENCODING 9491
SWIDTH 609 0
DWIDTH 11 0
BBX 7 12 0 -4
BITMAP
FE
FE
FE
0E
0E
0E
0E
0E
0E
0E
0E
0E
ENDCHAR
STARTCHAR 2514
ENCODING 9492
SWIDTH 609 0
DWIDTH 11 0
BBX 6 11 5 6
BITMAP
80
80
80
80
80
80
80
80
80
80
FC
ENDCHAR
STARTCHAR 2515
ENCODING 9493
SWIDTH 609 0
DWIDTH 11 0
BBX 6 12 5 5
BITMAP
80
80
80
80
80
80
80
80
80
FC
FC
FC
ENDCHAR
STARTCHAR 2516
ENCODING 9494
SWIDTH 609 0
DWIDTH 11 0
BBX 7 11 4 6
BITMAP
E0
E0
E0
E0
E0
E0
E0
E0
E0
E0
FE
ENDCHAR
STARTCHAR 2517
ENCODING 9495
SWIDTH 609 0
DWIDTH 11 0
BBX 7 12 4 5
BITMAP
E0
E0
E0
E0
E0
E0
E0
E0
E0
FE
FE
FE
ENDCHAR
STARTCHAR 2518
ENCODING 9496
SWIDTH 609 0
DWIDTH 11 0
BBX 6 11 0 6
BITMAP
04
04
04
04
04
04
04
04
04
04
FC
ENDCHAR
STARTCHAR 2519
ENCODING 9497
SWIDTH 609 0
DWIDTH 11 0
BBX 6 12 0 5
BITMAP
04
04
04
04
04
04
04
04
04
FC
FC
FC
ENDCHAR
STARTCHAR 251A
ENCODING 9498
SWIDTH 609 0
DWIDTH 11 0
BBX 7 11 0 6
BITMAP
0E
0E
0E
0E
0E
0E
0E
0E
0E
0E
FE
ENDCHAR
STARTCHAR 251B
ENCODING 9499
SWIDTH 609 0
DWIDTH 11 0
BBX 7 12 0 5
BITMAP
0E
0E
0E
0E
0E
0E
0E
0E
0E
FE
FE
FE
ENDCHAR
STARTCHAR 251C
ENCODING 9500
SWIDTH 609 0
DWIDTH 11 0
BBX 6 21 5 -4
BITMAP
80
80
80
80
80
80
80
80
80
FC
FC
80
80
80
80
80
80
80
80
80
80
ENDCHAR
STARTCHAR 251D
ENCODING 9501
SWIDTH 609 0
DWIDTH 11 0
BBX 6 21 5 -4
BITMAP
80
80
80
80
80
80
80
80
80
FC
FC
FC
80
80
80
80
80
80
80
80
80
ENDCHAR
STARTCHAR 251E
ENCODING 9502
SWIDTH 609 0
DWIDTH 11 0
BBX 7 21 4 -4
BITMAP
E0
E0
E0
E0
E0
E0
E0
E0
E0
E0
FE
FE
40
40
40
40
40
40
40
40
40
ENDCHAR
STARTCHAR 251F
ENCODING 9503
SWIDTH 609 0
DWIDTH 11 0
BBX 7 21 4 -4
BITMAP
40
40
40
40
40
40
40
40
40
40
FE
E0
E0
E0
E0
E0
E0
E0
E0
E0
E0
ENDCHAR
STARTCHAR 2520
ENCODING 9504
SWIDTH 609 0
DWIDTH 11 0
BBX 7 21 4 -4
BITMAP
E0
E0
E0
E0
E0
E0
E0
E0
E0
FE
FE
E0
E0
E0
E0
E0
E0
E0
E0
E0
E0
ENDCHAR
STARTCHAR 2521
ENCODING 9505
SWIDTH 609 0
DWIDTH 11 0
BBX 7 21 4 -4
BITMAP
E0
E0
E0
E0
E0
E0
E0
E0
E0
FE
FE
FE
40
40
40
40
40
40
40
40
40
ENDCHAR
STARTCHAR 2522
ENCODING 9506
SWIDTH 609 0
DWIDTH 11 0
BBX 7 21 4 -4
BITMAP
40
40
40
40
40
40
40
40
40
FE
FE
FE
E0
E0
E0
E0
E0
E0
E0
E0
E0
ENDCHAR
STARTCHAR 2523
ENCODING 9507
SWIDTH 609 0
DWIDTH 11 0
BBX 7 21 4 -4
BITMAP
E0
E0
E0
E0
E0
E0
E0
E0
E0
FE
FE
FE
E0
E0
E0
E0
E0
E0
E0
E0
E0
ENDCHAR
STARTCHAR 2524
ENCODING 9508
SWIDTH 609 0
DWIDTH 11 0
BBX 6 21 0 -4
BITMAP
04
04
04
04
04
04
04
04
04
FC
FC
04
04
04
04
04
04
04
04
04
04
ENDCHAR
STARTCHAR 2525
ENCODING 9509
SWIDTH 609 0
DWIDTH 11 0
BBX 6 21 0 -4
BITMAP
04
04
04
04
04
04
04
04
04
FC
FC
FC
04
04
04
04
04
04
04
04
04
ENDCHAR
STARTCHAR 2526
ENCODING 9510
SWIDTH 609 0
DWIDTH 11 0
BBX 7 21 0 -4
BITMAP
0E
0E
0E
0E
0E
0E
0E
0E
0E
0E
FE
04
04
04
04
04
04
04
04
04
04
ENDCHAR
STARTCHAR 2527
ENCODING 9511
SWIDTH 609 0
DWIDTH 11 0
BBX 7 21 0 -4
BITMAP
04
04
04
04
04
04
04
04
04
06
FE
0E
0E
0E
0E
0E
0E
0E
0E
0E
0E
ENDCHAR
STARTCHAR 2528
ENCODING 9512
SWIDTH 609 0
DWIDTH 11 0
BBX 7 21 0 -4
BITMAP
0E
0E
0E
0E
0E
0E
0E
0E
0E
FE
FE
0E
0E
0E
0E
0E
0E
0E
0E
0E
0E
ENDCHAR
STARTCHAR 2529
ENCODING 9513
SWIDTH 609 0
DWIDTH 11 0
BBX 7 21 0 -4
BITMAP
0E
0E
0E
0E
0E
0E
0E
0E
0E
FE
FE
FE
04
04
04
04
04
04
04
04
04
ENDCHAR
STARTCHAR 252A
ENCODING 9514
SWIDTH 609 0
DWIDTH 11 0
BBX 7 21 0 -4
BITMAP
04
04
04
04
04
04
04
04
04
FE
FE
FE
0E
0E
0E
0E
0E
0E
0E
0E
0E
ENDCHAR
STARTCHAR 252B
ENCODING 9515
SWIDTH 609 0
DWIDTH 11 0
BBX 7 21 0 -4
BITMAP
0E
0E
0E
0E
0E
0E
0E
0E
0E
FE
FE
FE
0E
0E
0E
0E
0E
0E
0E
0E
0E
ENDCHAR
STARTCHAR 252C
ENCODING 9516
SWIDTH 609 0
DWIDTH 11 0
BBX 11 12 0 -4
BITMAP
FFE0
FFE0
0400
0400
0400
0400
0400
0400
0400
0400
0400
0400
ENDCHAR
STARTCHAR 252D
ENCODING 9517
SWIDTH 609 0
DWIDTH 11 0
BBX 11 12 0 -4
BITMAP
FFE0
FFE0
FC00
0400
0400
0400
0400
0400
0400
0400
0400
0400
ENDCHAR
STARTCHAR 252E
ENCODING 9518
SWIDTH 609 0
DWIDTH 11 0
BBX 11 12 0 -4
BITMAP
FFE0
FFE0
07E0
0400
0400
0400
0400
0400
0400
0400
0400
0400
ENDCHAR
STARTCHAR 252F
ENCODING 9519
SWIDTH 609 0
DWIDTH 11 0
BBX 11 12 0 -4
BITMAP
FFE0
FFE0
FFE0
0400
0400
0400
0400
0400
0400
0400
0400
0400
ENDCHAR
STARTCHAR 2530
ENCODING 9520
SWIDTH 609 0
DWIDTH 11 0
BBX 11 12 0 -4
BITMAP
FFE0
FFE0
0E00
0E00
0E00
0E00
0E00
0E00
0E00
0E00
0E00
0E00
ENDCHAR
STARTCHAR 2531
ENCODING 9521
SWIDTH 609 0
DWIDTH 11 0
BBX 11 12 0 -4
BITMAP
FFE0
FFE0
FE00
0E00
0E00
0E00
0E00
0E00
0E00
0E00
0E00
0E00
ENDCHAR
STARTCHAR 2532
ENCODING 9522
SWIDTH 609 0
DWIDTH 11 0
BBX 11 12 0 -4
BITMAP
FFE0
FFE0
0FE0
0E00
0E00
0E00
0E00
0E00
0E00
0E00
0E00
0E00
ENDCHAR
STARTCHAR 2533
ENCODING 9523
SWIDTH 609 0
DWIDTH 11 0
BBX 11 12 0 -4
BITMAP
FFE0
FFE0
FFE0
0E00
0E00
0E00
0E00
0E00
0E00
0E00
0E00
0E00
ENDCHAR
STARTCHAR 2534
ENCODING 9524
SWIDTH 609 0
DWIDTH 11 0
BBX 11 11 0 6
BITMAP
0400
0400
0400
0400
0400
0400
0400
0400
0400
0400
FFE0
ENDCHAR
STARTCHAR 2535
ENCODING 9525
SWIDTH 609 0
DWIDTH 11 0
BBX 11 12 0 5
BITMAP
0400
0400
0400
0400
0400
0400
0400
0400
0400
FC00
FFE0
FFE0
ENDCHAR
STARTCHAR 2536
ENCODING 9526
SWIDTH 609 0
DWIDTH 11 0
BBX 11 12 0 5
BITMAP
0400
0400
0400
0400
0400
0400
0400
0400
0400
07E0
FFE0
FFE0
ENDCHAR
STARTCHAR 2537
ENCODING 9527
SWIDTH 609 0
DWIDTH 11 0
BBX 11 12 0 5
BITMAP
0400
0400
0400
0400
0400
0400
0400
0400
0400
FFE0
FFE0
FFE0
ENDCHAR
STARTCHAR 2538
ENCODING 9528
SWIDTH 609 0
DWIDTH 11 0
BBX 11 11 0 6
BITMAP
0E00
0E00
0E00
0E00
0E00
0E00
0E00
0E00
0E00
0E00
FFE0
ENDCHAR
STARTCHAR 2539
ENCODING 9529
SWIDTH 609 0
DWIDTH 11 0
BBX 11 12 0 5
BITMAP
0E00
0E00
0E00
0E00
0E00
0E00
0E00
0E00
0E00
FE00
FFE0
FFE0
ENDCHAR
STARTCHAR 253A
ENCODING 9530
SWIDTH 609 0
DWIDTH 11 0
BBX 11 12 0 5
BITMAP
0E00
0E00
0E00
0E00
0E00
0E00
0E00
0E00
0E00
0FE0
FFE0
FFE0
ENDCHAR
STARTCHAR 253B
ENCODING 9531
SWIDTH 609 0
DWIDTH 11 0
BBX 11 12 0 5
BITMAP
0E00
0E00
0E00
0E00
0E00
0E00
0E00
0E00
0E00
FFE0
FFE0
FFE0
ENDCHAR
STARTCHAR 253C
ENCODING 9532
SWIDTH 609 0
DWIDTH 11 0
BBX 11 21 0 -4
BITMAP
0400
0400
0400
0400
0400
0400
0400
0400
0400
FFE0
FFE0
0400
0400
0400
0400
0400
0400
0400
0400
0400
0400
ENDCHAR
STARTCHAR 253D
ENCODING 9533
SWIDTH 609 0
DWIDTH 11 0
BBX 11 21 0 -4
BITMAP
0400
0400
0400
0400
0400
0400
0400
0400
0400
FFE0
FFE0
FC00
0400
0400
0400
0400
0400
0400
0400
0400
0400
ENDCHAR
STARTCHAR 253E
ENCODING 9534
SWIDTH 609 0
DWIDTH 11 0
BBX 11 21 0 -4
BITMAP
0400
0400
0400
0400
0400
0400
0400
0400
0400
FFE0
FFE0
07E0
0400
0400
0400
0400
0400
0400
0400
0400
0400
ENDCHAR
STARTCHAR 253F
ENCODING 9535
SWIDTH 609 0
DWIDTH 11 0
BBX 11 21 0 -4
BITMAP
0400
0400
0400
0400
0400
0400
0400
0400
0400
FFE0
FFE0
FFE0
0400
0400
0400
0400
0400
0400
0400
0400
0400
ENDCHAR
STARTCHAR 2540
ENCODING 9536
SWIDTH 609 0
DWIDTH 11 0
BBX 11 21 0 -4
BITMAP
0E00
0E00
0E00
0E00
0E00
0E00
0E00
0E00
0E00
0FE0
FFE0
0400
0400
0400
0400
0400
0400
0400
0400
0400
0400
ENDCHAR
STARTCHAR 2541
ENCODING 9537
SWIDTH 609 0
DWIDTH 11 0
BBX 11 21 0 -4
BITMAP
0400
0400
0400
0400
0400
0400
0400
0400
0400
07E0
FFE0
0E00
0E00
0E00
0E00
0E00
0E00
0E00
0E00
0E00
0E00
ENDCHAR
STARTCHAR 2542
ENCODING 9538
SWIDTH 609 0
DWIDTH 11 0
BBX 11 21 0 -4
BITMAP
0E00
0E00
0E00
0E00
0E00
0E00
0E00
0E00
0E00
FFE0
FFE0
0E00
0E00
0E00
0E00
0E00
0E00
0E00
0E00
0E00
0E00
ENDCHAR
STARTCHAR 2543
ENCODING 9539
SWIDTH 609 0
DWIDTH 11 0
BBX 11 21 0 -4
BITMAP
0E00
0E00
0E00
0E00
0E00
0E00
0E00
0E00
0E00
FFE0
FFE0
FE00
0400
0400
0400
0400
0400
0400
0400
0400
0400
ENDCHAR
STARTCHAR 2544
ENCODING 9540
SWIDTH 609 0
DWIDTH 11 0
BBX 11 21 0 -4
BITMAP
0E00
0E00
0E00
0E00
0E00
0E00
0E00
0E00
0E00
FFE0
FFE0
0FE0
0400
0400
0400
0400
0400
0400
0400
0400
0400
ENDCHAR
STARTCHAR 2545
ENCODING 9541
SWIDTH 609 0
DWIDTH 11 0
BBX 11 21 0 -4
BITMAP
0400
0400
0400
0400
0400
0400
0400
0400
0400
FFE0
FFE0
FE00
0E00
0E00
0E00
0E00
0E00
0E00
0E00
0E00
0E00
ENDCHAR
STARTCHAR 2546
ENCODING 9542
SWIDTH 609 0
DWIDTH 11 0
BBX 11 21 0 -4
BITMAP
0400
0400
0400
0400
0400
0400
0400
0400
0400
FFE0
FFE0
0FE0
0E00
0E00
0E00
0E00
0E00
0E00
0E00
0E00
0E00
ENDCHAR
STARTCHAR 2547
ENCODING 9543
SWIDTH 609 0
DWIDTH 11 0
BBX 11 21 0 -4
BITMAP
0E00
0E00
0E00
0E00
0E00
0E00
0E00
0E00
0E00
FFE0
FFE0
FFE0
0400
0400
0400
0400
0400
0400
0400
0400
0400
ENDCHAR
STARTCHAR 2548
ENCODING 9544
SWIDTH 609 0
DWIDTH 11 0
BBX 11 21 0 -4
BITMAP
0400
0400
0400
0400
0400
0400
0400
0400
0400
FFE0
FFE0
FFE0
0E00
0E00
0E00
0E00
0E00
0E00
0E00
0E00
0E00
ENDCHAR
STARTCHAR 2549
ENCODING 9545
SWIDTH 609 0
DWIDTH 11 0
BBX 11 21 0 -4
BITMAP
0E00
0E00
0E00
0E00
0E00
0E00
0E00
0E00
0E00
FFE0
FFE0
FE00
0E00
0E00
0E00
0E00
0E00
0E00
0E00
0E00
0E00
ENDCHAR
STARTCHAR 254A
ENCODING 9546
SWIDTH 609 0
DWIDTH 11 0
BBX 11 21 0 -4
BITMAP
0E00
0E00
0E00
0E00
0E00
0E00
0E00
0E00
0E00
FFE0
FFE0
0FE0
0E00
0E00
0E00
0E00
0E00
0E00
0E00
0E00
0E00
ENDCHAR
STARTCHAR 254B
ENCODING 9547
SWIDTH 609 0
DWIDTH 11 0
BBX 11 21 0 -4
BITMAP
0E00
0E00
0E00
0E00
0E00
0E00
0E00
0E00
0E00
FFE0
FFE0
FFE0
0E00
0E00
0E00
0E00
0E00
0E00
0E00
0E00
0E00
ENDCHAR
STARTCHAR 254C
ENCODING 9548
SWIDTH 609 0
DWIDTH 11 0
BBX 9 2 1 5
BITMAP
F780
F780
ENDCHAR
STARTCHAR 254D
ENCODING 9549
SWIDTH 609 0
DWIDTH 11 0
BBX 9 3 1 5
BITMAP
F780
F780
F780
ENDCHAR
STARTCHAR 254E
ENCODING 9550
SWIDTH 609 0
DWIDTH 11 0
BBX 1 18 5 -3
BITMAP
80
80
80
80
80
80
80
00
00
00
00
80
80
80
80
80
80
80
ENDCHAR
STARTCHAR 254F
ENCODING 9551
SWIDTH 609 0
DWIDTH 11 0
BBX 3 18 4 -3
BITMAP
E0
E0
E0
E0
E0
E0
E0
00
00
00
00
E0
E0
E0
E0
E0
E0
E0
ENDCHAR
STARTCHAR 2550
ENCODING 9552
SWIDTH 609 0
DWIDTH 11 0
BBX 11 5 0 4
BITMAP
FFE0
FFE0
0000
FFE0
FFE0
ENDCHAR
STARTCHAR 2551
ENCODING 9553
SWIDTH 609 0
DWIDTH 11 0
BBX 5 21 3 -4
BITMAP
D8
D8
D8
D8
D8
D8
D8
D8
D8
D8
D8
D8
D8
D8
D8
D8
D8
D8
D8
D8
D8
ENDCHAR
STARTCHAR 2552
ENCODING 9554
SWIDTH 609 0
DWIDTH 11 0
BBX 6 13 5 -4
BITMAP
FC
FC
80
FC
FC
80
80
80
80
80
80
80
80
ENDCHAR
STARTCHAR 2553
ENCODING 9555
SWIDTH 609 0
DWIDTH 11 0
BBX 8 12 3 -4
BITMAP
FF
FF
D8
D8
D8
D8
D8
D8
D8
D8
D8
D8
ENDCHAR
STARTCHAR 2554
ENCODING 9556
SWIDTH 609 0
DWIDTH 11 0
BBX 8 13 3 -4
BITMAP
FF
FF
C0
DF
DF
D8
D8
D8
D8
D8
D8
D8
D8
ENDCHAR
STARTCHAR 2555
ENCODING 9557
SWIDTH 609 0
DWIDTH 11 0
BBX 6 13 0 -4
BITMAP
FC
FC
04
FC
FC
04
04
04
04
04
04
04
04
ENDCHAR
STARTCHAR 2556
ENCODING 9558
SWIDTH 609 0
DWIDTH 11 0
BBX 8 12 0 -4
BITMAP
FF
FF
1B
1B
1B
1B
1B
1B
1B
1B
1B
1B
ENDCHAR
STARTCHAR 2557
ENCODING 9559
SWIDTH 609 0
DWIDTH 11 0
BBX 8 13 0 -4
BITMAP
FF
FF
03
FB
FB
1B
1B
1B
1B
1B
1B
1B
1B
ENDCHAR
STARTCHAR 2558
ENCODING 9560
SWIDTH 609 0
DWIDTH 11 0
BBX 6 13 5 4
BITMAP
80
80
80
80
80
80
80
80
FC
FC
80
FC
FC
ENDCHAR
STARTCHAR 2559
ENCODING 9561
SWIDTH 609 0
DWIDTH 11 0
BBX 8 11 3 6
BITMAP
D8
D8
D8
D8
D8
D8
D8
D8
D8
D8
FF
ENDCHAR
STARTCHAR 255A
ENCODING 9562
SWIDTH 609 0
DWIDTH 11 0
BBX 8 13 3 4
BITMAP
D8
D8
D8
D8
D8
D8
D8
D8
DF
DF
C0
FF
FF
ENDCHAR
STARTCHAR 255B
ENCODING 9563
SWIDTH 609 0
DWIDTH 11 0
BBX 6 13 0 4
BITMAP
04
04
04
04
04
04
04
04
04
FC
04
04
FC
ENDCHAR
STARTCHAR 255C
ENCODING 9564
SWIDTH 609 0
DWIDTH 11 0
BBX 8 11 0 6
BITMAP
1B
1B
1B
1B
1B
1B
1B
1B
1B
1B
FF
ENDCHAR
STARTCHAR 255D
ENCODING 9565
SWIDTH 609 0
DWIDTH 11 0
BBX 8 13 0 4
BITMAP
1B
1B
1B
1B
1B
1B
1B
1B
1B
FB
03
03
FF
ENDCHAR
STARTCHAR 255E
ENCODING 9566
SWIDTH 609 0
DWIDTH 11 0
BBX 6 21 5 -4
BITMAP
80
80
80
80
80
80
80
80
FC
FC
80
FC
FC
80
80
80
80
80
80
80
80
ENDCHAR
STARTCHAR 255F
ENCODING 9567
SWIDTH 609 0
DWIDTH 11 0
BBX 8 21 3 -4
BITMAP
D8
D8
D8
D8
D8
D8
D8
D8
D8
DF
DF
D8
D8
D8
D8
D8
D8
D8
D8
D8
D8
ENDCHAR
STARTCHAR 2560
ENCODING 9568
SWIDTH 609 0
DWIDTH 11 0
BBX 8 21 3 -4
BITMAP
D8
D8
D8
D8
D8
D8
D8
D8
DF
DF
C0
DF
DF
D8
D8
D8
D8
D8
D8
D8
D8
ENDCHAR
STARTCHAR 2561
ENCODING 9569
SWIDTH 609 0
DWIDTH 11 0
BBX 6 21 0 -4
BITMAP
04
04
04
04
04
04
04
04
FC
FC
04
FC
FC
04
04
04
04
04
04
04
04
ENDCHAR
STARTCHAR 2562
ENCODING 9570
SWIDTH 609 0
DWIDTH 11 0
BBX 8 21 0 -4
BITMAP
1B
1B
1B
1B
1B
1B
1B
1B
1B
FB
FB
1B
1B
1B
1B
1B
1B
1B
1B
1B
1B
ENDCHAR
STARTCHAR 2563
ENCODING 9571
SWIDTH 609 0
DWIDTH 11 0
BBX 8 21 0 -4
BITMAP
1B
1B
1B
1B
1B
1B
1B
1B
FB
FB
03
FB
FB
1B
1B
1B
1B
1B
1B
1B
1B
ENDCHAR
STARTCHAR 2564
ENCODING 9572
SWIDTH 609 0
DWIDTH 11 0
BBX 11 13 0 -4
BITMAP
FFE0
FFE0
0000
FFE0
FFE0
0400
0400
0400
0400
0400
0400
0400
0400
ENDCHAR
STARTCHAR 2565
ENCODING 9573
SWIDTH 609 0
DWIDTH 11 0
BBX 11 12 0 -4
BITMAP
FFE0
FFE0
1B00
1B00
1B00
1B00
1B00
1B00
1B00
1B00
1B00
1B00
ENDCHAR
STARTCHAR 2566
ENCODING 9574
SWIDTH 609 0
DWIDTH 11 0
BBX 11 13 0 -4
BITMAP
FFE0
FFE0
0000
FBE0
FBE0
1B00
1B00
1B00
1B00
1B00
1B00
1B00
1B00
ENDCHAR
STARTCHAR 2567
ENCODING 9575
SWIDTH 609 0
DWIDTH 11 0
BBX 11 13 0 4
BITMAP
0400
0400
0400
0400
0400
0400
0400
0400
FFE0
FFE0
0000
FFE0
FFE0
ENDCHAR
STARTCHAR 2568
ENCODING 9576
SWIDTH 609 0
DWIDTH 11 0
BBX 11 11 0 6
BITMAP
1B00
1B00
1B00
1B00
1B00
1B00
1B00
1B00
1B00
1B00
FFE0
ENDCHAR
STARTCHAR 2569
ENCODING 9577
SWIDTH 609 0
DWIDTH 11 0
BBX 11 13 0 4
BITMAP
1B00
1B00
1B00
1B00
1B00
1B00
1B00
1B00
FBE0
FBE0
0000
FFE0
FFE0
ENDCHAR
STARTCHAR 256A
ENCODING 9578
SWIDTH 609 0
DWIDTH 11 0
BBX 11 21 0 -4
BITMAP
0400
0400
0400
0400
0400
0400
0400
0400
FFE0
FFE0
0400
FFE0
FFE0
0400
0400
0400
0400
0400
0400
0400
0400
ENDCHAR
STARTCHAR 256B
ENCODING 9579
SWIDTH 609 0
DWIDTH 11 0
BBX 11 21 0 -4
BITMAP
1B00
1B00
1B00
1B00
1B00
1B00
1B00
1B00
1B00
FFE0
FFE0
1B00
1B00
1B00
1B00
1B00
1B00
1B00
1B00
1B00
1B00
ENDCHAR
STARTCHAR 256C
ENCODING 9580
SWIDTH 609 0
DWIDTH 11 0
BBX 11 21 0 -4
BITMAP
1B00
1B00
1B00
1B00
1B00
1B00
1B00
1B00
FBE0
FBE0
0000
FBE0
FBE0
1B00
1B00
1B00
1B00
1B00
1B00
1B00
1B00
ENDCHAR
STARTCHAR 256D
ENCODING 9581
SWIDTH 609 0
DWIDTH 11 0
BBX 6 12 5 -4
BITMAP
7C
FC
C0
80
80
80
80
80
80
80
80
80
ENDCHAR
STARTCHAR 256E
ENCODING 9582
SWIDTH 609 0
DWIDTH 11 0
BBX 6 12 0 -4
BITMAP
F8
FC
0C
04
04
04
04
04
04
04
04
04
ENDCHAR
STARTCHAR 256F
ENCODING 9583
SWIDTH 609 0
DWIDTH 11 0
BBX 6 12 0 5
BITMAP
04
04
04
04
04
04
04
04
04
0C
FC
F8
ENDCHAR
STARTCHAR 2570
ENCODING 9584
SWIDTH 609 0
DWIDTH 11 0
BBX 6 12 5 5
BITMAP
80
80
80
80
80
80
80
80
80
C0
FC
7C
ENDCHAR
STARTCHAR 2571
ENCODING 9585
SWIDTH 609 0
DWIDTH 11 0
BBX 13 21 -1 -4
BITMAP
0018
0030
0020
0060
0040
00C0
0080
0180
0100
0300
0200
0600
0400
0C00
0800
1800
1000
3000
2000
6000
C000
ENDCHAR
STARTCHAR 2572
ENCODING 9586
SWIDTH 609 0
DWIDTH 11 0
BBX 13 21 -1 -4
BITMAP
C000
6000
2000
3000
1000
1800
0800
0C00
0400
0600
0200
0300
0100
0180
0080
00C0
0040
0060
0020
0030
0018
ENDCHAR
STARTCHAR 2573
ENCODING 9587
SWIDTH 609 0
DWIDTH 11 0
BBX 13 21 -1 -4
BITMAP
C018
6030
2020
3060
1040
18C0
0880
0D80
0500
0700
0200
0700
0500
0D80
0880
18C0
1040
3060
2020
6030
C018
ENDCHAR
STARTCHAR 2574
ENCODING 9588
SWIDTH 609 0
DWIDTH 11 0
BBX 5 2 0 5
BITMAP
F8
F8
ENDCHAR
STARTCHAR 2575
ENCODING 9589
SWIDTH 609 0
DWIDTH 11 0
BBX 1 11 5 6
BITMAP
80
80
80
80
80
80
80
80
80
80
80
ENDCHAR
STARTCHAR 2576
ENCODING 9590
SWIDTH 609 0
DWIDTH 11 0
BBX 6 2 5 5
BITMAP
FC
FC
ENDCHAR
STARTCHAR 2577
ENCODING 9591
SWIDTH 609 0
DWIDTH 11 0
BBX 1 10 5 -4
BITMAP
80
80
80
80
80
80
80
80
80
80
ENDCHAR
STARTCHAR 2578
ENCODING 9592
SWIDTH 609 0
DWIDTH 11 0
BBX 5 3 0 5
BITMAP
F8
F8
F8
ENDCHAR
STARTCHAR 2579
ENCODING 9593
SWIDTH 609 0
DWIDTH 11 0
BBX 3 11 4 6
BITMAP
E0
E0
E0
E0
E0
E0
E0
E0
E0
E0
E0
ENDCHAR
STARTCHAR 257A
ENCODING 9594
SWIDTH 609 0
DWIDTH 11 0
BBX 6 3 5 5
BITMAP
FC
FC
FC
ENDCHAR
STARTCHAR 257B
ENCODING 9595
SWIDTH 609 0
DWIDTH 11 0
BBX 3 10 4 -4
BITMAP
E0
E0
E0
E0
E0
E0
E0
E0
E0
E0
ENDCHAR
STARTCHAR 257C
ENCODING 9596
SWIDTH 609 0
DWIDTH 11 0
BBX 11 3 0 5
BITMAP
FFE0
FFE0
03E0
ENDCHAR
STARTCHAR 257D
ENCODING 9597
SWIDTH 609 0
DWIDTH 11 0
BBX 3 21 4 -4
BITMAP
40
40
40
40
40
40
40
40
40
40
40
E0
E0
E0
E0
E0
E0
E0
E0
E0
E0
ENDCHAR
STARTCHAR 257E
ENCODING 9598
SWIDTH 609 0
DWIDTH 11 0
BBX 11 3 0 5
BITMAP
FFE0
FFE0
FC00
ENDCHAR
STARTCHAR 257F
ENCODING 9599
SWIDTH 609 0
DWIDTH 11 0
BBX 3 21 4 -4
BITMAP
E0
E0
E0
E0
E0
E0
E0
E0
E0
E0
E0
40
40
40
40
40
40
40
40
40
40
ENDCHAR
STARTCHAR 2580
ENCODING 9600
SWIDTH 609 0
DWIDTH 11 0
BBX 11 11 0 6
BITMAP
FFE0
FFE0
FFE0
FFE0
FFE0
FFE0
FFE0
FFE0
FFE0
FFE0
FFE0
ENDCHAR
STARTCHAR 2581
ENCODING 9601
SWIDTH 609 0
DWIDTH 11 0
BBX 11 3 0 -4
BITMAP
FFE0
FFE0
FFE0
ENDCHAR
STARTCHAR 2582
ENCODING 9602
SWIDTH 609 0
DWIDTH 11 0
BBX 11 5 0 -4
BITMAP
FFE0
FFE0
FFE0
FFE0
FFE0
ENDCHAR
STARTCHAR 2583
ENCODING 9603
SWIDTH 609 0
DWIDTH 11 0
BBX 11 8 0 -4
BITMAP
FFE0
FFE0
FFE0
FFE0
FFE0
FFE0
FFE0
FFE0
ENDCHAR
STARTCHAR 2584
ENCODING 9604
SWIDTH 609 0
DWIDTH 11 0
BBX 11 10 0 -4
BITMAP
FFE0
FFE0
FFE0
FFE0
FFE0
FFE0
FFE0
FFE0
FFE0
FFE0
ENDCHAR
STARTCHAR 2585
ENCODING 9605
SWIDTH 609 0
DWIDTH 11 0
BBX 11 13 0 -4
BITMAP
FFE0
FFE0
FFE0
FFE0
FFE0
FFE0
FFE0
FFE0
FFE0
FFE0
FFE0
FFE0
FFE0
ENDCHAR
STARTCHAR 2586
ENCODING 9606
SWIDTH 609 0
DWIDTH 11 0
BBX 11 16 0 -4
BITMAP
FFE0
FFE0
FFE0
FFE0
FFE0
FFE0
FFE0
FFE0
FFE0
FFE0
FFE0
FFE0
FFE0
FFE0
FFE0
FFE0
ENDCHAR
STARTCHAR 2587
ENCODING 9607
SWIDTH 609 0
DWIDTH 11 0
BBX 11 18 0 -4
BITMAP
FFE0
FFE0
FFE0
FFE0
FFE0
FFE0
FFE0
FFE0
FFE0
FFE0
FFE0
FFE0
FFE0
FFE0
FFE0
FFE0
FFE0
FFE0
ENDCHAR
STARTCHAR 2588
ENCODING 9608
SWIDTH 609 0
DWIDTH 11 0
BBX 11 21 0 -4
BITMAP
FFE0
FFE0
FFE0
FFE0
FFE0
FFE0
FFE0
FFE0
FFE0
FFE0
FFE0
FFE0
FFE0
FFE0
FFE0
FFE0
FFE0
FFE0
FFE0
FFE0
FFE0
ENDCHAR
STARTCHAR 2589
ENCODING 9609
SWIDTH 609 0
DWIDTH 11 0
BBX 10 21 0 -4
BITMAP
FFC0
FFC0
FFC0
FFC0
FFC0
FFC0
FFC0
FFC0
FFC0
FFC0
FFC0
FFC0
FFC0
FFC0
FFC0
FFC0
FFC0
FFC0
FFC0
FFC0
FFC0
ENDCHAR
STARTCHAR 258A
ENCODING 9610
SWIDTH 609 0
DWIDTH 11 0
BBX 8 21 0 -4
BITMAP
FF
FF
FF
FF
FF
FF
FF
FF
FF
FF
FF
FF
FF
FF
FF
FF
FF
FF
FF
FF
FF
ENDCHAR
STARTCHAR 258B
ENCODING 9611
SWIDTH 609 0
DWIDTH 11 0
BBX 7 21 0 -4
BITMAP
FE
FE
FE
FE
FE
FE
FE
FE
FE
FE
FE
FE
FE
FE
FE
FE
FE
FE
FE
FE
FE
ENDCHAR
STARTCHAR 258C
ENCODING 9612
SWIDTH 609 0
DWIDTH 11 0
BBX 5 21 0 -4
BITMAP
F8
F8
F8
F8
F8
F8
F8
F8
F8
F8
F8
F8
F8
F8
F8
F8
F8
F8
F8
F8
F8
ENDCHAR
STARTCHAR 258D
ENCODING 9613
SWIDTH 609 0
DWIDTH 11 0
BBX 4 21 0 -4
BITMAP
F0
F0
F0
F0
F0
F0
F0
F0
F0
F0
F0
F0
F0
F0
F0
F0
F0
F0
F0
F0
F0
ENDCHAR
STARTCHAR 258E
ENCODING 9614
SWIDTH 609 0
DWIDTH 11 0
BBX 3 21 0 -4
BITMAP
E0
E0
E0
E0
E0
E0
E0
E0
E0
E0
E0
E0
E0
E0
E0
E0
E0
E0
E0
E0
E0
ENDCHAR
STARTCHAR 258F
ENCODING 9615
SWIDTH 609 0
DWIDTH 11 0
BBX 1 21 0 -4
BITMAP
80
80
80
80
80
80
80
80
80
80
80
80
80
80
80
80
80
80
80
80
80
ENDCHAR
STARTCHAR 2590
ENCODING 9616
SWIDTH 609 0
DWIDTH 11 0
BBX 6 21 5 -4
BITMAP
FC
FC
FC
FC
FC
FC
FC
FC
FC
FC
FC
FC
FC
FC
FC
FC
FC
FC
FC
FC
FC
ENDCHAR
STARTCHAR 2591
ENCODING 9617
SWIDTH 609 0
DWIDTH 11 0
BBX 10 21 0 -4
BITMAP
8600
8600
0000
10C0
10C0
8600
8600
0000
10C0
10C0
0000
8600
8600
0000
10C0
10C0
8600
8600
0000
10C0
10C0
ENDCHAR
STARTCHAR 2592
ENCODING 9618
SWIDTH 609 0
DWIDTH 11 0
BBX 11 21 0 -4
BITMAP
C980
C980
3660
3660
C980
C980
3660
3660
0000
C980
C980
3660
3660
C980
C980
3660
3660
C980
C980
3660
3660
ENDCHAR
STARTCHAR 2593
ENCODING 9619
SWIDTH 609 0
DWIDTH 11 0
BBX 11 21 0 -4
BITMAP
79E0
79E0
FFE0
EF20
EF20
79E0
79E0
79E0
EF20
EF20
FFE0
79E0
79E0
6920
EF20
EF20
FFE0
79E0
FFE0
EF20
EF20
ENDCHAR
STARTCHAR 2594
ENCODING 9620
SWIDTH 609 0
DWIDTH 11 0
BBX 11 3 0 14
BITMAP
FFE0
FFE0
FFE0
ENDCHAR
STARTCHAR 2595
ENCODING 9621
SWIDTH 609 0
DWIDTH 11 0
BBX 1 21 10 -4
BITMAP
80
80
80
80
80
80
80
80
80
80
80
80
80
80
80
80
80
80
80
80
80
ENDCHAR
STARTCHAR 2596
ENCODING 9622
SWIDTH 609 0
DWIDTH 11 0
BBX 5 10 0 -4
BITMAP
F8
F8
F8
F8
F8
F8
F8
F8
F8
F8
ENDCHAR
STARTCHAR 2597
ENCODING 9623
SWIDTH 609 0
DWIDTH 11 0
BBX 6 10 5 -4
BITMAP
FC
FC
FC
FC
FC
FC
FC
FC
FC
FC
ENDCHAR
STARTCHAR 2598
ENCODING 9624
SWIDTH 609 0
DWIDTH 11 0
BBX 5 11 0 6
BITMAP
F8
F8
F8
F8
F8
F8
F8
F8
F8
F8
F8
ENDCHAR
STARTCHAR 2599
ENCODING 9625
SWIDTH 609 0
DWIDTH 11 0
BBX 11 21 0 -4
BITMAP
F800
F800
F800
F800
F800
F800
F800
F800
F800
F800
F800
FFE0
FFE0
FFE0
FFE0
FFE0
FFE0
FFE0
FFE0
FFE0
FFE0
ENDCHAR
STARTCHAR 259A
ENCODING 9626
SWIDTH 609 0
DWIDTH 11 0
BBX 11 21 0 -4
BITMAP
F800
F800
F800
F800
F800
F800
F800
F800
F800
F800
F800
07E0
07E0
07E0
07E0
07E0
07E0
07E0
07E0
07E0
07E0
ENDCHAR
STARTCHAR 259B
ENCODING 9627
SWIDTH 609 0
DWIDTH 11 0
BBX 11 21 0 -4
BITMAP
FFE0
FFE0
FFE0
FFE0
FFE0
FFE0
FFE0
FFE0
FFE0
FFE0
FFE0
F800
F800
F800
F800
F800
F800
F800
F800
F800
F800
ENDCHAR
STARTCHAR 259C
ENCODING 9628
SWIDTH 609 0
DWIDTH 11 0
BBX 11 21 0 -4
BITMAP
FFE0
FFE0
FFE0
FFE0
FFE0
FFE0
FFE0
FFE0
FFE0
FFE0
FFE0
07E0
07E0
07E0
07E0
07E0
07E0
07E0
07E0
07E0
07E0
ENDCHAR
STARTCHAR 259D
ENCODING 9629
SWIDTH 609 0
DWIDTH 11 0
BBX 6 11 5 6
BITMAP
FC
FC
FC
FC
FC
FC
FC
FC
FC
FC
FC
ENDCHAR
STARTCHAR 259E
ENCODING 9630
SWIDTH 609 0
DWIDTH 11 0
BBX 11 21 0 -4
BITMAP
07E0
07E0
07E0
07E0
07E0
07E0
07E0
07E0
07E0
07E0
07E0
F800
F800
F800
F800
F800
F800
F800
F800
F800
F800
ENDCHAR
STARTCHAR 259F
ENCODING 9631
SWIDTH 609 0
DWIDTH 11 0
BBX 11 21 0 -4
BITMAP
07E0
07E0
07E0
07E0
07E0
07E0
07E0
07E0
07E0
07E0
07E0
FFE0
FFE0
FFE0
FFE0
FFE0
FFE0
FFE0
FFE0
FFE0
FFE0
ENDCHAR
STARTCHAR 25A0
ENCODING 9632
SWIDTH 609 0
DWIDTH 11 0
BBX 11 11 0 -1
BITMAP
FFE0
FFE0
FFE0
FFE0
FFE0
FFE0
FFE0
FFE0
FFE0
FFE0
FFE0
ENDCHAR
STARTCHAR 25A1
ENCODING 9633
SWIDTH 609 0
DWIDTH 11 0
BBX 11 11 0 -1
BITMAP
FFE0
8020
8020
8020
8020
8020
8020
8020
8020
8020
FFE0
ENDCHAR
STARTCHAR 25A2
ENCODING 9634
SWIDTH 609 0
DWIDTH 11 0
BBX 11 11 0 -1
BITMAP
7FC0
C060
8020
8020
8020
8020
8020
8020
8020
C060
7FC0
ENDCHAR
STARTCHAR 25A3
ENCODING 9635
SWIDTH 609 0
DWIDTH 11 0
BBX 11 11 0 -1
BITMAP
FFE0
8020
BFA0
BFA0
BFA0
BFA0
BFA0
BFA0
BFA0
8020
FFE0
ENDCHAR
STARTCHAR 25A4
ENCODING 9636
SWIDTH 609 0
DWIDTH 11 0
BBX 11 11 0 -1
BITMAP
FFE0
8020
FFE0
8020
FFE0
8020
FFE0
8020
FFE0
8020
FFE0
ENDCHAR
STARTCHAR 25A5
ENCODING 9637
SWIDTH 609 0
DWIDTH 11 0
BBX 11 11 0 -1
BITMAP
FFE0
AAA0
AAA0
AAA0
AAA0
AAA0
AAA0
AAA0
AAA0
AAA0
FFE0
ENDCHAR
STARTCHAR 25A6
ENCODING 9638
SWIDTH 609 0
DWIDTH 11 0
BBX 11 10 0 0
BITMAP
FFE0
AAA0
FFE0
AAA0
FFE0
AAA0
FFE0
AAA0
FFE0
AAA0
ENDCHAR
STARTCHAR 25A7
ENCODING 9639
SWIDTH 609 0
DWIDTH 11 0
BBX 11 11 0 -1
BITMAP
FFE0
B4A0
DA60
ED20
B6A0
DA60
AD20
96A0
DB60
ADA0
FFE0
ENDCHAR
STARTCHAR 25A8
ENCODING 9640
SWIDTH 609 0
DWIDTH 11 0
BBX 11 11 0 -1
BITMAP
FFE0
ADA0
CB60
96A0
ADA0
DB60
B6A0
ED20
DA60
B4A0
FFE0
ENDCHAR
STARTCHAR 25A9
ENCODING 9641
SWIDTH 609 0
DWIDTH 11 0
BBX 11 11 0 -1
BITMAP
FFE0
BDA0
DB60
FFA0
BFA0
DB60
BFA0
FFA0
DB60
BDA0
FFE0
ENDCHAR
STARTCHAR 25AA
ENCODING 9642
SWIDTH 609 0
DWIDTH 11 0
BBX 7 7 2 1
BITMAP
FE
FE
FE
FE
FE
FE
FE
ENDCHAR
STARTCHAR 25AB
ENCODING 9643
SWIDTH 609 0
DWIDTH 11 0
BBX 7 7 2 1
BITMAP
FE
82
82
82
82
82
FE
ENDCHAR
STARTCHAR 25AC
ENCODING 9644
SWIDTH 609 0
DWIDTH 11 0
BBX 11 5 0 2
BITMAP
FFE0
FFE0
FFE0
FFE0
FFE0
ENDCHAR
STARTCHAR 25AD
ENCODING 9645
SWIDTH 609 0
DWIDTH 11 0
BBX 11 5 0 2
BITMAP
FFE0
8020
8020
8020
FFE0
ENDCHAR
STARTCHAR 25AE
ENCODING 9646
SWIDTH 609 0
DWIDTH 11 0
BBX 5 11 3 -1
BITMAP
F8
F8
F8
F8
F8
F8
F8
F8
F8
F8
F8
ENDCHAR
STARTCHAR 25AF
ENCODING 9647
SWIDTH 609 0
DWIDTH 11 0
BBX 5 11 3 -1
BITMAP
F8
88
88
88
88
88
88
88
88
88
F8
ENDCHAR
STARTCHAR 25B0
ENCODING 9648
SWIDTH 609 0
DWIDTH 11 0
BBX 11 5 0 2
BITMAP
3FE0
3FC0
7F80
7F80
FF00
ENDCHAR
STARTCHAR 25B1
ENCODING 9649
SWIDTH 609 0
DWIDTH 11 0
BBX 11 5 0 2
BITMAP
3FE0
2040
4080
4080
FF00
ENDCHAR
STARTCHAR 25B2
ENCODING 9650
SWIDTH 609 0
DWIDTH 11 0
BBX 11 11 0 -1
BITMAP
0400
0400
0E00
0E00
1F00
1F00
3F80
3F80
7FC0
7FC0
FFE0
ENDCHAR
STARTCHAR 25B3
ENCODING 9651
SWIDTH 609 0
DWIDTH 11 0
BBX 11 11 0 -1
BITMAP
0400
0400
0A00
0A00
1100
1100
2080
2080
4040
4040
FFE0
ENDCHAR
STARTCHAR 25B4
ENCODING 9652
SWIDTH 609 0
DWIDTH 11 0
BBX 7 7 2 1
BITMAP
10
10
38
38
7C
7C
FE
ENDCHAR
STARTCHAR 25B5
ENCODING 9653
SWIDTH 609 0
DWIDTH 11 0
BBX 7 7 2 1
BITMAP
10
10
28
28
44
44
FE
ENDCHAR
STARTCHAR 25B6
ENCODING 9654
SWIDTH 609 0
DWIDTH 11 0
BBX 11 11 0 -1
BITMAP
8000
E000
F800
FE00
FF80
FFE0
FF00
FC00
F000
C000
8000
ENDCHAR
STARTCHAR 25B7
ENCODING 9655
SWIDTH 609 0
DWIDTH 11 0
BBX 11 11 0 -1
BITMAP
8000
E000
9800
8600
8180
80E0
8300
8C00
B000
C000
8000
ENDCHAR
STARTCHAR 25B8
ENCODING 9656
SWIDTH 609 0
DWIDTH 11 0
BBX 7 7 2 1
BITMAP
80
E0
F8
FE
F8
E0
80
ENDCHAR
STARTCHAR 25B9
ENCODING 9657
SWIDTH 609 0
DWIDTH 11 0
BBX 7 7 2 1
BITMAP
80
E0
98
86
98
E0
80
ENDCHAR
STARTCHAR 25BA
ENCODING 9658
SWIDTH 609 0
DWIDTH 11 0
BBX 11 7 0 1
BITMAP
C000
F800
FF00
FFE0
FE00
F000
8000
ENDCHAR
STARTCHAR 25BB
ENCODING 9659
SWIDTH 609 0
DWIDTH 11 0
BBX 11 7 0 1
BITMAP
C000
B800
8700
81E0
8E00
F000
8000
ENDCHAR
STARTCHAR 25BC
ENCODING 9660
SWIDTH 609 0
DWIDTH 11 0
BBX 11 11 0 -1
BITMAP
FFE0
7FC0
7FC0
3F80
3F80
1F00
1F00
0E00
0E00
0400
0400
ENDCHAR
STARTCHAR 25BD
ENCODING 9661
SWIDTH 609 0
DWIDTH 11 0
BBX 11 11 0 -1
BITMAP
FFE0
4040
4040
2080
2080
1100
1100
0A00
0A00
0400
0400
ENDCHAR
STARTCHAR 25BE
ENCODING 9662
SWIDTH 609 0
DWIDTH 11 0
BBX 7 7 2 1
BITMAP
FE
7C
7C
38
38
10
10
ENDCHAR
STARTCHAR 25BF
ENCODING 9663
SWIDTH 609 0
DWIDTH 11 0
BBX 7 7 2 1
BITMAP
FE
44
44
28
28
10
10
ENDCHAR
STARTCHAR 25C0
ENCODING 9664
SWIDTH 609 0
DWIDTH 11 0
BBX 11 11 0 -1
BITMAP
0020
00E0
03E0
0FE0
3FE0
FFE0
3FE0
0FE0
03E0
00E0
0020
ENDCHAR
STARTCHAR 25C1
ENCODING 9665
SWIDTH 609 0
DWIDTH 11 0
BBX 11 11 0 -1
BITMAP
0020
00E0
0320
0C20
3020
C020
3020
0C20
0320
00E0
0020
ENDCHAR
STARTCHAR 25C2
ENCODING 9666
SWIDTH 609 0
DWIDTH 11 0
BBX 7 7 2 1
BITMAP
02
0E
3E
FE
3E
0E
02
ENDCHAR
STARTCHAR 25C3
ENCODING 9667
SWIDTH 609 0
DWIDTH 11 0
BBX 7 7 2 1
BITMAP
02
0E
32
C2
32
0E
02
ENDCHAR
STARTCHAR 25C4
ENCODING 9668
SWIDTH 609 0
DWIDTH 11 0
BBX 11 7 0 1
BITMAP
0060
03E0
1FE0
FFE0
0FE0
01E0
0020
ENDCHAR
STARTCHAR 25C5
ENCODING 9669
SWIDTH 609 0
DWIDTH 11 0
BBX 11 7 0 1
BITMAP
0060
03A0
1C20
E020
1E20
01E0
0020
ENDCHAR
STARTCHAR 25C6
ENCODING 9670
SWIDTH 609 0
DWIDTH 11 0
BBX 11 11 0 -1
BITMAP
0400
0E00
1F00
3F80
7FC0
FFE0
7FC0
3F80
1F00
0E00
0400
ENDCHAR
STARTCHAR 25C7
ENCODING 9671
SWIDTH 609 0
DWIDTH 11 0
BBX 11 11 0 -1
BITMAP
0400
0E00
1B00
3180
60C0
C060
60C0
3180
1B00
0E00
0400
ENDCHAR
STARTCHAR 25C8
ENCODING 9672
SWIDTH 609 0
DWIDTH 11 0
BBX 11 11 0 -1
BITMAP
0400
0A00
1500
2E80
5F40
FFE0
7EC0
3D80
1B00
0E00
0400
ENDCHAR
STARTCHAR 25C9
ENCODING 9673
SWIDTH 609 0
DWIDTH 11 0
BBX 11 11 0 -1
BITMAP
1F00
3180
4E40
DF60
BFA0
BFA0
BFA0
DF60
4E40
3180
1F00
ENDCHAR
STARTCHAR 25CA
ENCODING 9674
SWIDTH 609 0
DWIDTH 11 0
BBX 9 19 1 -4
BITMAP
0800
0800
1800
1400
1400
2200
2200
4100
4100
8080
8180
4100
4100
2200
2200
1400
1400
0800
0800
ENDCHAR
STARTCHAR 25CB
ENCODING 9675
SWIDTH 609 0
DWIDTH 11 0
BBX 11 10 0 0
BITMAP
1F00
3180
40C0
C060
C060
8060
C060
4040
7180
1F00
ENDCHAR
STARTCHAR 25CC
ENCODING 9676
SWIDTH 609 0
DWIDTH 11 0
BBX 11 10 0 0
BITMAP
0E00
6180
20C0
0000
C060
C060
0000
2080
61C0
2E80
ENDCHAR
STARTCHAR 25CD
ENCODING 9677
SWIDTH 609 0
DWIDTH 11 0
BBX 11 11 0 -1
BITMAP
1F00
3B80
6AC0
EAE0
AAA0
AAA0
AAA0
EAE0
6AC0
3B80
1F00
ENDCHAR
STARTCHAR 25CE
ENCODING 9678
SWIDTH 609 0
DWIDTH 11 0
BBX 11 10 0 0
BITMAP
1F00
3180
40C0
CE60
D360
9360
CE60
4040
7180
1F00
ENDCHAR
STARTCHAR 25CF
ENCODING 9679
SWIDTH 609 0
DWIDTH 11 0
BBX 11 11 0 -1
BITMAP
1F00
3F80
7FC0
FFE0
FFE0
FFE0
FFE0
FFE0
7FC0
3F80
1F00
ENDCHAR
STARTCHAR 25D0
ENCODING 9680
SWIDTH 609 0
DWIDTH 11 0
BBX 11 11 0 -1
BITMAP
1F00
3980
7840
F860
F820
F820
F820
F860
7840
3980
1F00
ENDCHAR
STARTCHAR 25D1
ENCODING 9681
SWIDTH 609 0
DWIDTH 11 0
BBX 11 11 0 -1
BITMAP
1F00
3780
47C0
C7E0
87E0
87E0
87E0
C7E0
47C0
3780
1F00
ENDCHAR
STARTCHAR 25D2
ENCODING 9682
SWIDTH 609 0
DWIDTH 11 0
BBX 11 10 0 0
BITMAP
1F00
2180
4040
8060
8020
FFE0
FFE0
7FC0
3F80
1F00
ENDCHAR
STARTCHAR 25D3
ENCODING 9683
SWIDTH 609 0
DWIDTH 11 0
BBX 11 10 0 0
BITMAP
1F00
3F80
7FC0
FFE0
FFE0
8020
8060
4040
2180
1F00
ENDCHAR
STARTCHAR 25D4
ENCODING 9684
SWIDTH 609 0
DWIDTH 11 0
BBX 11 11 0 -1
BITMAP
1F00
3780
47C0
C7E0
87E0
87E0
8020
C060
4040
3180
1F00
ENDCHAR
STARTCHAR 25D5
ENCODING 9685
SWIDTH 609 0
DWIDTH 11 0
BBX 11 10 0 0
BITMAP
1F00
2780
47C0
87E0
87E0
FFE0
FFE0
7FC0
3F80
1F00
ENDCHAR
ENDFONT
